999
dxfrw 0.5.10
0
SECTION
2
HEADER
9
$ACADVER
1
AC1021
9
$HANDSEED
5
20000
9
$DWGCODEPAGE
3
ANSI_1252
9
$INSBASE
10
0
20
0
30
0
9
$EXTMIN
10
395.143354166
20
3374.99328113
30
0
9
$EXTMAX
10
419.013213785
20
3387.43334806
30
0
9
$LIMMIN
10
0
20
0
9
$LIMMAX
10
420
20
297
9
$ORTHOMODE
70
0
9
$LTSCALE
40
1
9
$TEXTSTYLE
7
Standard
9
$CLAYER
8
Building foot print
9
$DIMASZ
40
0.2
9
$DIMLFAC
40
1
9
$DIMSCALE
40
1
9
$DIMEXO
40
0.625
9
$DIMEXE
40
0.2005
9
$DIMTXT
40
0.2
9
$DIMTSZ
40
0
9
$DIMAUNIT
70
0
9
$DIMADEC
70
0
9
$DIMLUNIT
70
2
9
$DIMSTYLE
2
ISO-25
9
$DIMGAP
40
0.625
9
$DIMTIH
70
1
9
$LUNITS
70
2
9
$LUPREC
70
4
9
$AUNITS
70
0
9
$AUPREC
70
0
9
$SPLINESEGS
70
8
9
$GRIDMODE
70
0
9
$SNAPSTYLE
70
0
9
$PINSBASE
10
0
20
0
30
0
9
$PLIMMIN
10
0
20
0
9
$PLIMMAX
10
12
20
9
9
$INSUNITS
70
6
9
$PSVPSCALE
40
0
0
ENDSEC
0
SECTION
2
CLASSES
0
ENDSEC
0
SECTION
2
TABLES
0
TABLE
2
VPORT
5
8
330
0
100
AcDbSymbolTable
70
1
0
VPORT
5
31
330
2
100
AcDbSymbolTableRecord
100
AcDbViewportTableRecord
2
*ACTIVE
70
0
10
0
20
0
11
1
21
1
12
211.21251968
22
1694.61739531
13
0
23
0
14
10
24
10
15
10
25
10
16
0
26
0
36
1
17
0
27
0
37
0
40
14.5720138877
41
2.18834080717
42
50
43
0
44
0
50
0
51
0
71
0
72
100
73
1
74
3
75
0
76
0
77
0
78
0
281
0
65
1
110
0
120
0
130
0
111
1
121
0
131
0
112
0
122
1
132
0
79
0
146
0
348
10020
60
7
61
5
292
1
282
1
141
0
142
0
63
250
421
3358443
0
ENDTAB
0
TABLE
2
LTYPE
5
5
330
0
100
AcDbSymbolTable
70
4
0
LTYPE
5
14
330
5
100
AcDbSymbolTableRecord
100
AcDbLinetypeTableRecord
2
ByBlock
70
0
3

72
65
73
0
40
0
0
LTYPE
5
15
330
5
100
AcDbSymbolTableRecord
100
AcDbLinetypeTableRecord
2
ByLayer
70
0
3

72
65
73
0
40
0
0
LTYPE
5
16
330
5
100
AcDbSymbolTableRecord
100
AcDbLinetypeTableRecord
2
Continuous
70
0
3
Solid line
72
65
73
0
40
0
0
LTYPE
5
32
330
5
100
AcDbSymbolTableRecord
100
AcDbLinetypeTableRecord
2
DOT
70
0
3
Dot . . . . . . . . . . . . . . . . . . . . . .
72
65
73
2
40
6.35
49
0
74
0
49
-6.35
74
0
0
LTYPE
5
33
330
5
100
AcDbSymbolTableRecord
100
AcDbLinetypeTableRecord
2
DOT2
70
0
3
Dot (.5x) .....................................
72
65
73
2
40
3.175
49
0
74
0
49
-3.175
74
0
0
LTYPE
5
34
330
5
100
AcDbSymbolTableRecord
100
AcDbLinetypeTableRecord
2
DOTX2
70
0
3
Dot (2x) .  .  .  .  .  .  .  .  .  .  .  .  .
72
65
73
2
40
12.7
49
0
74
0
49
-12.7
74
0
0
LTYPE
5
35
330
5
100
AcDbSymbolTableRecord
100
AcDbLinetypeTableRecord
2
DASHED
70
0
3
Dot . . . . . . . . . . . . . . . . . . . . . .
72
65
73
2
40
19.05
49
12.7
74
0
49
-6.35
74
0
0
LTYPE
5
36
330
5
100
AcDbSymbolTableRecord
100
AcDbLinetypeTableRecord
2
DASHED2
70
0
3
Dashed (.5x) _ _ _ _ _ _ _ _ _ _ _ _ _ _ _ _ _
72
65
73
2
40
9.525
49
6.35
74
0
49
-3.175
74
0
0
LTYPE
5
37
330
5
100
AcDbSymbolTableRecord
100
AcDbLinetypeTableRecord
2
DASHEDX2
70
0
3
Dashed (2x) ____  ____  ____  ____  ____  ___
72
65
73
2
40
38.1
49
25.4
74
0
49
-12.7
74
0
0
LTYPE
5
38
330
5
100
AcDbSymbolTableRecord
100
AcDbLinetypeTableRecord
2
DASHDOT
70
0
3
Dash dot __ . __ . __ . __ . __ . __ . __ . __
72
65
73
4
40
25.4
49
12.7
74
0
49
-6.35
74
0
49
0
74
0
49
-6.35
74
0
0
LTYPE
5
39
330
5
100
AcDbSymbolTableRecord
100
AcDbLinetypeTableRecord
2
DASHDOT2
70
0
3
Dash dot (.5x) _._._._._._._._._._._._._._._.
72
65
73
4
40
12.7
49
6.35
74
0
49
-3.175
74
0
49
0
74
0
49
-3.175
74
0
0
LTYPE
5
3A
330
5
100
AcDbSymbolTableRecord
100
AcDbLinetypeTableRecord
2
DASHDOTX2
70
0
3
Dash dot (2x) ____  .  ____  .  ____  .  ___
72
65
73
4
40
50.8
49
25.4
74
0
49
-12.7
74
0
49
0
74
0
49
-12.7
74
0
0
LTYPE
5
3B
330
5
100
AcDbSymbolTableRecord
100
AcDbLinetypeTableRecord
2
DIVIDE
70
0
3
Divide ____ . . ____ . . ____ . . ____ . . ____
72
65
73
6
40
31.75
49
12.7
74
0
49
-6.35
74
0
49
0
74
0
49
-6.35
74
0
49
0
74
0
49
-6.35
74
0
0
LTYPE
5
3C
330
5
100
AcDbSymbolTableRecord
100
AcDbLinetypeTableRecord
2
DIVIDE2
70
0
3
Divide (.5x) __..__..__..__..__..__..__..__.._
72
65
73
6
40
15.875
49
6.35
74
0
49
-3.175
74
0
49
0
74
0
49
-3.175
74
0
49
0
74
0
49
-3.175
74
0
0
LTYPE
5
3D
330
5
100
AcDbSymbolTableRecord
100
AcDbLinetypeTableRecord
2
DIVIDEX2
70
0
3
Divide (2x) ________  .  .  ________  .  .  _
72
65
73
6
40
63.5
49
25.4
74
0
49
-12.7
74
0
49
0
74
0
49
-12.7
74
0
49
0
74
0
49
-12.7
74
0
0
LTYPE
5
3E
330
5
100
AcDbSymbolTableRecord
100
AcDbLinetypeTableRecord
2
BORDER
70
0
3
Border __ __ . __ __ . __ __ . __ __ . __ __ .
72
65
73
6
40
44.45
49
12.7
74
0
49
-6.35
74
0
49
12.7
74
0
49
-6.35
74
0
49
0
74
0
49
-6.35
74
0
0
LTYPE
5
3F
330
5
100
AcDbSymbolTableRecord
100
AcDbLinetypeTableRecord
2
BORDER2
70
0
3
Border (.5x) __.__.__.__.__.__.__.__.__.__.__.
72
65
73
6
40
22.225
49
6.35
74
0
49
-3.175
74
0
49
6.35
74
0
49
-3.175
74
0
49
0
74
0
49
-3.175
74
0
0
LTYPE
5
40
330
5
100
AcDbSymbolTableRecord
100
AcDbLinetypeTableRecord
2
BORDERX2
70
0
3
Border (2x) ____  ____  .  ____  ____  .  ___
72
65
73
6
40
88.9
49
25.4
74
0
49
-12.7
74
0
49
25.4
74
0
49
-12.7
74
0
49
0
74
0
49
-12.7
74
0
0
LTYPE
5
41
330
5
100
AcDbSymbolTableRecord
100
AcDbLinetypeTableRecord
2
CENTER
70
0
3
Center ____ _ ____ _ ____ _ ____ _ ____ _ ____
72
65
73
4
40
50.8
49
31.75
74
0
49
-6.35
74
0
49
6.35
74
0
49
-6.35
74
0
0
LTYPE
5
42
330
5
100
AcDbSymbolTableRecord
100
AcDbLinetypeTableRecord
2
CENTER2
70
0
3
Center (.5x) ___ _ ___ _ ___ _ ___ _ ___ _ ___
72
65
73
4
40
28.575
49
19.05
74
0
49
-3.175
74
0
49
3.175
74
0
49
-3.175
74
0
0
LTYPE
5
43
330
5
100
AcDbSymbolTableRecord
100
AcDbLinetypeTableRecord
2
CENTERX2
70
0
3
Center (2x) ________  __  ________  __  _____
72
65
73
4
40
101.6
49
63.5
74
0
49
-12.7
74
0
49
12.7
74
0
49
-12.7
74
0
0
ENDTAB
0
TABLE
2
LAYER
5
2
330
0
100
AcDbSymbolTable
70
1
0
LAYER
5
10
330
2
100
AcDbSymbolTableRecord
100
AcDbLayerTableRecord
2
0
70
1
62
7
6
CONTINUOUS
370
-3
390
F
0
LAYER
5
44
330
2
100
AcDbSymbolTableRecord
100
AcDbLayerTableRecord
2
Defpoints
70
1
62
7
6
CONTINUOUS
290
0
370
-3
390
F
0
LAYER
5
45
330
2
100
AcDbSymbolTableRecord
100
AcDbLayerTableRecord
2
Ground floor
70
1
62
1
6
CONTINUOUS
370
-3
390
F
0
LAYER
5
46
330
2
100
AcDbSymbolTableRecord
100
AcDbLayerTableRecord
2
First Floor
70
1
62
1
6
CONTINUOUS
370
-3
390
F
0
LAYER
5
47
330
2
100
AcDbSymbolTableRecord
100
AcDbLayerTableRecord
2
Second Floor
70
1
62
1
6
CONTINUOUS
370
-3
390
F
0
LAYER
5
48
330
2
100
AcDbSymbolTableRecord
100
AcDbLayerTableRecord
2
Building foot print
70
0
62
25
6
CONTINUOUS
290
0
370
-3
390
F
0
LAYER
5
49
330
2
100
AcDbSymbolTableRecord
100
AcDbLayerTableRecord
2
Notified roads
70
1
62
30
6
CONTINUOUS
370
-3
390
F
0
LAYER
5
4A
330
2
100
AcDbSymbolTableRecord
100
AcDbLayerTableRecord
2
Non notified road
70
1
62
35
6
CONTINUOUS
370
-3
390
F
0
LAYER
5
4B
330
2
100
AcDbSymbolTableRecord
100
AcDbLayerTableRecord
2
Shortest Distance to road
70
1
62
40
6
CONTINUOUS
370
-3
390
F
0
LAYER
5
4C
330
2
100
AcDbSymbolTableRecord
100
AcDbLayerTableRecord
2
Waste disposal
70
1
62
45
6
CONTINUOUS
370
-3
390
F
0
LAYER
5
4D
330
2
100
AcDbSymbolTableRecord
100
AcDbLayerTableRecord
2
Front yard
70
1
62
2
6
CONTINUOUS
370
-3
390
F
0
LAYER
5
4E
330
2
100
AcDbSymbolTableRecord
100
AcDbLayerTableRecord
2
Side yard 1
70
0
62
55
6
CONTINUOUS
370
-3
390
F
0
LAYER
5
4F
330
2
100
AcDbSymbolTableRecord
100
AcDbLayerTableRecord
2
Side yard 2
70
1
62
60
6
CONTINUOUS
370
-3
390
F
0
LAYER
5
50
330
2
100
AcDbSymbolTableRecord
100
AcDbLayerTableRecord
2
Rear yard
70
0
62
65
6
CONTINUOUS
370
-3
390
F
0
LAYER
5
51
330
2
100
AcDbSymbolTableRecord
100
AcDbLayerTableRecord
2
Plot boundary
70
0
62
70
6
CONTINUOUS
370
-3
390
F
0
LAYER
5
52
330
2
100
AcDbSymbolTableRecord
100
AcDbLayerTableRecord
2
OHEL
70
1
62
75
6
CONTINUOUS
370
-3
390
F
0
LAYER
5
53
330
2
100
AcDbSymbolTableRecord
100
AcDbLayerTableRecord
2
Voltage
70
1
62
80
6
CONTINUOUS
370
-3
390
F
0
LAYER
5
54
330
2
100
AcDbSymbolTableRecord
100
AcDbLayerTableRecord
2
Horiz_clear_OHE
70
1
62
85
6
CONTINUOUS
370
-3
390
F
0
LAYER
5
55
330
2
100
AcDbSymbolTableRecord
100
AcDbLayerTableRecord
2
Vert_clear_OHE
70
1
62
3
6
CONTINUOUS
370
-3
390
F
0
LAYER
5
56
330
2
100
AcDbSymbolTableRecord
100
AcDbLayerTableRecord
2
Plan info
70
1
62
95
6
CONTINUOUS
370
-3
390
F
0
ENDTAB
0
TABLE
2
STYLE
5
3
330
0
100
AcDbSymbolTable
70
3
0
STYLE
5
57
330
2
100
AcDbSymbolTableRecord
100
AcDbTextStyleTableRecord
2
standard
70
0
40
0
41
1
50
0
71
0
42
1
3
standard
4

0
ENDTAB
0
TABLE
2
VIEW
5
6
330
0
100
AcDbSymbolTable
70
0
0
ENDTAB
0
TABLE
2
UCS
5
7
330
0
100
AcDbSymbolTable
70
0
0
ENDTAB
0
TABLE
2
APPID
5
9
330
0
100
AcDbSymbolTable
70
1
0
APPID
5
12
330
9
100
AcDbSymbolTableRecord
100
AcDbRegAppTableRecord
2
ACAD
70
0
0
ENDTAB
0
TABLE
2
DIMSTYLE
5
A
330
0
100
AcDbSymbolTable
70
1
100
AcDbDimStyleTable
71
1
0
DIMSTYLE
105
58
330
A
100
AcDbSymbolTableRecord
100
AcDbDimStyleTableRecord
2
Standard
70
0
40
1
41
0.2
42
0.625
43
0.38
44
0.2005
45
0
46
0
47
0
48
0
140
0.2
141
0.09
142
0
143
25.4
144
1
145
0
146
1
147
0.625
148
0
71
0
72
0
73
0
74
1
75
0
76
0
77
0
78
0
79
0
170
0
171
2
172
0
173
0
174
0
175
0
176
0
177
0
178
0
179
0
271
4
272
4
273
2
274
2
275
0
276
0
277
2
278
46
279
0
280
0
281
0
282
0
283
1
284
0
285
0
286
0
288
0
289
3
340
Standard
341

371
-2
372
-2
0
ENDTAB
0
TABLE
2
BLOCK_RECORD
5
1
330
0
100
AcDbSymbolTable
70
2
0
BLOCK_RECORD
5
1F
330
1
100
AcDbSymbolTableRecord
100
AcDbBlockTableRecord
2
*Model_Space
70
0
280
1
281
0
0
BLOCK_RECORD
5
1E
330
1
100
AcDbSymbolTableRecord
100
AcDbBlockTableRecord
2
*Paper_Space
70
0
280
1
281
0
0
BLOCK_RECORD
5
59
330
1
100
AcDbSymbolTableRecord
100
AcDbBlockTableRecord
2
*D2
70
0
280
1
281
0
0
BLOCK_RECORD
5
5C
330
1
100
AcDbSymbolTableRecord
100
AcDbBlockTableRecord
2
*D23
70
0
280
1
281
0
0
BLOCK_RECORD
5
5F
330
1
100
AcDbSymbolTableRecord
100
AcDbBlockTableRecord
2
*D3
70
0
280
1
281
0
0
BLOCK_RECORD
5
62
330
1
100
AcDbSymbolTableRecord
100
AcDbBlockTableRecord
2
*D10
70
0
280
1
281
0
0
BLOCK_RECORD
5
65
330
1
100
AcDbSymbolTableRecord
100
AcDbBlockTableRecord
2
*D16
70
0
280
1
281
0
0
BLOCK_RECORD
5
68
330
1
100
AcDbSymbolTableRecord
100
AcDbBlockTableRecord
2
*D18
70
0
280
1
281
0
0
BLOCK_RECORD
5
6B
330
1
100
AcDbSymbolTableRecord
100
AcDbBlockTableRecord
2
*D12
70
0
280
1
281
0
0
BLOCK_RECORD
5
6E
330
1
100
AcDbSymbolTableRecord
100
AcDbBlockTableRecord
2
*D1
70
0
280
1
281
0
0
BLOCK_RECORD
5
71
330
1
100
AcDbSymbolTableRecord
100
AcDbBlockTableRecord
2
*D4
70
0
280
1
281
0
0
BLOCK_RECORD
5
74
330
1
100
AcDbSymbolTableRecord
100
AcDbBlockTableRecord
2
*D17
70
0
280
1
281
0
0
BLOCK_RECORD
5
77
330
1
100
AcDbSymbolTableRecord
100
AcDbBlockTableRecord
2
*D15
70
0
280
1
281
0
0
BLOCK_RECORD
5
7A
330
1
100
AcDbSymbolTableRecord
100
AcDbBlockTableRecord
2
*D11
70
0
280
1
281
0
0
BLOCK_RECORD
5
7D
330
1
100
AcDbSymbolTableRecord
100
AcDbBlockTableRecord
2
*D6
70
0
280
1
281
0
0
BLOCK_RECORD
5
80
330
1
100
AcDbSymbolTableRecord
100
AcDbBlockTableRecord
2
*D21
70
0
280
1
281
0
0
BLOCK_RECORD
5
83
330
1
100
AcDbSymbolTableRecord
100
AcDbBlockTableRecord
2
*D20
70
0
280
1
281
0
0
BLOCK_RECORD
5
86
330
1
100
AcDbSymbolTableRecord
100
AcDbBlockTableRecord
2
*D9
70
0
280
1
281
0
0
BLOCK_RECORD
5
89
330
1
100
AcDbSymbolTableRecord
100
AcDbBlockTableRecord
2
*D14
70
0
280
1
281
0
0
BLOCK_RECORD
5
8C
330
1
100
AcDbSymbolTableRecord
100
AcDbBlockTableRecord
2
*D24
70
0
280
1
281
0
0
BLOCK_RECORD
5
8F
330
1
100
AcDbSymbolTableRecord
100
AcDbBlockTableRecord
2
*D8
70
0
280
1
281
0
0
BLOCK_RECORD
5
92
330
1
100
AcDbSymbolTableRecord
100
AcDbBlockTableRecord
2
*D5
70
0
280
1
281
0
0
BLOCK_RECORD
5
95
330
1
100
AcDbSymbolTableRecord
100
AcDbBlockTableRecord
2
*D19
70
0
280
1
281
0
0
BLOCK_RECORD
5
98
330
1
100
AcDbSymbolTableRecord
100
AcDbBlockTableRecord
2
*D22
70
0
280
1
281
0
0
BLOCK_RECORD
5
9B
330
1
100
AcDbSymbolTableRecord
100
AcDbBlockTableRecord
2
*D13
70
0
280
1
281
0
0
BLOCK_RECORD
5
9E
330
1
100
AcDbSymbolTableRecord
100
AcDbBlockTableRecord
2
*D7
70
0
280
1
281
0
0
ENDTAB
0
ENDSEC
0
SECTION
2
BLOCKS
0
BLOCK
5
20
330
1F
100
AcDbEntity
8
0
100
AcDbBlockBegin
2
*Model_Space
70
0
10
0
20
0
30
0
3
*Model_Space
1

0
ENDBLK
5
21
330
1F
100
AcDbEntity
8
0
100
AcDbBlockEnd
0
BLOCK
5
1C
330
1B
100
AcDbEntity
8
0
100
AcDbBlockBegin
2
*Paper_Space
70
0
10
0
20
0
30
0
3
*Paper_Space
1

0
ENDBLK
5
1D
330
1F
100
AcDbEntity
8
0
100
AcDbBlockEnd
0
BLOCK
5
5A
330
59
100
AcDbEntity
8
0
100
AcDbBlockBegin
2
*D2
70
1
10
0
20
0
3
*D2
1

0
LINE
5
A1
100
AcDbEntity
8
Ground floor
6
CONTINUOUS
62
7
370
0
100
AcDbLine
10
376.881647637
20
3498.87976942
11
380.481647637
21
3498.87976942
0
SOLID
5
A2
100
AcDbEntity
8
Ground floor
6
CONTINUOUS
62
7
370
0
100
AcDbTrace
10
376.881647637
20
3498.87976942
30
0
11
377.081647637
21
3498.91307219
31
0
12
377.081647637
22
3498.84646664
32
0
13
377.081647637
23
3498.84646664
33
0
0
SOLID
5
A3
100
AcDbEntity
8
Ground floor
6
CONTINUOUS
62
7
370
0
100
AcDbTrace
10
380.481647637
20
3498.87976942
30
0
11
380.281647637
21
3498.84646664
31
0
12
380.281647637
22
3498.91307219
32
0
13
380.281647637
23
3498.91307219
33
0
0
MTEXT
5
A4
100
AcDbEntity
8
Ground floor
6
CONTINUOUS
62
7
370
0
100
AcDbMText
10
378.681647637
20
3499.60695223
30
0
40
0.2
41
0.311111111111
71
5
72
1
1
3.6
7
standard
210
0
220
0
230
1
50
0
73
2
44
1
0
LINE
5
A5
100
AcDbEntity
8
Ground floor
6
CONTINUOUS
62
7
370
0
100
AcDbLine
10
376.881647637
20
3499.50476942
11
376.881647637
21
3499.08026942
0
LINE
5
A6
100
AcDbEntity
8
Ground floor
6
CONTINUOUS
62
7
370
0
100
AcDbLine
10
380.481647637
20
3499.50476942
11
380.481647637
21
3499.08026942
0
ENDBLK
5
5B
330
59
100
AcDbEntity
8
0
100
AcDbBlockEnd
0
BLOCK
5
5D
330
5C
100
AcDbEntity
8
0
100
AcDbBlockBegin
2
*D23
70
1
10
0
20
0
3
*D23
1

0
LINE
5
A7
100
AcDbEntity
8
First Floor
6
CONTINUOUS
62
7
370
0
100
AcDbLine
10
396.145763445
20
3504.56818523
11
396.145763445
21
3504.04494821
0
SOLID
5
A8
100
AcDbEntity
8
First Floor
6
CONTINUOUS
62
7
370
0
100
AcDbTrace
10
396.145763445
20
3504.56818523
30
0
11
396.179066218
21
3504.36818523
31
0
12
396.112460673
22
3504.36818523
32
0
13
396.112460673
23
3504.36818523
33
0
0
SOLID
5
A9
100
AcDbEntity
8
First Floor
6
CONTINUOUS
62
7
370
0
100
AcDbTrace
10
396.145763445
20
3501.96818523
30
0
11
396.112460673
21
3502.16818523
31
0
12
396.179066218
22
3502.16818523
32
0
13
396.179066218
23
3502.16818523
33
0
0
LINE
5
AA
100
AcDbEntity
8
First Floor
6
CONTINUOUS
62
7
370
0
100
AcDbLine
10
396.145763445
20
3502.59494821
11
396.145763445
21
3501.96818523
0
MTEXT
5
AB
100
AcDbEntity
8
First Floor
6
CONTINUOUS
62
7
370
0
100
AcDbMText
10
396.145763445
20
3503.31994821
30
0
40
0.2
41
0.311111111111
71
5
72
1
1
2.6
7
standard
210
0
220
0
230
1
50
0
73
2
44
1
0
LINE
5
AC
100
AcDbEntity
8
First Floor
6
CONTINUOUS
62
7
370
0
100
AcDbLine
10
396.326823554
20
3504.56818523
11
396.346263445
21
3504.56818523
0
LINE
5
AD
100
AcDbEntity
8
First Floor
6
CONTINUOUS
62
7
370
0
100
AcDbLine
10
396.326823554
20
3501.96818523
11
396.346263445
21
3501.96818523
0
ENDBLK
5
5E
330
5C
100
AcDbEntity
8
0
100
AcDbBlockEnd
0
BLOCK
5
60
330
5F
100
AcDbEntity
8
0
100
AcDbBlockBegin
2
*D3
70
1
10
0
20
0
3
*D3
1

0
LINE
5
AE
100
AcDbEntity
8
Ground floor
6
CONTINUOUS
62
7
370
0
100
AcDbLine
10
372.5813317
20
3509.86716397
11
375.9813317
21
3509.86716397
0
SOLID
5
AF
100
AcDbEntity
8
Ground floor
6
CONTINUOUS
62
7
370
0
100
AcDbTrace
10
372.5813317
20
3509.86716397
30
0
11
372.7813317
21
3509.90046675
31
0
12
372.7813317
22
3509.8338612
32
0
13
372.7813317
23
3509.8338612
33
0
0
SOLID
5
B0
100
AcDbEntity
8
Ground floor
6
CONTINUOUS
62
7
370
0
100
AcDbTrace
10
375.9813317
20
3509.86716397
30
0
11
375.7813317
21
3509.8338612
31
0
12
375.7813317
22
3509.90046675
32
0
13
375.7813317
23
3509.90046675
33
0
0
MTEXT
5
B1
100
AcDbEntity
8
Ground floor
6
CONTINUOUS
62
7
370
0
100
AcDbMText
10
374.2813317
20
3510.59434678
30
0
40
0.2
41
0.333333333333
71
5
72
1
1
3.4
7
standard
210
0
220
0
230
1
50
0
73
2
44
1
0
LINE
5
B2
100
AcDbEntity
8
Ground floor
6
CONTINUOUS
62
7
370
0
100
AcDbLine
10
372.5813317
20
3510.49216397
11
372.5813317
21
3510.06766397
0
LINE
5
B3
100
AcDbEntity
8
Ground floor
6
CONTINUOUS
62
7
370
0
100
AcDbLine
10
375.9813317
20
3510.49216397
11
375.9813317
21
3510.06766397
0
ENDBLK
5
61
330
5F
100
AcDbEntity
8
0
100
AcDbBlockEnd
0
BLOCK
5
63
330
62
100
AcDbEntity
8
0
100
AcDbBlockBegin
2
*D10
70
1
10
0
20
0
3
*D10
1

0
LINE
5
B4
100
AcDbEntity
8
Ground floor
6
CONTINUOUS
62
7
370
0
100
AcDbLine
10
381.934284663
20
3508.36818523
11
381.934284663
21
3507.19318523
0
SOLID
5
B5
100
AcDbEntity
8
Ground floor
6
CONTINUOUS
62
7
370
0
100
AcDbTrace
10
381.934284663
20
3508.36818523
30
0
11
381.967587436
21
3508.16818523
31
0
12
381.900981891
22
3508.16818523
32
0
13
381.900981891
23
3508.16818523
33
0
0
SOLID
5
B6
100
AcDbEntity
8
Ground floor
6
CONTINUOUS
62
7
370
0
100
AcDbTrace
10
381.934284663
20
3504.56818523
30
0
11
381.900981891
21
3504.76818523
31
0
12
381.967587436
22
3504.76818523
32
0
13
381.967587436
23
3504.76818523
33
0
0
LINE
5
B7
100
AcDbEntity
8
Ground floor
6
CONTINUOUS
62
7
370
0
100
AcDbLine
10
381.934284663
20
3505.74318523
11
381.934284663
21
3504.56818523
0
MTEXT
5
B8
100
AcDbEntity
8
Ground floor
6
CONTINUOUS
62
7
370
0
100
AcDbMText
10
381.934284663
20
3506.46818523
30
0
40
0.2
41
0.311111111111
71
5
72
1
1
3.8
7
standard
210
0
220
0
230
1
50
0
73
2
44
1
0
LINE
5
B9
100
AcDbEntity
8
Ground floor
6
CONTINUOUS
62
7
370
0
100
AcDbLine
10
381.309284663
20
3508.36818523
11
381.733784663
21
3508.36818523
0
LINE
5
BA
100
AcDbEntity
8
Ground floor
6
CONTINUOUS
62
7
370
0
100
AcDbLine
10
381.309284663
20
3504.56818523
11
381.733784663
21
3504.56818523
0
ENDBLK
5
64
330
62
100
AcDbEntity
8
0
100
AcDbBlockEnd
0
BLOCK
5
66
330
65
100
AcDbEntity
8
0
100
AcDbBlockBegin
2
*D16
70
1
10
0
20
0
3
*D16
1

0
LINE
5
BB
100
AcDbEntity
8
First Floor
6
CONTINUOUS
62
7
370
0
100
AcDbLine
10
390.093126419
20
3509.56850299
11
395.093126419
21
3509.56850299
0
SOLID
5
BC
100
AcDbEntity
8
First Floor
6
CONTINUOUS
62
7
370
0
100
AcDbTrace
10
390.093126419
20
3509.56850299
30
0
11
390.293126419
21
3509.60180577
31
0
12
390.293126419
22
3509.53520022
32
0
13
390.293126419
23
3509.53520022
33
0
0
SOLID
5
BD
100
AcDbEntity
8
First Floor
6
CONTINUOUS
62
7
370
0
100
AcDbTrace
10
395.093126419
20
3509.56850299
30
0
11
394.893126419
21
3509.53520022
31
0
12
394.893126419
22
3509.60180577
32
0
13
394.893126419
23
3509.60180577
33
0
0
MTEXT
5
BE
100
AcDbEntity
8
First Floor
6
CONTINUOUS
62
7
370
0
100
AcDbMText
10
392.593126419
20
3510.29520831
30
0
40
0.2
41
0.0888888888889
71
5
72
1
1
5
7
standard
210
0
220
0
230
1
50
0
73
2
44
1
0
LINE
5
BF
100
AcDbEntity
8
First Floor
6
CONTINUOUS
62
7
370
0
100
AcDbLine
10
390.093126419
20
3510.19350299
11
390.093126419
21
3509.76900299
0
LINE
5
C0
100
AcDbEntity
8
First Floor
6
CONTINUOUS
62
7
370
0
100
AcDbLine
10
395.093126419
20
3510.19350299
11
395.093126419
21
3509.76900299
0
ENDBLK
5
67
330
65
100
AcDbEntity
8
0
100
AcDbBlockEnd
0
BLOCK
5
69
330
68
100
AcDbEntity
8
0
100
AcDbBlockBegin
2
*D18
70
1
10
0
20
0
3
*D18
1

0
LINE
5
C1
100
AcDbEntity
8
First Floor
6
CONTINUOUS
62
7
370
0
100
AcDbLine
10
384.704410908
20
3507.96818523
11
384.704410908
21
3505.69318523
0
SOLID
5
C2
100
AcDbEntity
8
First Floor
6
CONTINUOUS
62
7
370
0
100
AcDbTrace
10
384.704410908
20
3507.96818523
30
0
11
384.73771368
21
3507.76818523
31
0
12
384.671108135
22
3507.76818523
32
0
13
384.671108135
23
3507.76818523
33
0
0
SOLID
5
C3
100
AcDbEntity
8
First Floor
6
CONTINUOUS
62
7
370
0
100
AcDbTrace
10
384.704410908
20
3501.96818523
30
0
11
384.671108135
21
3502.16818523
31
0
12
384.73771368
22
3502.16818523
32
0
13
384.73771368
23
3502.16818523
33
0
0
LINE
5
C4
100
AcDbEntity
8
First Floor
6
CONTINUOUS
62
7
370
0
100
AcDbLine
10
384.704410908
20
3504.24318523
11
384.704410908
21
3501.96818523
0
MTEXT
5
C5
100
AcDbEntity
8
First Floor
6
CONTINUOUS
62
7
370
0
100
AcDbMText
10
384.704410908
20
3504.96818523
30
0
40
0.2
41
0.0888888888889
71
5
72
1
1
6
7
standard
210
0
220
0
230
1
50
0
73
2
44
1
0
LINE
5
C6
100
AcDbEntity
8
First Floor
6
CONTINUOUS
62
7
370
0
100
AcDbLine
10
384.079410908
20
3507.96818523
11
384.503910908
21
3507.96818523
0
LINE
5
C7
100
AcDbEntity
8
First Floor
6
CONTINUOUS
62
7
370
0
100
AcDbLine
10
384.079410908
20
3501.96818523
11
384.503910908
21
3501.96818523
0
ENDBLK
5
6A
330
68
100
AcDbEntity
8
0
100
AcDbBlockEnd
0
BLOCK
5
6C
330
6B
100
AcDbEntity
8
0
100
AcDbBlockBegin
2
*D12
70
1
10
0
20
0
3
*D12
1

0
LINE
5
C8
100
AcDbEntity
8
Ground floor
6
CONTINUOUS
62
7
370
0
100
AcDbLine
10
381.929441423
20
3500.56818523
11
381.929441423
21
3501.96818523
0
SOLID
5
C9
100
AcDbEntity
8
Ground floor
6
CONTINUOUS
62
7
370
0
100
AcDbTrace
10
381.929441423
20
3500.56818523
30
0
11
381.89613865
21
3500.76818523
31
0
12
381.962744195
22
3500.76818523
32
0
13
381.962744195
23
3500.76818523
33
0
0
SOLID
5
CA
100
AcDbEntity
8
Ground floor
6
CONTINUOUS
62
7
370
0
100
AcDbTrace
10
381.929441423
20
3501.96818523
30
0
11
381.962744195
21
3501.76818523
31
0
12
381.89613865
22
3501.76818523
32
0
13
381.89613865
23
3501.76818523
33
0
0
MTEXT
5
CB
100
AcDbEntity
8
Ground floor
6
CONTINUOUS
62
7
370
0
100
AcDbMText
10
381.929441423
20
3501.26818523
30
0
40
0.2
41
0.288888888889
71
5
72
1
1
1.4
7
standard
210
0
220
0
230
1
50
0
73
2
44
1
0
LINE
5
CC
100
AcDbEntity
8
Ground floor
6
CONTINUOUS
62
7
370
0
100
AcDbLine
10
381.304441423
20
3500.56818523
11
381.728941423
21
3500.56818523
0
LINE
5
CD
100
AcDbEntity
8
Ground floor
6
CONTINUOUS
62
7
370
0
100
AcDbLine
10
381.304441423
20
3501.96818523
11
381.728941423
21
3501.96818523
0
ENDBLK
5
6D
330
6B
100
AcDbEntity
8
0
100
AcDbBlockEnd
0
BLOCK
5
6F
330
6E
100
AcDbEntity
8
0
100
AcDbBlockBegin
2
*D1
70
1
10
0
20
0
3
*D1
1

0
LINE
5
CE
100
AcDbEntity
8
Ground floor
6
CONTINUOUS
62
7
370
0
100
AcDbLine
10
372.681647637
20
3498.87976942
11
376.881647637
21
3498.87976942
0
SOLID
5
CF
100
AcDbEntity
8
Ground floor
6
CONTINUOUS
62
7
370
0
100
AcDbTrace
10
372.681647637
20
3498.87976942
30
0
11
372.881647637
21
3498.91307219
31
0
12
372.881647637
22
3498.84646664
32
0
13
372.881647637
23
3498.84646664
33
0
0
SOLID
5
D0
100
AcDbEntity
8
Ground floor
6
CONTINUOUS
62
7
370
0
100
AcDbTrace
10
376.881647637
20
3498.87976942
30
0
11
376.681647637
21
3498.84646664
31
0
12
376.681647637
22
3498.91307219
32
0
13
376.681647637
23
3498.91307219
33
0
0
MTEXT
5
D1
100
AcDbEntity
8
Ground floor
6
CONTINUOUS
62
7
370
0
100
AcDbMText
10
374.781647637
20
3499.60517869
30
0
40
0.2
41
0.333333333333
71
5
72
1
1
4.2
7
standard
210
0
220
0
230
1
50
0
73
2
44
1
0
LINE
5
D2
100
AcDbEntity
8
Ground floor
6
CONTINUOUS
62
7
370
0
100
AcDbLine
10
372.681647637
20
3499.50476942
11
372.681647637
21
3499.08026942
0
LINE
5
D3
100
AcDbEntity
8
Ground floor
6
CONTINUOUS
62
7
370
0
100
AcDbLine
10
376.881647637
20
3499.50476942
11
376.881647637
21
3499.08026942
0
ENDBLK
5
70
330
6E
100
AcDbEntity
8
0
100
AcDbBlockEnd
0
BLOCK
5
72
330
71
100
AcDbEntity
8
0
100
AcDbBlockBegin
2
*D4
70
1
10
0
20
0
3
*D4
1

0
LINE
5
D4
100
AcDbEntity
8
Ground floor
6
CONTINUOUS
62
7
370
0
100
AcDbLine
10
375.9813317
20
3509.86716397
11
380.9813317
21
3509.86716397
0
SOLID
5
D5
100
AcDbEntity
8
Ground floor
6
CONTINUOUS
62
7
370
0
100
AcDbTrace
10
375.9813317
20
3509.86716397
30
0
11
376.1813317
21
3509.90046675
31
0
12
376.1813317
22
3509.8338612
32
0
13
376.1813317
23
3509.8338612
33
0
0
SOLID
5
D6
100
AcDbEntity
8
Ground floor
6
CONTINUOUS
62
7
370
0
100
AcDbTrace
10
380.9813317
20
3509.86716397
30
0
11
380.7813317
21
3509.8338612
31
0
12
380.7813317
22
3509.90046675
32
0
13
380.7813317
23
3509.90046675
33
0
0
MTEXT
5
D7
100
AcDbEntity
8
Ground floor
6
CONTINUOUS
62
7
370
0
100
AcDbMText
10
378.4813317
20
3510.59386929
30
0
40
0.2
41
0.0888888888889
71
5
72
1
1
5
7
standard
210
0
220
0
230
1
50
0
73
2
44
1
0
LINE
5
D8
100
AcDbEntity
8
Ground floor
6
CONTINUOUS
62
7
370
0
100
AcDbLine
10
375.9813317
20
3510.49216397
11
375.9813317
21
3510.06766397
0
LINE
5
D9
100
AcDbEntity
8
Ground floor
6
CONTINUOUS
62
7
370
0
100
AcDbLine
10
380.9813317
20
3510.49216397
11
380.9813317
21
3510.06766397
0
ENDBLK
5
73
330
71
100
AcDbEntity
8
0
100
AcDbBlockEnd
0
BLOCK
5
75
330
74
100
AcDbEntity
8
0
100
AcDbBlockBegin
2
*D17
70
1
10
0
20
0
3
*D17
1

0
LINE
5
DA
100
AcDbEntity
8
First Floor
6
CONTINUOUS
62
7
370
0
100
AcDbLine
10
384.704410908
20
3508.76818523
11
384.704410908
21
3507.56818523
0
SOLID
5
DB
100
AcDbEntity
8
First Floor
6
CONTINUOUS
62
7
370
0
100
AcDbTrace
10
384.704410908
20
3508.36818523
30
0
11
384.671108135
21
3508.56818523
31
0
12
384.73771368
22
3508.56818523
32
0
13
384.73771368
23
3508.56818523
33
0
0
SOLID
5
DC
100
AcDbEntity
8
First Floor
6
CONTINUOUS
62
7
370
0
100
AcDbTrace
10
384.704410908
20
3507.96818523
30
0
11
384.73771368
21
3507.76818523
31
0
12
384.671108135
22
3507.76818523
32
0
13
384.671108135
23
3507.76818523
33
0
0
MTEXT
5
DD
100
AcDbEntity
8
First Floor
6
CONTINUOUS
62
7
370
0
100
AcDbMText
10
384.704410908
20
3508.16818523
30
0
40
0.2
41
0.333333333333
71
5
72
1
1
0.4
7
standard
210
0
220
0
230
1
50
0
73
2
44
1
0
LINE
5
DE
100
AcDbEntity
8
First Floor
6
CONTINUOUS
62
7
370
0
100
AcDbLine
10
384.079410908
20
3508.36818523
11
384.503910908
21
3508.36818523
0
LINE
5
DF
100
AcDbEntity
8
First Floor
6
CONTINUOUS
62
7
370
0
100
AcDbLine
10
384.079410908
20
3507.96818523
11
384.503910908
21
3507.96818523
0
ENDBLK
5
76
330
74
100
AcDbEntity
8
0
100
AcDbBlockEnd
0
BLOCK
5
78
330
77
100
AcDbEntity
8
0
100
AcDbBlockBegin
2
*D15
70
1
10
0
20
0
3
*D15
1

0
LINE
5
E0
100
AcDbEntity
8
First Floor
6
CONTINUOUS
62
7
370
0
100
AcDbLine
10
386.693126419
20
3509.56850299
11
387.601459752
21
3509.56850299
0
SOLID
5
E1
100
AcDbEntity
8
First Floor
6
CONTINUOUS
62
7
370
0
100
AcDbTrace
10
386.693126419
20
3509.56850299
30
0
11
386.893126419
21
3509.60180577
31
0
12
386.893126419
22
3509.53520022
32
0
13
386.893126419
23
3509.53520022
33
0
0
SOLID
5
E2
100
AcDbEntity
8
First Floor
6
CONTINUOUS
62
7
370
0
100
AcDbTrace
10
390.093126419
20
3509.56850299
30
0
11
389.893126419
21
3509.53520022
31
0
12
389.893126419
22
3509.60180577
32
0
13
389.893126419
23
3509.60180577
33
0
0
LINE
5
E3
100
AcDbEntity
8
First Floor
6
CONTINUOUS
62
7
370
0
100
AcDbLine
10
389.184793085
20
3509.56850299
11
390.093126419
21
3509.56850299
0
MTEXT
5
E4
100
AcDbEntity
8
First Floor
6
CONTINUOUS
62
7
370
0
100
AcDbMText
10
388.393126419
20
3509.56850299
30
0
40
0.2
41
0.333333333333
71
5
72
1
1
3.4
7
standard
210
0
220
0
230
1
50
0
73
2
44
1
0
LINE
5
E5
100
AcDbEntity
8
First Floor
6
CONTINUOUS
62
7
370
0
100
AcDbLine
10
386.693126419
20
3510.19350299
11
386.693126419
21
3509.76900299
0
LINE
5
E6
100
AcDbEntity
8
First Floor
6
CONTINUOUS
62
7
370
0
100
AcDbLine
10
390.093126419
20
3510.19350299
11
390.093126419
21
3509.76900299
0
ENDBLK
5
79
330
77
100
AcDbEntity
8
0
100
AcDbBlockEnd
0
BLOCK
5
7B
330
7A
100
AcDbEntity
8
0
100
AcDbBlockBegin
2
*D11
70
1
10
0
20
0
3
*D11
1

0
LINE
5
E7
100
AcDbEntity
8
Ground floor
6
CONTINUOUS
62
7
370
0
100
AcDbLine
10
381.934284663
20
3504.56818523
11
381.934284663
21
3504.04494821
0
SOLID
5
E8
100
AcDbEntity
8
Ground floor
6
CONTINUOUS
62
7
370
0
100
AcDbTrace
10
381.934284663
20
3504.56818523
30
0
11
381.967587436
21
3504.36818523
31
0
12
381.900981891
22
3504.36818523
32
0
13
381.900981891
23
3504.36818523
33
0
0
SOLID
5
E9
100
AcDbEntity
8
Ground floor
6
CONTINUOUS
62
7
370
0
100
AcDbTrace
10
381.934284663
20
3501.96818523
30
0
11
381.900981891
21
3502.16818523
31
0
12
381.967587436
22
3502.16818523
32
0
13
381.967587436
23
3502.16818523
33
0
0
LINE
5
EA
100
AcDbEntity
8
Ground floor
6
CONTINUOUS
62
7
370
0
100
AcDbLine
10
381.934284663
20
3502.59494821
11
381.934284663
21
3501.96818523
0
MTEXT
5
EB
100
AcDbEntity
8
Ground floor
6
CONTINUOUS
62
7
370
0
100
AcDbMText
10
381.934284663
20
3503.31994821
30
0
40
0.2
41
0.311111111111
71
5
72
1
1
2.6
7
standard
210
0
220
0
230
1
50
0
73
2
44
1
0
LINE
5
EC
100
AcDbEntity
8
Ground floor
6
CONTINUOUS
62
7
370
0
100
AcDbLine
10
382.115344772
20
3504.56818523
11
382.134784663
21
3504.56818523
0
LINE
5
ED
100
AcDbEntity
8
Ground floor
6
CONTINUOUS
62
7
370
0
100
AcDbLine
10
382.115344772
20
3501.96818523
11
382.134784663
21
3501.96818523
0
ENDBLK
5
7C
330
7A
100
AcDbEntity
8
0
100
AcDbBlockEnd
0
BLOCK
5
7E
330
7D
100
AcDbEntity
8
0
100
AcDbBlockBegin
2
*D6
70
1
10
0
20
0
3
*D6
1

0
LINE
5
EE
100
AcDbEntity
8
Ground floor
6
CONTINUOUS
62
7
370
0
100
AcDbLine
10
370.492932126
20
3507.96818523
11
370.492932126
21
3505.69318523
0
SOLID
5
EF
100
AcDbEntity
8
Ground floor
6
CONTINUOUS
62
7
370
0
100
AcDbTrace
10
370.492932126
20
3507.96818523
30
0
11
370.526234898
21
3507.76818523
31
0
12
370.459629353
22
3507.76818523
32
0
13
370.459629353
23
3507.76818523
33
0
0
SOLID
5
F0
100
AcDbEntity
8
Ground floor
6
CONTINUOUS
62
7
370
0
100
AcDbTrace
10
370.492932126
20
3501.96818523
30
0
11
370.459629353
21
3502.16818523
31
0
12
370.526234898
22
3502.16818523
32
0
13
370.526234898
23
3502.16818523
33
0
0
LINE
5
F1
100
AcDbEntity
8
Ground floor
6
CONTINUOUS
62
7
370
0
100
AcDbLine
10
370.492932126
20
3504.24318523
11
370.492932126
21
3501.96818523
0
MTEXT
5
F2
100
AcDbEntity
8
Ground floor
6
CONTINUOUS
62
7
370
0
100
AcDbMText
10
370.492932126
20
3504.96818523
30
0
40
0.2
41
0.0888888888889
71
5
72
1
1
6
7
standard
210
0
220
0
230
1
50
0
73
2
44
1
0
LINE
5
F3
100
AcDbEntity
8
Ground floor
6
CONTINUOUS
62
7
370
0
100
AcDbLine
10
369.867932126
20
3507.96818523
11
370.292432126
21
3507.96818523
0
LINE
5
F4
100
AcDbEntity
8
Ground floor
6
CONTINUOUS
62
7
370
0
100
AcDbLine
10
369.867932126
20
3501.96818523
11
370.292432126
21
3501.96818523
0
ENDBLK
5
7F
330
7D
100
AcDbEntity
8
0
100
AcDbBlockEnd
0
BLOCK
5
81
330
80
100
AcDbEntity
8
0
100
AcDbBlockBegin
2
*D21
70
1
10
0
20
0
3
*D21
1

0
LINE
5
F5
100
AcDbEntity
8
First Floor
6
CONTINUOUS
62
7
370
0
100
AcDbLine
10
394.293126419
20
3498.87976942
11
395.293126419
21
3498.87976942
0
SOLID
5
F6
100
AcDbEntity
8
First Floor
6
CONTINUOUS
62
7
370
0
100
AcDbTrace
10
394.693126419
20
3498.87976942
30
0
11
394.493126419
21
3498.84646664
31
0
12
394.493126419
22
3498.91307219
32
0
13
394.493126419
23
3498.91307219
33
0
0
SOLID
5
F7
100
AcDbEntity
8
First Floor
6
CONTINUOUS
62
7
370
0
100
AcDbTrace
10
394.893126419
20
3498.87976942
30
0
11
395.093126419
21
3498.91307219
31
0
12
395.093126419
22
3498.84646664
32
0
13
395.093126419
23
3498.84646664
33
0
0
MTEXT
5
F8
100
AcDbEntity
8
First Floor
6
CONTINUOUS
62
7
370
0
100
AcDbMText
10
395.673681974
20
3498.87976942
30
0
40
0.2
41
0.311111111111
71
5
72
1
1
0.2
7
standard
210
0
220
0
230
1
50
0
73
2
44
1
0
LINE
5
F9
100
AcDbEntity
8
First Floor
6
CONTINUOUS
62
7
370
0
100
AcDbLine
10
394.693126419
20
3499.50476942
11
394.693126419
21
3499.08026942
0
LINE
5
FA
100
AcDbEntity
8
First Floor
6
CONTINUOUS
62
7
370
0
100
AcDbLine
10
394.893126419
20
3499.50476942
11
394.893126419
21
3499.08026942
0
ENDBLK
5
82
330
80
100
AcDbEntity
8
0
100
AcDbBlockEnd
0
BLOCK
5
84
330
83
100
AcDbEntity
8
0
100
AcDbBlockBegin
2
*D20
70
1
10
0
20
0
3
*D20
1

0
LINE
5
FB
100
AcDbEntity
8
First Floor
6
CONTINUOUS
62
7
370
0
100
AcDbLine
10
386.293126419
20
3498.87976942
11
387.293126419
21
3498.87976942
0
SOLID
5
FC
100
AcDbEntity
8
First Floor
6
CONTINUOUS
62
7
370
0
100
AcDbTrace
10
386.693126419
20
3498.87976942
30
0
11
386.493126419
21
3498.84646664
31
0
12
386.493126419
22
3498.91307219
32
0
13
386.493126419
23
3498.91307219
33
0
0
SOLID
5
FD
100
AcDbEntity
8
First Floor
6
CONTINUOUS
62
7
370
0
100
AcDbTrace
10
386.893126419
20
3498.87976942
30
0
11
387.093126419
21
3498.91307219
31
0
12
387.093126419
22
3498.84646664
32
0
13
387.093126419
23
3498.84646664
33
0
0
MTEXT
5
FE
100
AcDbEntity
8
First Floor
6
CONTINUOUS
62
7
370
0
100
AcDbMText
10
387.673681974
20
3498.87976942
30
0
40
0.2
41
0.311111111111
71
5
72
1
1
0.2
7
standard
210
0
220
0
230
1
50
0
73
2
44
1
0
LINE
5
FF
100
AcDbEntity
8
First Floor
6
CONTINUOUS
62
7
370
0
100
AcDbLine
10
386.693126419
20
3499.50476942
11
386.693126419
21
3499.08026942
0
LINE
5
100
100
AcDbEntity
8
First Floor
6
CONTINUOUS
62
7
370
0
100
AcDbLine
10
386.893126419
20
3499.50476942
11
386.893126419
21
3499.08026942
0
ENDBLK
5
85
330
83
100
AcDbEntity
8
0
100
AcDbBlockEnd
0
BLOCK
5
87
330
86
100
AcDbEntity
8
0
100
AcDbBlockBegin
2
*D9
70
1
10
0
20
0
3
*D9
1

0
LINE
5
101
100
AcDbEntity
8
Ground floor
6
CONTINUOUS
62
7
370
0
100
AcDbLine
10
380.081647637
20
3498.87976942
11
381.081647637
21
3498.87976942
0
SOLID
5
102
100
AcDbEntity
8
Ground floor
6
CONTINUOUS
62
7
370
0
100
AcDbTrace
10
380.481647637
20
3498.87976942
30
0
11
380.281647637
21
3498.84646664
31
0
12
380.281647637
22
3498.91307219
32
0
13
380.281647637
23
3498.91307219
33
0
0
SOLID
5
103
100
AcDbEntity
8
Ground floor
6
CONTINUOUS
62
7
370
0
100
AcDbTrace
10
380.681647637
20
3498.87976942
30
0
11
380.881647637
21
3498.91307219
31
0
12
380.881647637
22
3498.84646664
32
0
13
380.881647637
23
3498.84646664
33
0
0
MTEXT
5
104
100
AcDbEntity
8
Ground floor
6
CONTINUOUS
62
7
370
0
100
AcDbMText
10
381.462203192
20
3498.87976942
30
0
40
0.2
41
0.311111111111
71
5
72
1
1
0.2
7
standard
210
0
220
0
230
1
50
0
73
2
44
1
0
LINE
5
105
100
AcDbEntity
8
Ground floor
6
CONTINUOUS
62
7
370
0
100
AcDbLine
10
380.481647637
20
3499.50476942
11
380.481647637
21
3499.08026942
0
LINE
5
106
100
AcDbEntity
8
Ground floor
6
CONTINUOUS
62
7
370
0
100
AcDbLine
10
380.681647637
20
3499.50476942
11
380.681647637
21
3499.08026942
0
ENDBLK
5
88
330
86
100
AcDbEntity
8
0
100
AcDbBlockEnd
0
BLOCK
5
8A
330
89
100
AcDbEntity
8
0
100
AcDbBlockBegin
2
*D14
70
1
10
0
20
0
3
*D14
1

0
LINE
5
107
100
AcDbEntity
8
First Floor
6
CONTINUOUS
62
7
370
0
100
AcDbLine
10
391.093126419
20
3498.87976942
11
394.693126419
21
3498.87976942
0
SOLID
5
108
100
AcDbEntity
8
First Floor
6
CONTINUOUS
62
7
370
0
100
AcDbTrace
10
391.093126419
20
3498.87976942
30
0
11
391.293126419
21
3498.91307219
31
0
12
391.293126419
22
3498.84646664
32
0
13
391.293126419
23
3498.84646664
33
0
0
SOLID
5
109
100
AcDbEntity
8
First Floor
6
CONTINUOUS
62
7
370
0
100
AcDbTrace
10
394.693126419
20
3498.87976942
30
0
11
394.493126419
21
3498.84646664
31
0
12
394.493126419
22
3498.91307219
32
0
13
394.493126419
23
3498.91307219
33
0
0
MTEXT
5
10A
100
AcDbEntity
8
First Floor
6
CONTINUOUS
62
7
370
0
100
AcDbMText
10
392.893126419
20
3499.60695223
30
0
40
0.2
41
0.311111111111
71
5
72
1
1
3.6
7
standard
210
0
220
0
230
1
50
0
73
2
44
1
0
LINE
5
10B
100
AcDbEntity
8
First Floor
6
CONTINUOUS
62
7
370
0
100
AcDbLine
10
391.093126419
20
3499.50476942
11
391.093126419
21
3499.08026942
0
LINE
5
10C
100
AcDbEntity
8
First Floor
6
CONTINUOUS
62
7
370
0
100
AcDbLine
10
394.693126419
20
3499.50476942
11
394.693126419
21
3499.08026942
0
ENDBLK
5
8B
330
89
100
AcDbEntity
8
0
100
AcDbBlockEnd
0
BLOCK
5
8D
330
8C
100
AcDbEntity
8
0
100
AcDbBlockBegin
2
*D24
70
1
10
0
20
0
3
*D24
1

0
LINE
5
10D
100
AcDbEntity
8
First Floor
6
CONTINUOUS
62
7
370
0
100
AcDbLine
10
396.140920205
20
3500.56818523
11
396.140920205
21
3501.96818523
0
SOLID
5
10E
100
AcDbEntity
8
First Floor
6
CONTINUOUS
62
7
370
0
100
AcDbTrace
10
396.140920205
20
3500.56818523
30
0
11
396.107617432
21
3500.76818523
31
0
12
396.174222977
22
3500.76818523
32
0
13
396.174222977
23
3500.76818523
33
0
0
SOLID
5
10F
100
AcDbEntity
8
First Floor
6
CONTINUOUS
62
7
370
0
100
AcDbTrace
10
396.140920205
20
3501.96818523
30
0
11
396.174222977
21
3501.76818523
31
0
12
396.107617432
22
3501.76818523
32
0
13
396.107617432
23
3501.76818523
33
0
0
MTEXT
5
110
100
AcDbEntity
8
First Floor
6
CONTINUOUS
62
7
370
0
100
AcDbMText
10
396.140920205
20
3501.26818523
30
0
40
0.2
41
0.288888888889
71
5
72
1
1
1.4
7
standard
210
0
220
0
230
1
50
0
73
2
44
1
0
LINE
5
111
100
AcDbEntity
8
First Floor
6
CONTINUOUS
62
7
370
0
100
AcDbLine
10
395.515920205
20
3500.56818523
11
395.940420205
21
3500.56818523
0
LINE
5
112
100
AcDbEntity
8
First Floor
6
CONTINUOUS
62
7
370
0
100
AcDbLine
10
395.515920205
20
3501.96818523
11
395.940420205
21
3501.96818523
0
ENDBLK
5
8E
330
8C
100
AcDbEntity
8
0
100
AcDbBlockEnd
0
BLOCK
5
90
330
8F
100
AcDbEntity
8
0
100
AcDbBlockBegin
2
*D8
70
1
10
0
20
0
3
*D8
1

0
LINE
5
113
100
AcDbEntity
8
Ground floor
6
CONTINUOUS
62
7
370
0
100
AcDbLine
10
372.081647637
20
3498.87976942
11
373.081647637
21
3498.87976942
0
SOLID
5
114
100
AcDbEntity
8
Ground floor
6
CONTINUOUS
62
7
370
0
100
AcDbTrace
10
372.481647637
20
3498.87976942
30
0
11
372.281647637
21
3498.84646664
31
0
12
372.281647637
22
3498.91307219
32
0
13
372.281647637
23
3498.91307219
33
0
0
SOLID
5
115
100
AcDbEntity
8
Ground floor
6
CONTINUOUS
62
7
370
0
100
AcDbTrace
10
372.681647637
20
3498.87976942
30
0
11
372.881647637
21
3498.91307219
31
0
12
372.881647637
22
3498.84646664
32
0
13
372.881647637
23
3498.84646664
33
0
0
MTEXT
5
116
100
AcDbEntity
8
Ground floor
6
CONTINUOUS
62
7
370
0
100
AcDbMText
10
373.462203192
20
3498.87976942
30
0
40
0.2
41
0.311111111111
71
5
72
1
1
0.2
7
standard
210
0
220
0
230
1
50
0
73
2
44
1
0
LINE
5
117
100
AcDbEntity
8
Ground floor
6
CONTINUOUS
62
7
370
0
100
AcDbLine
10
372.481647637
20
3499.50476942
11
372.481647637
21
3499.08026942
0
LINE
5
118
100
AcDbEntity
8
Ground floor
6
CONTINUOUS
62
7
370
0
100
AcDbLine
10
372.681647637
20
3499.50476942
11
372.681647637
21
3499.08026942
0
ENDBLK
5
91
330
8F
100
AcDbEntity
8
0
100
AcDbBlockEnd
0
BLOCK
5
93
330
92
100
AcDbEntity
8
0
100
AcDbBlockBegin
2
*D5
70
1
10
0
20
0
3
*D5
1

0
LINE
5
119
100
AcDbEntity
8
Ground floor
6
CONTINUOUS
62
7
370
0
100
AcDbLine
10
370.492932126
20
3508.76818523
11
370.492932126
21
3507.56818523
0
SOLID
5
11A
100
AcDbEntity
8
Ground floor
6
CONTINUOUS
62
7
370
0
100
AcDbTrace
10
370.492932126
20
3508.36818523
30
0
11
370.459629353
21
3508.56818523
31
0
12
370.526234898
22
3508.56818523
32
0
13
370.526234898
23
3508.56818523
33
0
0
SOLID
5
11B
100
AcDbEntity
8
Ground floor
6
CONTINUOUS
62
7
370
0
100
AcDbTrace
10
370.492932126
20
3507.96818523
30
0
11
370.526234898
21
3507.76818523
31
0
12
370.459629353
22
3507.76818523
32
0
13
370.459629353
23
3507.76818523
33
0
0
MTEXT
5
11C
100
AcDbEntity
8
Ground floor
6
CONTINUOUS
62
7
370
0
100
AcDbMText
10
370.492932126
20
3508.16818523
30
0
40
0.2
41
0.333333333333
71
5
72
1
1
0.4
7
standard
210
0
220
0
230
1
50
0
73
2
44
1
0
LINE
5
11D
100
AcDbEntity
8
Ground floor
6
CONTINUOUS
62
7
370
0
100
AcDbLine
10
369.867932126
20
3508.36818523
11
370.292432126
21
3508.36818523
0
LINE
5
11E
100
AcDbEntity
8
Ground floor
6
CONTINUOUS
62
7
370
0
100
AcDbLine
10
369.867932126
20
3507.96818523
11
370.292432126
21
3507.96818523
0
ENDBLK
5
94
330
92
100
AcDbEntity
8
0
100
AcDbBlockEnd
0
BLOCK
5
96
330
95
100
AcDbEntity
8
0
100
AcDbBlockBegin
2
*D19
70
1
10
0
20
0
3
*D19
1

0
LINE
5
11F
100
AcDbEntity
8
First Floor
6
CONTINUOUS
62
7
370
0
100
AcDbLine
10
384.704410908
20
3501.96818523
11
384.704410908
21
3500.56818523
0
SOLID
5
120
100
AcDbEntity
8
First Floor
6
CONTINUOUS
62
7
370
0
100
AcDbTrace
10
384.704410908
20
3501.96818523
30
0
11
384.73771368
21
3501.76818523
31
0
12
384.671108135
22
3501.76818523
32
0
13
384.671108135
23
3501.76818523
33
0
0
SOLID
5
121
100
AcDbEntity
8
First Floor
6
CONTINUOUS
62
7
370
0
100
AcDbTrace
10
384.704410908
20
3500.56818523
30
0
11
384.671108135
21
3500.76818523
31
0
12
384.73771368
22
3500.76818523
32
0
13
384.73771368
23
3500.76818523
33
0
0
MTEXT
5
122
100
AcDbEntity
8
First Floor
6
CONTINUOUS
62
7
370
0
100
AcDbMText
10
384.704410908
20
3501.26818523
30
0
40
0.2
41
0.288888888889
71
5
72
1
1
1.4
7
standard
210
0
220
0
230
1
50
0
73
2
44
1
0
LINE
5
123
100
AcDbEntity
8
First Floor
6
CONTINUOUS
62
7
370
0
100
AcDbLine
10
384.079410908
20
3501.96818523
11
384.503910908
21
3501.96818523
0
LINE
5
124
100
AcDbEntity
8
First Floor
6
CONTINUOUS
62
7
370
0
100
AcDbLine
10
384.079410908
20
3500.56818523
11
384.503910908
21
3500.56818523
0
ENDBLK
5
97
330
95
100
AcDbEntity
8
0
100
AcDbBlockEnd
0
BLOCK
5
99
330
98
100
AcDbEntity
8
0
100
AcDbBlockBegin
2
*D22
70
1
10
0
20
0
3
*D22
1

0
LINE
5
125
100
AcDbEntity
8
First Floor
6
CONTINUOUS
62
7
370
0
100
AcDbLine
10
396.145763445
20
3508.36818523
11
396.145763445
21
3507.19318523
0
SOLID
5
126
100
AcDbEntity
8
First Floor
6
CONTINUOUS
62
7
370
0
100
AcDbTrace
10
396.145763445
20
3508.36818523
30
0
11
396.179066218
21
3508.16818523
31
0
12
396.112460673
22
3508.16818523
32
0
13
396.112460673
23
3508.16818523
33
0
0
SOLID
5
127
100
AcDbEntity
8
First Floor
6
CONTINUOUS
62
7
370
0
100
AcDbTrace
10
396.145763445
20
3504.56818523
30
0
11
396.112460673
21
3504.76818523
31
0
12
396.179066218
22
3504.76818523
32
0
13
396.179066218
23
3504.76818523
33
0
0
LINE
5
128
100
AcDbEntity
8
First Floor
6
CONTINUOUS
62
7
370
0
100
AcDbLine
10
396.145763445
20
3505.74318523
11
396.145763445
21
3504.56818523
0
MTEXT
5
129
100
AcDbEntity
8
First Floor
6
CONTINUOUS
62
7
370
0
100
AcDbMText
10
396.145763445
20
3506.46818523
30
0
40
0.2
41
0.311111111111
71
5
72
1
1
3.8
7
standard
210
0
220
0
230
1
50
0
73
2
44
1
0
LINE
5
12A
100
AcDbEntity
8
First Floor
6
CONTINUOUS
62
7
370
0
100
AcDbLine
10
395.520763445
20
3508.36818523
11
395.945263445
21
3508.36818523
0
LINE
5
12B
100
AcDbEntity
8
First Floor
6
CONTINUOUS
62
7
370
0
100
AcDbLine
10
395.520763445
20
3504.56818523
11
395.945263445
21
3504.56818523
0
ENDBLK
5
9A
330
98
100
AcDbEntity
8
0
100
AcDbBlockEnd
0
BLOCK
5
9C
330
9B
100
AcDbEntity
8
0
100
AcDbBlockBegin
2
*D13
70
1
10
0
20
0
3
*D13
1

0
LINE
5
12C
100
AcDbEntity
8
First Floor
6
CONTINUOUS
62
7
370
0
100
AcDbLine
10
386.893126419
20
3498.87976942
11
391.093126419
21
3498.87976942
0
SOLID
5
12D
100
AcDbEntity
8
First Floor
6
CONTINUOUS
62
7
370
0
100
AcDbTrace
10
386.893126419
20
3498.87976942
30
0
11
387.093126419
21
3498.91307219
31
0
12
387.093126419
22
3498.84646664
32
0
13
387.093126419
23
3498.84646664
33
0
0
SOLID
5
12E
100
AcDbEntity
8
First Floor
6
CONTINUOUS
62
7
370
0
100
AcDbTrace
10
391.093126419
20
3498.87976942
30
0
11
390.893126419
21
3498.84646664
31
0
12
390.893126419
22
3498.91307219
32
0
13
390.893126419
23
3498.91307219
33
0
0
MTEXT
5
12F
100
AcDbEntity
8
First Floor
6
CONTINUOUS
62
7
370
0
100
AcDbMText
10
388.993126419
20
3499.60517869
30
0
40
0.2
41
0.333333333333
71
5
72
1
1
4.2
7
standard
210
0
220
0
230
1
50
0
73
2
44
1
0
LINE
5
130
100
AcDbEntity
8
First Floor
6
CONTINUOUS
62
7
370
0
100
AcDbLine
10
386.893126419
20
3499.50476942
11
386.893126419
21
3499.08026942
0
LINE
5
131
100
AcDbEntity
8
First Floor
6
CONTINUOUS
62
7
370
0
100
AcDbLine
10
391.093126419
20
3499.50476942
11
391.093126419
21
3499.08026942
0
ENDBLK
5
9D
330
9B
100
AcDbEntity
8
0
100
AcDbBlockEnd
0
BLOCK
5
9F
330
9E
100
AcDbEntity
8
0
100
AcDbBlockBegin
2
*D7
70
1
10
0
20
0
3
*D7
1

0
LINE
5
132
100
AcDbEntity
8
Ground floor
6
CONTINUOUS
62
7
370
0
100
AcDbLine
10
370.492932126
20
3501.96818523
11
370.492932126
21
3500.56818523
0
SOLID
5
133
100
AcDbEntity
8
Ground floor
6
CONTINUOUS
62
7
370
0
100
AcDbTrace
10
370.492932126
20
3501.96818523
30
0
11
370.526234898
21
3501.76818523
31
0
12
370.459629353
22
3501.76818523
32
0
13
370.459629353
23
3501.76818523
33
0
0
SOLID
5
134
100
AcDbEntity
8
Ground floor
6
CONTINUOUS
62
7
370
0
100
AcDbTrace
10
370.492932126
20
3500.56818523
30
0
11
370.459629353
21
3500.76818523
31
0
12
370.526234898
22
3500.76818523
32
0
13
370.526234898
23
3500.76818523
33
0
0
MTEXT
5
135
100
AcDbEntity
8
Ground floor
6
CONTINUOUS
62
7
370
0
100
AcDbMText
10
370.492932126
20
3501.26818523
30
0
40
0.2
41
0.288888888889
71
5
72
1
1
1.4
7
standard
210
0
220
0
230
1
50
0
73
2
44
1
0
LINE
5
136
100
AcDbEntity
8
Ground floor
6
CONTINUOUS
62
7
370
0
100
AcDbLine
10
369.867932126
20
3501.96818523
11
370.292432126
21
3501.96818523
0
LINE
5
137
100
AcDbEntity
8
Ground floor
6
CONTINUOUS
62
7
370
0
100
AcDbLine
10
369.867932126
20
3500.56818523
11
370.292432126
21
3500.56818523
0
ENDBLK
5
A0
330
9E
100
AcDbEntity
8
0
100
AcDbBlockEnd
0
ENDSEC
0
SECTION
2
ENTITIES
0
LINE
5
138
100
AcDbEntity
8
Ground floor
6
ByLayer
62
256
370
-1
100
AcDbLine
10
377.081647637
20
3500.76818523
11
377.081647637
21
3499.96818523
0
LINE
5
139
100
AcDbEntity
8
Ground floor
6
ByLayer
62
256
370
-1
100
AcDbLine
10
380.281647637
20
3500.76818523
11
380.281647637
21
3499.96818523
0
LINE
5
13A
100
AcDbEntity
8
Ground floor
6
ByLayer
62
256
370
-1
100
AcDbLine
10
372.681647637
20
3505.26818523
11
371.881647637
21
3505.26818523
0
LINE
5
13B
100
AcDbEntity
8
Ground floor
6
ByLayer
62
256
370
-1
100
AcDbLine
10
372.681647637
20
3506.16818523
11
371.881647637
21
3506.16818523
0
LINE
5
13C
100
AcDbEntity
8
Ground floor
6
ByLayer
62
256
370
-1
100
AcDbLine
10
373.581647637
20
3505.16818523
11
373.581647637
21
3502.16818523
0
LINE
5
13D
100
AcDbEntity
8
Ground floor
6
ByLayer
62
256
370
-1
100
AcDbLine
10
372.681647637
20
3504.26818523
11
375.831647637
21
3504.26818523
0
LINE
5
13E
100
AcDbEntity
8
Ground floor
6
ByLayer
62
256
370
-1
100
AcDbLine
10
373.831647637
20
3505.16818523
11
373.831647637
21
3504.26818523
0
LINE
5
13F
100
AcDbEntity
8
Ground floor
6
ByLayer
62
256
370
-1
100
AcDbLine
10
374.081647637
20
3505.16818523
11
374.081647637
21
3504.26818523
0
LINE
5
140
100
AcDbEntity
8
Ground floor
6
ByLayer
62
256
370
-1
100
AcDbLine
10
374.331647637
20
3505.16818523
11
374.331647637
21
3504.26818523
0
LINE
5
141
100
AcDbEntity
8
Ground floor
6
ByLayer
62
256
370
-1
100
AcDbLine
10
374.581647637
20
3505.16818523
11
374.581647637
21
3504.26818523
0
LINE
5
142
100
AcDbEntity
8
Ground floor
6
ByLayer
62
256
370
-1
100
AcDbLine
10
374.831647637
20
3505.16818523
11
374.831647637
21
3504.26818523
0
LINE
5
143
100
AcDbEntity
8
Ground floor
6
ByLayer
62
256
370
-1
100
AcDbLine
10
375.081647637
20
3505.16818523
11
375.081647637
21
3504.26818523
0
LINE
5
144
100
AcDbEntity
8
Ground floor
6
ByLayer
62
256
370
-1
100
AcDbLine
10
375.331647637
20
3505.16818523
11
375.331647637
21
3504.26818523
0
LINE
5
145
100
AcDbEntity
8
Ground floor
6
ByLayer
62
256
370
-1
100
AcDbLine
10
375.581647637
20
3505.16818523
11
375.581647637
21
3504.26818523
0
LINE
5
146
100
AcDbEntity
8
Ground floor
6
ByLayer
62
256
370
-1
100
AcDbLine
10
372.681647637
20
3504.01818523
11
373.581647637
21
3504.01818523
0
LINE
5
147
100
AcDbEntity
8
Ground floor
6
ByLayer
62
256
370
-1
100
AcDbLine
10
372.681647637
20
3503.76818523
11
373.581647637
21
3503.76818523
0
LINE
5
148
100
AcDbEntity
8
Ground floor
6
ByLayer
62
256
370
-1
100
AcDbLine
10
372.681647637
20
3503.51818523
11
373.581647637
21
3503.51818523
0
LINE
5
149
100
AcDbEntity
8
Ground floor
6
ByLayer
62
256
370
-1
100
AcDbLine
10
372.681647637
20
3503.26818523
11
373.581647637
21
3503.26818523
0
LINE
5
14A
100
AcDbEntity
8
Ground floor
6
ByLayer
62
256
370
-1
100
AcDbLine
10
372.681647637
20
3503.01818523
11
373.831647637
21
3503.01818523
0
LINE
5
14B
100
AcDbEntity
8
Ground floor
6
ByLayer
62
256
370
-1
100
AcDbLine
10
380.281647637
20
3500.26818523
11
377.081647637
21
3500.26818523
0
LINE
5
14C
100
AcDbEntity
8
Ground floor
6
ByLayer
62
256
370
-1
100
AcDbLine
10
380.281647637
20
3499.96818523
11
377.081647637
21
3499.96818523
0
MTEXT
5
14D
100
AcDbEntity
8
Ground floor
6
ByLayer
62
256
370
-1
100
AcDbMText
10
373.595129969
20
3506.82770245
30
0
40
0.2
41
1.06666666667
71
1
72
5
1
KITCHEN\P320X250
7
standard
210
0
220
0
230
1
50
0
73
1
44
1
0
MTEXT
5
14E
100
AcDbEntity
8
Ground floor
6
ByLayer
62
256
370
-1
100
AcDbMText
10
378.270469369
20
3506.82770245
30
0
40
0.2
41
1.32777777778
71
1
72
5
1
BED ROOM\P320X340
7
standard
210
0
220
0
230
1
50
0
73
1
44
1
0
MTEXT
5
14F
100
AcDbEntity
8
Ground floor
6
ByLayer
62
256
370
-1
100
AcDbMText
10
374.659644458
20
3503.77577731
30
0
40
0.2
41
1.08888888889
71
1
72
5
1
DINING\P460X300
7
standard
210
0
220
0
230
1
50
0
73
1
44
1
0
MTEXT
5
150
100
AcDbEntity
8
Ground floor
6
ByLayer
62
256
370
-1
100
AcDbMText
10
378.521257445
20
3503.6287802
30
0
40
0.2
41
1.08888888889
71
1
72
5
1
LIVING\P300X240
7
standard
210
0
220
0
230
1
50
0
73
1
44
1
0
MTEXT
5
151
100
AcDbEntity
8
Ground floor
6
ByLayer
62
256
370
-1
100
AcDbMText
10
377.807161636
20
3501.44830292
30
0
40
0.2
41
1.04444444444
71
1
72
5
1
SITOUT\P360X140
7
standard
210
0
220
0
230
1
50
0
73
1
44
1
0
MTEXT
5
152
100
AcDbEntity
8
Ground floor
6
ByLayer
62
256
370
-1
100
AcDbMText
10
374.000424238
20
3501.58728874
30
0
40
0.2
41
1.06666666667
71
1
72
5
1
PORCH\P420X140
7
standard
210
0
220
0
230
1
50
0
73
1
44
1
0
MTEXT
5
153
100
AcDbEntity
8
Ground floor
6
ByLayer
62
256
370
-1
100
AcDbMText
10
376.133794148
20
3507.94690065
30
0
40
0.2
41
0.977777777778
71
1
72
5
1
TOILET\P130X190
7
standard
210
0
220
0
230
1
50
0
73
1
44
1
0
MTEXT
5
154
100
AcDbEntity
8
Ground floor
6
ByLayer
62
256
370
-1
100
AcDbMText
10
380.917235171
20
3506.70057902
30
0
40
0.2
41
0.333333333333
71
1
72
5
1
W3
7
standard
210
0
220
0
230
1
50
0
73
1
44
1
0
MTEXT
5
155
100
AcDbEntity
8
Ground floor
6
ByLayer
62
256
370
-1
100
AcDbMText
10
378.739786795
20
3508.63700087
30
0
40
0.2
41
0.333333333333
71
1
72
5
1
W3
7
standard
210
0
220
0
230
1
50
0
73
1
44
1
0
MTEXT
5
156
100
AcDbEntity
8
Ground floor
6
ByLayer
62
256
370
-1
100
AcDbMText
10
373.939786795
20
3508.23700087
30
0
40
0.2
41
0.333333333333
71
1
72
5
1
W3
7
standard
210
0
220
0
230
1
50
0
73
1
44
1
0
MTEXT
5
157
100
AcDbEntity
8
Ground floor
6
ByLayer
62
256
370
-1
100
AcDbMText
10
376.455909551
20
3508.64528931
30
0
40
0.2
41
0.133333333333
71
1
72
5
1
V
7
standard
210
0
220
0
230
1
50
0
73
1
44
1
0
MTEXT
5
158
100
AcDbEntity
8
Ground floor
6
ByLayer
62
256
370
-1
100
AcDbMText
10
371.932056692
20
3503.73092403
30
0
40
0.2
41
0.333333333333
71
1
72
5
1
W3
7
standard
210
0
220
0
230
1
50
0
73
1
44
1
0
MTEXT
5
159
100
AcDbEntity
8
Ground floor
6
ByLayer
62
256
370
-1
100
AcDbMText
10
374.837597887
20
3501.96412274
30
0
40
0.2
41
0.355555555556
71
1
72
5
1
W4
7
standard
210
0
220
0
230
1
50
0
73
1
44
1
0
MTEXT
5
15A
100
AcDbEntity
8
Ground floor
6
ByLayer
62
256
370
-1
100
AcDbMText
10
380.725186114
20
3503.51563629
30
0
40
0.2
41
0.333333333333
71
1
72
5
1
W3
7
standard
210
0
220
0
230
1
50
0
73
1
44
1
0
MTEXT
5
15B
100
AcDbEntity
8
Ground floor
6
ByLayer
62
256
370
-1
100
AcDbMText
10
377.753315469
20
3502.17298671
30
0
40
0.2
41
0.111111111111
71
1
72
5
1
D
7
standard
210
0
220
0
230
1
50
0
73
1
44
1
0
MTEXT
5
15C
100
AcDbEntity
8
Ground floor
6
ByLayer
62
256
370
-1
100
AcDbMText
10
379.217815886
20
3501.93278119
30
0
40
0.2
41
0.333333333333
71
1
72
5
1
W2
7
standard
210
0
220
0
230
1
50
0
73
1
44
1
0
MTEXT
5
15D
100
AcDbEntity
8
Ground floor
6
ByLayer
62
256
370
-1
100
AcDbMText
10
377.340027682
20
3504.16049589
30
0
40
0.2
41
0.222222222222
71
1
72
5
1
D1
7
standard
210
0
220
0
230
1
50
0
73
1
44
1
0
MTEXT
5
15E
100
AcDbEntity
8
Ground floor
6
ByLayer
62
256
370
-1
100
AcDbMText
10
377.28187779
20
3505.31364495
30
0
40
0.2
41
0.222222222222
71
1
72
5
1
D1
7
standard
210
0
220
0
230
1
50
0
73
1
44
1
0
MTEXT
5
15F
100
AcDbEntity
8
Ground floor
6
ByLayer
62
256
370
-1
100
AcDbMText
10
377.293275135
20
3507.91403569
30
0
40
0.2
41
0.266666666667
71
1
72
5
1
D2
7
standard
210
0
220
0
230
1
50
0
73
1
44
1
0
MTEXT
5
160
100
AcDbEntity
8
Ground floor
6
ByLayer
62
256
370
-1
100
AcDbMText
10
372.572753532
20
3505.80195297
30
0
40
0.2
41
0.222222222222
71
1
72
5
1
D1
7
standard
210
0
220
0
230
1
50
0
73
1
44
1
0
MTEXT
5
161
100
AcDbEntity
8
Ground floor
6
ByLayer
62
256
370
-1
100
AcDbMText
10
375.800243092
20
3505.86577035
30
0
40
0.2
41
0.222222222222
71
1
72
5
1
D1
7
standard
210
0
220
0
230
1
50
0
73
1
44
1
0
LINE
5
162
100
AcDbEntity
8
Ground floor
6
ByLayer
62
256
370
-1
100
AcDbLine
10
372.181647637
20
3505.26818523
11
372.181647637
21
3506.16818523
0
LINE
5
163
100
AcDbEntity
8
Ground floor
6
ByLayer
62
256
370
-1
100
AcDbLine
10
371.881647637
20
3505.26818523
11
371.881647637
21
3506.16818523
0
DIMENSION
5
164
100
AcDbEntity
8
Ground floor
6
ByLayer
62
256
370
-1
100
AcDbDimension
2
*D1
10
376.881647637
20
3498.87976942
30
0
11
374.781647637
21
3499.60517869
31
0
70
32
71
5
72
0
3
ISO-25
53
0
210
0
220
0
230
1
100
AcDbAlignedDimension
13
372.681647637
23
3498.87976942
33
0
14
376.881647637
24
3498.87976942
34
0
100
AcDbRotatedDimension
0
DIMENSION
5
165
100
AcDbEntity
8
Ground floor
6
ByLayer
62
256
370
-1
100
AcDbDimension
2
*D2
10
380.481647637
20
3498.87976942
30
0
11
378.681647637
21
3499.60695223
31
0
70
32
71
5
72
0
3
ISO-25
53
0
210
0
220
0
230
1
100
AcDbAlignedDimension
13
376.881647637
23
3498.87976942
33
0
14
380.481647637
24
3498.87976942
34
0
100
AcDbRotatedDimension
0
DIMENSION
5
166
100
AcDbEntity
8
Ground floor
6
ByLayer
62
256
370
-1
100
AcDbDimension
2
*D3
10
375.9813317
20
3509.86716397
30
0
11
374.2813317
21
3510.59434678
31
0
70
32
71
5
72
0
3
ISO-25
53
0
210
0
220
0
230
1
100
AcDbAlignedDimension
13
372.5813317
23
3509.86716397
33
0
14
375.9813317
24
3509.86716397
34
0
100
AcDbRotatedDimension
0
DIMENSION
5
167
100
AcDbEntity
8
Ground floor
6
ByLayer
62
256
370
-1
100
AcDbDimension
2
*D4
10
380.9813317
20
3509.86716397
30
0
11
378.4813317
21
3510.59386929
31
0
70
32
71
5
72
0
3
ISO-25
53
0
210
0
220
0
230
1
100
AcDbAlignedDimension
13
375.9813317
23
3509.86716397
33
0
14
380.9813317
24
3509.86716397
34
0
100
AcDbRotatedDimension
0
DIMENSION
5
168
100
AcDbEntity
8
Ground floor
6
ByLayer
62
256
370
-1
100
AcDbDimension
2
*D5
10
370.492932126
20
3507.96818523
30
0
11
370.492932126
21
3508.16818523
31
0
70
32
71
5
72
0
3
ISO-25
53
0
210
0
220
0
230
1
100
AcDbAlignedDimension
13
370.492932126
23
3508.36818523
33
0
14
370.492932126
24
3507.96818523
34
0
50
90
100
AcDbRotatedDimension
0
DIMENSION
5
169
100
AcDbEntity
8
Ground floor
6
ByLayer
62
256
370
-1
100
AcDbDimension
2
*D6
10
370.492932126
20
3501.96818523
30
0
11
370.492932126
21
3504.96818523
31
0
70
32
71
5
72
0
3
ISO-25
53
0
210
0
220
0
230
1
100
AcDbAlignedDimension
13
370.492932126
23
3507.96818523
33
0
14
370.492932126
24
3501.96818523
34
0
50
90
100
AcDbRotatedDimension
0
DIMENSION
5
16A
100
AcDbEntity
8
Ground floor
6
ByLayer
62
256
370
-1
100
AcDbDimension
2
*D7
10
370.492932126
20
3500.56818523
30
0
11
370.492932126
21
3501.26818523
31
0
70
32
71
5
72
0
3
ISO-25
53
0
210
0
220
0
230
1
100
AcDbAlignedDimension
13
370.492932126
23
3501.96818523
33
0
14
370.492932126
24
3500.56818523
34
0
50
90
100
AcDbRotatedDimension
0
DIMENSION
5
16B
100
AcDbEntity
8
Ground floor
6
ByLayer
62
256
370
-1
100
AcDbDimension
2
*D8
10
372.681647637
20
3498.87976942
30
0
11
372.581647637
21
3498.87976942
31
0
70
32
71
5
72
0
3
ISO-25
53
0
210
0
220
0
230
1
100
AcDbAlignedDimension
13
372.481647637
23
3498.87976942
33
0
14
372.681647637
24
3498.87976942
34
0
100
AcDbRotatedDimension
0
DIMENSION
5
16C
100
AcDbEntity
8
Ground floor
6
ByLayer
62
256
370
-1
100
AcDbDimension
2
*D9
10
380.681647637
20
3498.87976942
30
0
11
380.581647637
21
3498.87976942
31
0
70
32
71
5
72
0
3
ISO-25
53
0
210
0
220
0
230
1
100
AcDbAlignedDimension
13
380.481647637
23
3498.87976942
33
0
14
380.681647637
24
3498.87976942
34
0
100
AcDbRotatedDimension
0
DIMENSION
5
16D
100
AcDbEntity
8
Ground floor
6
ByLayer
62
256
370
-1
100
AcDbDimension
2
*D10
10
381.934284663
20
3504.56818523
30
0
11
381.934284663
21
3506.46818523
31
0
70
32
71
5
72
0
3
ISO-25
53
0
210
0
220
0
230
1
100
AcDbAlignedDimension
13
381.934284663
23
3508.36818523
33
0
14
381.934284663
24
3504.56818523
34
0
50
90
100
AcDbRotatedDimension
0
DIMENSION
5
16E
100
AcDbEntity
8
Ground floor
6
ByLayer
62
256
370
-1
100
AcDbDimension
2
*D11
10
381.934284663
20
3501.96818523
30
0
11
381.934284663
21
3503.31994821
31
0
70
32
71
5
72
0
3
ISO-25
53
0
210
0
220
0
230
1
100
AcDbAlignedDimension
13
381.490344772
23
3504.56818523
33
0
14
381.490344772
24
3501.96818523
34
0
50
90
100
AcDbRotatedDimension
0
DIMENSION
5
16F
100
AcDbEntity
8
Ground floor
6
ByLayer
62
256
370
-1
100
AcDbDimension
2
*D12
10
381.929441423
20
3501.96818523
30
0
11
381.929441423
21
3501.26818523
31
0
70
32
71
5
72
0
3
ISO-25
53
0
210
0
220
0
230
1
100
AcDbAlignedDimension
13
381.929441423
23
3500.56818523
33
0
14
381.929441423
24
3501.96818523
34
0
50
90
100
AcDbRotatedDimension
0
LINE
5
170
100
AcDbEntity
8
First Floor
6
ByLayer
62
256
370
-1
100
AcDbLine
10
386.893126419
20
3504.26818523
11
390.043126419
21
3504.26818523
0
LINE
5
171
100
AcDbEntity
8
First Floor
6
ByLayer
62
256
370
-1
100
AcDbLine
10
386.893126419
20
3504.01818523
11
387.793126419
21
3504.01818523
0
LINE
5
172
100
AcDbEntity
8
First Floor
6
ByLayer
62
256
370
-1
100
AcDbLine
10
386.893126419
20
3503.76818523
11
387.793126419
21
3503.76818523
0
LINE
5
173
100
AcDbEntity
8
First Floor
6
ByLayer
62
256
370
-1
100
AcDbLine
10
386.893126419
20
3503.51818523
11
387.793126419
21
3503.51818523
0
LINE
5
174
100
AcDbEntity
8
First Floor
6
ByLayer
62
256
370
-1
100
AcDbLine
10
386.893126419
20
3503.26818523
11
387.793126419
21
3503.26818523
0
LINE
5
175
100
AcDbEntity
8
First Floor
6
ByLayer
62
256
370
-1
100
AcDbLine
10
386.893126419
20
3503.01818523
11
388.043126419
21
3503.01818523
0
LINE
5
176
100
AcDbEntity
8
First Floor
6
ByLayer
62
256
370
-1
100
AcDbLine
10
389.043126419
20
3505.16818523
11
389.043126419
21
3504.26818523
0
LINE
5
177
100
AcDbEntity
8
First Floor
6
ByLayer
62
256
370
-1
100
AcDbLine
10
390.043126419
20
3505.16818523
11
390.043126419
21
3504.26818523
0
LINE
5
178
100
AcDbEntity
8
First Floor
6
ByLayer
62
256
370
-1
100
AcDbLine
10
390.240467323
20
3505.16818523
11
390.240467323
21
3504.26818523
0
LINE
5
179
100
AcDbEntity
8
First Floor
6
ByLayer
62
256
370
-1
100
AcDbLine
10
389.543126419
20
3505.16818523
11
389.543126419
21
3504.26818523
0
LINE
5
17A
100
AcDbEntity
8
First Floor
6
ByLayer
62
256
370
-1
100
AcDbLine
10
389.293126419
20
3505.16818523
11
389.293126419
21
3504.26818523
0
LINE
5
17B
100
AcDbEntity
8
First Floor
6
ByLayer
62
256
370
-1
100
AcDbLine
10
388.293126419
20
3505.16818523
11
388.293126419
21
3504.26818523
0
LINE
5
17C
100
AcDbEntity
8
First Floor
6
ByLayer
62
256
370
-1
100
AcDbLine
10
388.793126419
20
3505.16818523
11
388.793126419
21
3504.26818523
0
LINE
5
17D
100
AcDbEntity
8
First Floor
6
ByLayer
62
256
370
-1
100
AcDbLine
10
388.543126419
20
3505.16818523
11
388.543126419
21
3504.26818523
0
LINE
5
17E
100
AcDbEntity
8
First Floor
6
ByLayer
62
256
370
-1
100
AcDbLine
10
388.043126419
20
3505.16818523
11
388.043126419
21
3504.26818523
0
LINE
5
17F
100
AcDbEntity
8
First Floor
6
ByLayer
62
256
370
-1
100
AcDbLine
10
387.793126419
20
3505.16818523
11
387.793126419
21
3502.16818523
0
MTEXT
5
180
100
AcDbEntity
8
First Floor
6
ByLayer
62
256
370
-1
100
AcDbMText
10
389.392450636
20
3506.72144277
30
0
40
0.2
41
1.32777777778
71
1
72
5
1
BED ROOM\P550x250
7
standard
210
0
220
0
230
1
50
0
73
1
44
1
0
MTEXT
5
181
100
AcDbEntity
8
First Floor
6
ByLayer
62
256
370
-1
100
AcDbMText
10
388.87112324
20
3503.77577731
30
0
40
0.2
41
1.08888888889
71
1
72
5
1
LOBBY\P420X300
7
standard
210
0
220
0
230
1
50
0
73
1
44
1
0
MTEXT
5
182
100
AcDbEntity
8
First Floor
6
ByLayer
62
256
370
-1
100
AcDbMText
10
392.521835119
20
3502.96891822
30
0
40
0.2
41
1.32777777778
71
1
72
5
1
BED ROOM\P340X240
7
standard
210
0
220
0
230
1
50
0
73
1
44
1
0
MTEXT
5
183
100
AcDbEntity
8
First Floor
6
ByLayer
62
256
370
-1
100
AcDbMText
10
388.580820074
20
3501.58728874
30
0
40
0.2
41
1.06666666667
71
1
72
5
1
PORCH\P420X140
7
standard
210
0
220
0
230
1
50
0
73
1
44
1
0
MTEXT
5
184
100
AcDbEntity
8
First Floor
6
ByLayer
62
256
370
-1
100
AcDbMText
10
388.151265577
20
3508.23700087
30
0
40
0.2
41
0.333333333333
71
1
72
5
1
W3
7
standard
210
0
220
0
230
1
50
0
73
1
44
1
0
MTEXT
5
185
100
AcDbEntity
8
First Floor
6
ByLayer
62
256
370
-1
100
AcDbMText
10
386.143535474
20
3503.73092403
30
0
40
0.2
41
0.333333333333
71
1
72
5
1
W3
7
standard
210
0
220
0
230
1
50
0
73
1
44
1
0
MTEXT
5
186
100
AcDbEntity
8
First Floor
6
ByLayer
62
256
370
-1
100
AcDbMText
10
394.936664895
20
3503.51563629
30
0
40
0.2
41
0.333333333333
71
1
72
5
1
W3
7
standard
210
0
220
0
230
1
50
0
73
1
44
1
0
MTEXT
5
187
100
AcDbEntity
8
First Floor
6
ByLayer
62
256
370
-1
100
AcDbMText
10
391.02763046
20
3504.16049589
30
0
40
0.2
41
0.222222222222
71
1
72
5
1
D1
7
standard
210
0
220
0
230
1
50
0
73
1
44
1
0
MTEXT
5
188
100
AcDbEntity
8
First Floor
6
ByLayer
62
256
370
-1
100
AcDbMText
10
390.40864585
20
3505.35128801
30
0
40
0.2
41
0.222222222222
71
1
72
5
1
D1
7
standard
210
0
220
0
230
1
50
0
73
1
44
1
0
DIMENSION
5
189
100
AcDbEntity
8
First Floor
6
ByLayer
62
256
370
-1
100
AcDbDimension
2
*D13
10
391.093126419
20
3498.87976942
30
0
11
388.993126419
21
3499.60517869
31
0
70
32
71
5
72
0
3
ISO-25
53
0
210
0
220
0
230
1
100
AcDbAlignedDimension
13
386.893126419
23
3498.87976942
33
0
14
391.093126419
24
3498.87976942
34
0
100
AcDbRotatedDimension
0
DIMENSION
5
18A
100
AcDbEntity
8
First Floor
6
ByLayer
62
256
370
-1
100
AcDbDimension
2
*D14
10
394.693126419
20
3498.87976942
30
0
11
392.893126419
21
3499.60695223
31
0
70
32
71
5
72
0
3
ISO-25
53
0
210
0
220
0
230
1
100
AcDbAlignedDimension
13
391.093126419
23
3498.87976942
33
0
14
394.693126419
24
3498.87976942
34
0
100
AcDbRotatedDimension
0
DIMENSION
5
18B
100
AcDbEntity
8
First Floor
6
ByLayer
62
256
370
-1
100
AcDbDimension
2
*D15
10
390.093126419
20
3509.56850299
30
0
11
388.393126419
21
3509.56850299
31
0
70
32
71
5
72
0
3
ISO-25
53
0
210
0
220
0
230
1
100
AcDbAlignedDimension
13
386.693126419
23
3509.56850299
33
0
14
390.093126419
24
3509.56850299
34
0
100
AcDbRotatedDimension
0
DIMENSION
5
18C
100
AcDbEntity
8
First Floor
6
ByLayer
62
256
370
-1
100
AcDbDimension
2
*D16
10
395.093126419
20
3509.56850299
30
0
11
392.593126419
21
3510.29520831
31
0
70
32
71
5
72
0
3
ISO-25
53
0
210
0
220
0
230
1
100
AcDbAlignedDimension
13
390.093126419
23
3509.56850299
33
0
14
395.093126419
24
3509.56850299
34
0
100
AcDbRotatedDimension
0
DIMENSION
5
18D
100
AcDbEntity
8
First Floor
6
ByLayer
62
256
370
-1
100
AcDbDimension
2
*D17
10
384.704410908
20
3507.96818523
30
0
11
384.704410908
21
3508.16818523
31
0
70
32
71
5
72
0
3
ISO-25
53
0
210
0
220
0
230
1
100
AcDbAlignedDimension
13
384.704410908
23
3508.36818523
33
0
14
384.704410908
24
3507.96818523
34
0
50
90
100
AcDbRotatedDimension
0
DIMENSION
5
18E
100
AcDbEntity
8
First Floor
6
ByLayer
62
256
370
-1
100
AcDbDimension
2
*D18
10
384.704410908
20
3501.96818523
30
0
11
384.704410908
21
3504.96818523
31
0
70
32
71
5
72
0
3
ISO-25
53
0
210
0
220
0
230
1
100
AcDbAlignedDimension
13
384.704410908
23
3507.96818523
33
0
14
384.704410908
24
3501.96818523
34
0
50
90
100
AcDbRotatedDimension
0
DIMENSION
5
18F
100
AcDbEntity
8
First Floor
6
ByLayer
62
256
370
-1
100
AcDbDimension
2
*D19
10
384.704410908
20
3500.56818523
30
0
11
384.704410908
21
3501.26818523
31
0
70
32
71
5
72
0
3
ISO-25
53
0
210
0
220
0
230
1
100
AcDbAlignedDimension
13
384.704410908
23
3501.96818523
33
0
14
384.704410908
24
3500.56818523
34
0
50
90
100
AcDbRotatedDimension
0
DIMENSION
5
190
100
AcDbEntity
8
First Floor
6
ByLayer
62
256
370
-1
100
AcDbDimension
2
*D20
10
386.893126419
20
3498.87976942
30
0
11
386.793126419
21
3498.87976942
31
0
70
32
71
5
72
0
3
ISO-25
53
0
210
0
220
0
230
1
100
AcDbAlignedDimension
13
386.693126419
23
3498.87976942
33
0
14
386.893126419
24
3498.87976942
34
0
100
AcDbRotatedDimension
0
DIMENSION
5
191
100
AcDbEntity
8
First Floor
6
ByLayer
62
256
370
-1
100
AcDbDimension
2
*D21
10
394.893126419
20
3498.87976942
30
0
11
394.793126419
21
3498.87976942
31
0
70
32
71
5
72
0
3
ISO-25
53
0
210
0
220
0
230
1
100
AcDbAlignedDimension
13
394.693126419
23
3498.87976942
33
0
14
394.893126419
24
3498.87976942
34
0
100
AcDbRotatedDimension
0
DIMENSION
5
192
100
AcDbEntity
8
First Floor
6
ByLayer
62
256
370
-1
100
AcDbDimension
2
*D22
10
396.145763445
20
3504.56818523
30
0
11
396.145763445
21
3506.46818523
31
0
70
32
71
5
72
0
3
ISO-25
53
0
210
0
220
0
230
1
100
AcDbAlignedDimension
13
396.145763445
23
3508.36818523
33
0
14
396.145763445
24
3504.56818523
34
0
50
90
100
AcDbRotatedDimension
0
DIMENSION
5
193
100
AcDbEntity
8
First Floor
6
ByLayer
62
256
370
-1
100
AcDbDimension
2
*D23
10
396.145763445
20
3501.96818523
30
0
11
396.145763445
21
3503.31994821
31
0
70
32
71
5
72
0
3
ISO-25
53
0
210
0
220
0
230
1
100
AcDbAlignedDimension
13
395.701823554
23
3504.56818523
33
0
14
395.701823554
24
3501.96818523
34
0
50
90
100
AcDbRotatedDimension
0
DIMENSION
5
194
100
AcDbEntity
8
First Floor
6
ByLayer
62
256
370
-1
100
AcDbDimension
2
*D24
10
396.140920205
20
3501.96818523
30
0
11
396.140920205
21
3501.26818523
31
0
70
32
71
5
72
0
3
ISO-25
53
0
210
0
220
0
230
1
100
AcDbAlignedDimension
13
396.140920205
23
3500.56818523
33
0
14
396.140920205
24
3501.96818523
34
0
50
90
100
AcDbRotatedDimension
0
MTEXT
5
195
100
AcDbEntity
8
First Floor
6
ByLayer
62
256
370
-1
100
AcDbMText
10
393.189512958
20
3505.989833
30
0
40
0.2
41
1.02222222222
71
1
72
5
1
TOILET\P230X160
7
standard
210
0
220
0
230
1
50
0
73
1
44
1
0
MTEXT
5
196
100
AcDbEntity
8
First Floor
6
ByLayer
62
256
370
-1
100
AcDbMText
10
393.167033128
20
3507.64388862
30
0
40
0.2
41
1.02222222222
71
1
72
5
1
TOILET\P230X160
7
standard
210
0
220
0
230
1
50
0
73
1
44
1
0
MTEXT
5
197
100
AcDbEntity
8
First Floor
6
ByLayer
62
256
370
-1
100
AcDbMText
10
392.26775549
20
3507.18966219
30
0
40
0.2
41
0.266666666667
71
1
72
5
1
D2
7
standard
210
0
220
0
230
1
50
0
73
1
44
1
0
MTEXT
5
198
100
AcDbEntity
8
First Floor
6
ByLayer
62
256
370
-1
100
AcDbMText
10
394.116032377
20
3504.7532894
30
0
40
0.2
41
0.266666666667
71
1
72
5
1
D2
7
standard
210
0
220
0
230
1
50
0
73
1
44
1
0
MTEXT
5
199
100
AcDbEntity
8
First Floor
6
ByLayer
62
256
370
-1
100
AcDbMText
10
393.637078456
20
3508.69263806
30
0
40
0.2
41
0.133333333333
71
1
72
5
1
V
7
standard
210
0
220
0
230
1
50
0
73
1
44
1
0
MTEXT
5
19A
100
AcDbEntity
8
First Floor
6
ByLayer
62
256
370
-1
100
AcDbMText
10
395.151013639
20
3505.65124209
30
0
40
0.2
41
0.133333333333
71
1
72
5
1
V
7
standard
210
0
220
0
230
1
50
0
73
1
44
1
0
MTEXT
5
19B
100
AcDbEntity
8
First Floor
6
ByLayer
62
256
370
-1
100
AcDbMText
10
391.272895037
20
3508.65265972
30
0
40
0.2
41
0.333333333333
71
1
72
5
1
W2
7
standard
210
0
220
0
230
1
50
0
73
1
44
1
0
MTEXT
5
19C
100
AcDbEntity
8
First Floor
6
ByLayer
62
256
370
-1
100
AcDbMText
10
392.852991842
20
3500.4757468
30
0
40
0.2
41
0.333333333333
71
1
72
5
1
W3
7
standard
210
0
220
0
230
1
50
0
73
1
44
1
0
MTEXT
5
19D
100
AcDbEntity
8
First Floor
6
ByLayer
62
256
370
-1
100
AcDbMText
10
389.016953326
20
3502.16414514
30
0
40
0.2
41
0.222222222222
71
1
72
5
1
D1
7
standard
210
0
220
0
230
1
50
0
73
1
44
1
0
LINE
5
19E
100
AcDbEntity
8
Second Floor
6
ByLayer
62
256
370
-1
100
AcDbLine
10
401.570661205
20
3507.96818523
11
401.570661205
21
3501.96818523
0
LINE
5
19F
100
AcDbEntity
8
Second Floor
6
ByLayer
62
256
370
-1
100
AcDbLine
10
401.570661205
20
3507.96818523
11
404.970661205
21
3507.96818523
0
LINE
5
1A0
100
AcDbEntity
8
Second Floor
6
ByLayer
62
256
370
-1
100
AcDbLine
10
404.970661205
20
3508.36818523
11
404.970661205
21
3507.96818523
0
LINE
5
1A1
100
AcDbEntity
8
Second Floor
6
ByLayer
62
256
370
-1
100
AcDbLine
10
409.970661205
20
3508.36818523
11
409.970661205
21
3504.56818523
0
LINE
5
1A2
100
AcDbEntity
8
Second Floor
6
ByLayer
62
256
370
-1
100
AcDbLine
10
409.770661205
20
3503.66818523
11
409.770661205
21
3501.96818523
0
LINE
5
1A3
100
AcDbEntity
8
Second Floor
6
ByLayer
62
256
370
-1
100
AcDbLine
10
404.970661205
20
3508.36818523
11
409.970661205
21
3508.36818523
0
LINE
5
1A4
100
AcDbEntity
8
Second Floor
6
ByLayer
62
256
370
-1
100
AcDbLine
10
409.770661205
20
3504.56818523
11
409.770661205
21
3501.96818523
0
LINE
5
1A5
100
AcDbEntity
8
Second Floor
6
ByLayer
62
256
370
-1
100
AcDbLine
10
409.570661205
20
3501.96818523
11
409.770661205
21
3501.96818523
0
LINE
5
1A6
100
AcDbEntity
8
Second Floor
6
ByLayer
62
256
370
-1
100
AcDbLine
10
409.770661205
20
3504.56818523
11
409.970661205
21
3504.56818523
0
LINE
5
1A7
100
AcDbEntity
8
Second Floor
6
ByLayer
62
256
370
-1
100
AcDbLine
10
401.770661205
20
3504.26818523
11
404.920661205
21
3504.26818523
0
LINE
5
1A8
100
AcDbEntity
8
Second Floor
6
ByLayer
62
256
370
-1
100
AcDbLine
10
401.770661205
20
3504.01818523
11
402.670661205
21
3504.01818523
0
LINE
5
1A9
100
AcDbEntity
8
Second Floor
6
ByLayer
62
256
370
-1
100
AcDbLine
10
401.770661205
20
3503.76818523
11
402.670661205
21
3503.76818523
0
LINE
5
1AA
100
AcDbEntity
8
Second Floor
6
ByLayer
62
256
370
-1
100
AcDbLine
10
401.770661205
20
3503.51818523
11
402.670661205
21
3503.51818523
0
LINE
5
1AB
100
AcDbEntity
8
Second Floor
6
ByLayer
62
256
370
-1
100
AcDbLine
10
401.770661205
20
3503.26818523
11
402.670661205
21
3503.26818523
0
LINE
5
1AC
100
AcDbEntity
8
Second Floor
6
ByLayer
62
256
370
-1
100
AcDbLine
10
401.770661205
20
3503.01818523
11
402.920661205
21
3503.01818523
0
LINE
5
1AD
100
AcDbEntity
8
Second Floor
6
ByLayer
62
256
370
-1
100
AcDbLine
10
409.770661205
20
3501.96818523
11
409.570661205
21
3501.96818523
0
LINE
5
1AE
100
AcDbEntity
8
Second Floor
6
ByLayer
62
256
370
-1
100
AcDbLine
10
409.570661205
20
3501.96818523
11
409.570661205
21
3500.56818523
0
LINE
5
1AF
100
AcDbEntity
8
Second Floor
6
ByLayer
62
256
370
-1
100
AcDbLine
10
409.570661205
20
3500.56818523
11
405.970661205
21
3500.56818523
0
LINE
5
1B0
100
AcDbEntity
8
Second Floor
6
ByLayer
62
256
370
-1
100
AcDbLine
10
405.970661205
20
3500.56818523
11
401.770661205
21
3500.56818523
0
LINE
5
1B1
100
AcDbEntity
8
Second Floor
6
ByLayer
62
256
370
-1
100
AcDbLine
10
409.520661205
20
3500.61818523
11
401.820661205
21
3500.61818523
0
LINE
5
1B2
100
AcDbEntity
8
Second Floor
6
ByLayer
62
256
370
-1
100
AcDbLine
10
401.770661205
20
3500.56818523
11
401.770661205
21
3501.96818523
0
LINE
5
1B3
100
AcDbEntity
8
Second Floor
6
ByLayer
62
256
370
-1
100
AcDbLine
10
401.820661205
20
3500.61818523
11
401.820661205
21
3501.96818523
0
LINE
5
1B4
100
AcDbEntity
8
Second Floor
6
ByLayer
62
256
370
-1
100
AcDbLine
10
401.770661205
20
3500.56818523
11
401.970661205
21
3500.56818523
0
LINE
5
1B5
100
AcDbEntity
8
Second Floor
6
ByLayer
62
256
370
-1
100
AcDbLine
10
409.570661205
20
3500.56818523
11
409.570661205
21
3500.76818523
0
LINE
5
1B6
100
AcDbEntity
8
Second Floor
6
ByLayer
62
256
370
-1
100
AcDbLine
10
403.920661205
20
3505.16818523
11
403.920661205
21
3504.26818523
0
LINE
5
1B7
100
AcDbEntity
8
Second Floor
6
ByLayer
62
256
370
-1
100
AcDbLine
10
404.670661205
20
3505.16818523
11
404.670661205
21
3504.26818523
0
LINE
5
1B8
100
AcDbEntity
8
Second Floor
6
ByLayer
62
256
370
-1
100
AcDbLine
10
404.420661205
20
3505.16818523
11
404.420661205
21
3504.26818523
0
LINE
5
1B9
100
AcDbEntity
8
Second Floor
6
ByLayer
62
256
370
-1
100
AcDbLine
10
404.170661205
20
3505.16818523
11
404.170661205
21
3504.26818523
0
LINE
5
1BA
100
AcDbEntity
8
Second Floor
6
ByLayer
62
256
370
-1
100
AcDbLine
10
403.170661205
20
3505.16818523
11
403.170661205
21
3504.26818523
0
LINE
5
1BB
100
AcDbEntity
8
Second Floor
6
ByLayer
62
256
370
-1
100
AcDbLine
10
403.670661205
20
3505.16818523
11
403.670661205
21
3504.26818523
0
LINE
5
1BC
100
AcDbEntity
8
Second Floor
6
ByLayer
62
256
370
-1
100
AcDbLine
10
403.420661205
20
3505.16818523
11
403.420661205
21
3504.26818523
0
LINE
5
1BD
100
AcDbEntity
8
Second Floor
6
ByLayer
62
256
370
-1
100
AcDbLine
10
402.920661205
20
3505.16818523
11
402.920661205
21
3504.26818523
0
LINE
5
1BE
100
AcDbEntity
8
Second Floor
6
ByLayer
62
256
370
-1
100
AcDbLine
10
402.670661205
20
3505.16818523
11
402.670661205
21
3502.16818523
0
MTEXT
5
1BF
100
AcDbEntity
8
Second Floor
6
ByLayer
62
256
370
-1
100
AcDbMText
10
401.02107026
20
3503.73092403
30
0
40
0.2
41
0.333333333333
71
1
72
5
1
W3
7
standard
210
0
220
0
230
1
50
0
73
1
44
1
0
LINE
5
1C0
100
AcDbEntity
8
Second Floor
6
ByLayer
62
256
370
-1
100
AcDbLine
10
401.620661205
20
3507.91818523
11
405.020661205
21
3507.91818523
0
LINE
5
1C1
100
AcDbEntity
8
Second Floor
6
ByLayer
62
256
370
-1
100
AcDbLine
10
405.020661205
20
3508.31818523
11
405.020661205
21
3507.91818523
0
LINE
5
1C2
100
AcDbEntity
8
Second Floor
6
ByLayer
62
256
370
-1
100
AcDbLine
10
405.020661205
20
3508.31818523
11
409.920661205
21
3508.31818523
0
LINE
5
1C3
100
AcDbEntity
8
Second Floor
6
ByLayer
62
256
370
-1
100
AcDbLine
10
401.620661205
20
3507.91818523
11
401.620661205
21
3505.26818523
0
LINE
5
1C4
100
AcDbEntity
8
Second Floor
6
ByLayer
62
256
370
-1
100
AcDbLine
10
409.920661205
20
3508.31818523
11
409.920661205
21
3504.61818523
0
LINE
5
1C5
100
AcDbEntity
8
Second Floor
6
ByLayer
62
256
370
-1
100
AcDbLine
10
409.720661205
20
3504.61818523
11
409.720661205
21
3502.01818523
0
LINE
5
1C6
100
AcDbEntity
8
Second Floor
6
ByLayer
62
256
370
-1
100
AcDbLine
10
409.520661205
20
3502.01818523
11
409.520661205
21
3500.61818523
0
LINE
5
1C7
100
AcDbEntity
8
Second Floor
6
ByLayer
62
256
370
-1
100
AcDbLine
10
409.720661205
20
3502.01818523
11
409.520661205
21
3502.01818523
0
LINE
5
1C8
100
AcDbEntity
8
Second Floor
6
ByLayer
62
256
370
-1
100
AcDbLine
10
409.720661205
20
3504.61818523
11
409.920661205
21
3504.61818523
0
MTEXT
5
1C9
100
AcDbEntity
8
First Floor
6
ByLayer
62
256
370
-1
100
AcDbMText
10
388.705717675
20
3497.89632711
30
0
40
0.35
41
2.94583325913
71
1
72
5
1
FIRST FLOOR
7
standard
210
0
220
0
230
1
50
0
73
1
44
1
0
MTEXT
5
1CA
100
AcDbEntity
8
Ground floor
6
ByLayer
62
256
370
-1
100
AcDbMText
10
375.159275487
20
3497.70631948
30
0
40
0.35
41
3.75277777778
71
1
72
5
1
GROUND  FLOOR
7
standard
210
0
220
0
230
1
50
0
73
1
44
1
0
MTEXT
5
1CB
100
AcDbEntity
8
Second Floor
6
ByLayer
62
256
370
-1
100
AcDbMText
10
403.927868334
20
3499.15551563
30
0
40
0.35
41
3.4124999258
71
1
72
5
1
SECOND FLOOR
7
standard
210
0
220
0
230
1
50
0
73
1
44
1
0
LINE
5
1CC
100
AcDbEntity
8
0
6
ByLayer
62
256
370
-1
100
AcDbLine
10
409.175037196
20
3385.53086166
11
409.175037196
21
3379.53086166
0
LINE
5
1CD
100
AcDbEntity
8
0
6
ByLayer
62
256
370
-1
100
AcDbLine
10
409.175037196
20
3385.53086166
11
412.575037196
21
3385.53086166
0
LINE
5
1CE
100
AcDbEntity
8
0
6
ByLayer
62
256
370
-1
100
AcDbLine
10
412.575037196
20
3385.93086166
11
412.575037196
21
3385.53086166
0
LINE
5
1CF
100
AcDbEntity
8
0
6
ByLayer
62
256
370
-1
100
AcDbLine
10
417.575037196
20
3385.93086166
11
417.575037196
21
3382.13086166
0
LINE
5
1D0
100
AcDbEntity
8
0
6
ByLayer
62
256
370
-1
100
AcDbLine
10
417.375037196
20
3381.23086166
11
417.375037196
21
3379.53086166
0
LINE
5
1D1
100
AcDbEntity
8
0
6
ByLayer
62
256
370
-1
100
AcDbLine
10
412.575037196
20
3385.93086166
11
417.575037196
21
3385.93086166
0
LINE
5
1D2
100
AcDbEntity
8
0
6
ByLayer
62
256
370
-1
100
AcDbLine
10
417.375037196
20
3382.13086166
11
417.375037196
21
3379.53086166
0
LINE
5
1D3
100
AcDbEntity
8
0
6
ByLayer
62
256
370
-1
100
AcDbLine
10
417.375037196
20
3379.53086166
11
417.175037196
21
3379.53086166
0
LINE
5
1D4
100
AcDbEntity
8
0
6
ByLayer
62
256
370
-1
100
AcDbLine
10
417.175037196
20
3379.53086166
11
417.175037196
21
3378.13086166
0
LINE
5
1D5
100
AcDbEntity
8
0
6
ByLayer
62
256
370
-1
100
AcDbLine
10
417.175037196
20
3378.13086166
11
413.575037196
21
3378.13086166
0
LINE
5
1D6
100
AcDbEntity
8
0
6
ByLayer
62
256
370
-1
100
AcDbLine
10
413.575037196
20
3378.13086166
11
409.375037196
21
3378.13086166
0
LINE
5
1D7
100
AcDbEntity
8
0
6
ByLayer
62
256
370
-1
100
AcDbLine
10
409.375037196
20
3378.13086166
11
409.375037196
21
3379.53086166
0
LINE
5
1D8
100
AcDbEntity
8
0
6
ByLayer
62
256
370
-1
100
AcDbLine
10
409.175037196
20
3382.83086166
11
409.175037196
21
3383.73086166
0
LINE
5
1D9
100
AcDbEntity
8
0
6
ByLayer
62
256
370
-1
100
AcDbLine
10
409.652524469
20
3375.13086166
11
418.012537196
21
3375.13086166
0
LINE
5
1DA
100
AcDbEntity
8
0
6
ByLayer
62
256
370
-1
100
AcDbLine
10
418.012537196
20
3375.13086166
11
419.013213785
21
3386.56716553
0
LINE
5
1DB
100
AcDbEntity
8
0
6
ByLayer
62
256
370
-1
100
AcDbLine
10
418.012537196
20
3375.13086166
11
419.013213785
21
3386.56716553
0
LINE
5
1DC
100
AcDbEntity
8
0
6
ByLayer
62
256
370
-1
100
AcDbLine
10
419.013213785
20
3386.56716553
11
414.289126791
21
3387.43334806
0
LWPOLYLINE
5
1DD
100
AcDbEntity
8
0
6
ByLayer
62
256
370
-1
100
AcDbPolyline
90
2
70
0
43
0
10
408.571174928
20
3374.99328113
10
407.691076947
20
3386.26898632
0
LINE
5
1DE
100
AcDbEntity
8
0
6
ByLayer
62
256
370
-1
100
AcDbLine
10
414.289126791
20
3387.43334806
11
407.691076947
21
3386.26898632
0
LINE
5
1DF
100
AcDbEntity
8
0
6
ByLayer
62
256
370
-1
100
AcDbLine
10
409.804588028
20
3372.73086166
11
418.012537196
21
3372.73086166
0
LWPOLYLINE
5
1E0
100
AcDbEntity
8
0
6
ByLayer
62
256
370
-1
100
AcDbPolyline
90
2
70
0
43
0
10
409.804588028
20
3372.73086166
10
408.874086019
20
3372.61247352
0
LINE
5
1E1
100
AcDbEntity
8
0
6
ByLayer
62
256
370
-1
100
AcDbLine
10
418.012537196
20
3375.13086166
11
431.58889348
21
3375.13086166
0
LINE
5
1E2
100
AcDbEntity
8
0
6
ByLayer
62
256
370
-1
100
AcDbLine
10
418.012537196
20
3372.73086166
11
430.879080078
21
3372.73086166
0
LINE
5
1E3
100
AcDbEntity
8
0
6
ByLayer
62
256
370
-1
100
AcDbLine
10
422.273475177
20
3343.63384588
11
430.879080078
21
3372.73086166
0
LINE
5
1E4
100
AcDbEntity
8
0
6
ByLayer
62
256
370
-1
100
AcDbLine
10
426.232875123
20
3342.91745751
11
438.189630028
21
3383.34528219
0
LINE
5
1E5
100
AcDbEntity
8
0
6
ByLayer
62
256
370
-1
100
AcDbLine
10
421.31453595
20
3342.91745751
11
402.895855042
21
3342.91745751
0
LINE
5
1E6
100
AcDbEntity
8
0
6
ByLayer
62
256
370
-1
100
AcDbLine
10
421.31453595
20
3338.91745751
11
402.760024833
21
3338.91745751
0
ARC
5
1E7
100
AcDbEntity
8
0
6
ByLayer
62
256
370
-1
100
AcDbCircle
10
421.31453595
20
3343.91745751
40
1
100
AcDbArc
50
270
51
343.524123013
0
ARC
5
1E8
100
AcDbEntity
8
0
6
ByLayer
62
256
370
-1
100
AcDbCircle
10
421.301187916
20
3343.95762757
40
5.04018774142
100
AcDbArc
50
270.151737772
51
348.089982558
0
LINE
5
1E9
100
AcDbEntity
8
0
6
ByLayer
62
256
370
-1
100
AcDbLine
10
437.011502768
20
3393.46562718
11
437.011502768
21
3413.13804814
0
LINE
5
1EA
100
AcDbEntity
8
0
6
ByLayer
62
256
370
-1
100
AcDbLine
10
440.604379913
20
3391.5099628
11
440.604379913
21
3413.13804814
0
LINE
5
1EB
100
AcDbEntity
8
0
6
ByLayer
62
256
370
-1
100
AcDbLine
10
436.011502768
20
3414.13804814
11
410.550058046
21
3414.13804814
0
LINE
5
1EC
100
AcDbEntity
8
0
6
ByLayer
62
256
370
-1
100
AcDbLine
10
441.604379913
20
3414.13804814
11
468.910338648
21
3414.13804814
0
LINE
5
1ED
100
AcDbEntity
8
0
6
ByLayer
62
256
370
-1
100
AcDbLine
10
437.011502768
20
3418.13804814
11
410.898048525
21
3418.13804814
0
LINE
5
1EE
100
AcDbEntity
8
0
6
ByLayer
62
256
370
-1
100
AcDbLine
10
437.011502768
20
3418.13804814
11
441.676476624
21
3418.13804814
0
LINE
5
1EF
100
AcDbEntity
8
0
6
ByLayer
62
256
370
-1
100
AcDbLine
10
442.676476624
20
3419.13804814
11
442.676476624
21
3431.09128956
0
LINE
5
1F0
100
AcDbEntity
8
0
6
ByLayer
62
256
370
-1
100
AcDbLine
10
446.676476624
20
3419.13804814
11
446.676476624
21
3431.49090746
0
LINE
5
1F1
100
AcDbEntity
8
0
6
ByLayer
62
256
370
-1
100
AcDbLine
10
447.676476624
20
3418.13804814
11
448.341450479
21
3418.13804814
0
LINE
5
1F2
100
AcDbEntity
8
0
6
ByLayer
62
256
370
-1
100
AcDbLine
10
447.676476624
20
3418.13804814
11
467.572416664
21
3418.13804814
0
ARC
5
1F3
100
AcDbEntity
8
0
6
ByLayer
62
256
370
-1
100
AcDbCircle
10
441.676476624
20
3419.13804814
40
1
100
AcDbArc
50
270
51
0
0
ARC
5
1F4
100
AcDbEntity
8
0
6
ByLayer
62
256
370
-1
100
AcDbCircle
10
447.676476624
20
3419.13804814
40
1
100
AcDbArc
50
180
51
270
0
ARC
5
1F5
100
AcDbEntity
8
0
6
ByLayer
62
256
370
-1
100
AcDbCircle
10
441.604379913
20
3413.13804814
40
1
100
AcDbArc
50
90
51
180
0
ARC
5
1F6
100
AcDbEntity
8
0
6
ByLayer
62
256
370
-1
100
AcDbCircle
10
436.011502768
20
3413.13804814
40
1
100
AcDbArc
50
0
51
90
0
LINE
5
1F7
100
AcDbEntity
8
0
6
ByLayer
62
256
370
-1
100
AcDbLine
10
438.816111964
20
3385.4635243
11
454.754033471
21
3385.4635243
0
LINE
5
1F8
100
AcDbEntity
8
0
6
ByLayer
62
256
370
-1
100
AcDbLine
10
439.525925366
20
3387.8635243
11
454.554063482
21
3387.8635243
0
LINE
5
1F9
100
AcDbEntity
8
0
6
ByLayer
62
256
370
-1
100
AcDbLine
10
438.189630028
20
3383.34528219
11
438.816111964
21
3385.4635243
0
LINE
5
1FA
100
AcDbEntity
8
0
6
ByLayer
62
256
370
-1
100
AcDbLine
10
454.754033471
20
3384.29010465
11
454.754033471
21
3386.11005554
0
LINE
5
1FB
100
AcDbEntity
8
0
6
ByLayer
62
256
370
-1
100
AcDbLine
10
454.754033471
20
3386.11005554
11
453.610343902
21
3386.38653459
0
LINE
5
1FC
100
AcDbEntity
8
0
6
ByLayer
62
256
370
-1
100
AcDbLine
10
453.610343902
20
3386.38653459
11
455.866789069
21
3386.74297903
0
LINE
5
1FD
100
AcDbEntity
8
0
6
ByLayer
62
256
370
-1
100
AcDbLine
10
455.866789069
20
3386.74297903
11
454.554063482
21
3387.1538043
0
LINE
5
1FE
100
AcDbEntity
8
0
6
ByLayer
62
256
370
-1
100
AcDbLine
10
454.554063482
20
3387.1538043
11
454.554063482
21
3388.40440424
0
LINE
5
1FF
100
AcDbEntity
8
0
6
ByLayer
62
256
370
-1
100
AcDbLine
10
410.550058046
20
3412.24105914
11
410.550058046
21
3415.34406953
0
LINE
5
200
100
AcDbEntity
8
0
6
ByLayer
62
256
370
-1
100
AcDbLine
10
410.550058046
20
3415.34406953
11
412.886584611
21
3415.64195966
0
LINE
5
201
100
AcDbEntity
8
0
6
ByLayer
62
256
370
-1
100
AcDbLine
10
412.886584611
20
3415.64195966
11
409.356931947
21
3416.70939443
0
LINE
5
202
100
AcDbEntity
8
0
6
ByLayer
62
256
370
-1
100
AcDbLine
10
409.356931947
20
3416.70939443
11
410.898048525
21
3416.90799064
0
LINE
5
203
100
AcDbEntity
8
0
6
ByLayer
62
256
370
-1
100
AcDbLine
10
410.898048525
20
3416.90799064
11
410.898048525
21
3421.11167316
0
LINE
5
204
100
AcDbEntity
8
0
6
ByLayer
62
256
370
-1
100
AcDbLine
10
464.698871049
20
3410.82165451
11
464.698871049
21
3415.17313209
0
LINE
5
205
100
AcDbEntity
8
0
6
ByLayer
62
256
370
-1
100
AcDbLine
10
464.698871049
20
3415.17313209
11
462.274879853
21
3415.62204567
0
LINE
5
206
100
AcDbEntity
8
0
6
ByLayer
62
256
370
-1
100
AcDbLine
10
462.274879853
20
3415.62204567
11
466.14567349
21
3416.37025449
0
LINE
5
207
100
AcDbEntity
8
0
6
ByLayer
62
256
370
-1
100
AcDbLine
10
466.14567349
20
3416.37025449
11
463.973045815
21
3416.56977071
0
LINE
5
208
100
AcDbEntity
8
0
6
ByLayer
62
256
370
-1
100
AcDbLine
10
463.973045815
20
3416.56977071
11
463.973045815
21
3419.96944176
0
LINE
5
209
100
AcDbEntity
8
0
6
ByLayer
62
256
370
-1
100
AcDbLine
10
449.838712429
20
3431.49090746
11
445.597222645
21
3431.49090746
0
LINE
5
20A
100
AcDbEntity
8
0
6
ByLayer
62
256
370
-1
100
AcDbLine
10
445.597222645
20
3431.49090746
11
445.037030916
21
3428.85343771
0
LINE
5
20B
100
AcDbEntity
8
0
6
ByLayer
62
256
370
-1
100
AcDbLine
10
445.037030916
20
3428.85343771
11
444.476839188
21
3433.409065
0
LINE
5
20C
100
AcDbEntity
8
0
6
ByLayer
62
256
370
-1
100
AcDbLine
10
444.476839188
20
3433.409065
11
443.916647459
21
3431.09128956
0
LINE
5
20D
100
AcDbEntity
8
0
6
ByLayer
62
256
370
-1
100
AcDbLine
10
443.916647459
20
3431.09128956
11
440.52202791
21
3431.09128956
0
LINE
5
20E
100
AcDbEntity
8
0
6
ByLayer
62
256
370
-1
100
AcDbLine
10
409.804588028
20
3372.73086166
11
398.176615486
21
3371.25143013
0
LINE
5
20F
100
AcDbEntity
8
0
6
ByLayer
62
256
370
-1
100
AcDbLine
10
409.652524469
20
3375.13086166
11
400.152045764
21
3373.92211201
0
LINE
5
210
100
AcDbEntity
8
0
6
ByLayer
62
256
370
-1
100
AcDbLine
10
398.172776002
20
3371.26861922
11
397.64730601
21
3373.62111057
0
LINE
5
211
100
AcDbEntity
8
0
6
ByLayer
62
256
370
-1
100
AcDbLine
10
408.571174928
20
3374.99328113
11
400.152045764
21
3373.92211201
0
LINE
5
212
100
AcDbEntity
8
0
6
ByLayer
62
256
370
-1
100
AcDbLine
10
408.571174928
20
3374.99328113
11
397.659140054
21
3373.60493863
0
LWPOLYLINE
5
213
100
AcDbEntity
8
0
6
ByLayer
62
256
370
-1
100
AcDbPolyline
90
4
70
1
43
0
10
420.187001441
20
3355.73056385
10
415.390901831
20
3355.73056385
10
415.390901831
20
3363.89499667
10
420.187001441
20
3363.89499667
0
LWPOLYLINE
5
214
100
AcDbEntity
8
0
6
ByLayer
62
256
370
-1
100
AcDbPolyline
90
4
70
1
43
0
10
407.433755269
20
3356.27485714
10
397.296553322
20
3356.27485714
10
397.296553322
20
3362.80640173
10
407.433755269
20
3362.80640173
0
LWPOLYLINE
5
215
100
AcDbEntity
8
0
6
ByLayer
62
256
370
-1
100
AcDbPolyline
90
4
70
1
43
0
10
386.50811459
20
3354.17618573
10
368.386345819
20
3354.17618573
10
368.386345819
20
3364.61735328
10
386.50811459
20
3364.61735328
0
LWPOLYLINE
5
216
100
AcDbEntity
8
0
6
ByLayer
62
256
370
-1
100
AcDbPolyline
90
4
70
1
43
0
10
358.480092308
20
3366.29255351
10
348.175500001
20
3366.29255351
10
348.175500001
20
3381.8164124
10
358.480092308
20
3381.8164124
0
LWPOLYLINE
5
217
100
AcDbEntity
8
0
6
ByLayer
62
256
370
-1
100
AcDbPolyline
90
4
70
1
43
0
10
388.065643296
20
3373.50530526
10
378.098744972
20
3373.50530526
10
378.098744972
20
3387.04791928
10
388.065643296
20
3387.04791928
0
LWPOLYLINE
5
218
100
AcDbEntity
8
0
6
ByLayer
62
256
370
-1
100
AcDbPolyline
90
4
70
1
43
0
10
414.758212085
20
3393.98747045
10
409.608295468
20
3393.98747045
10
409.608295468
20
3402.2850953
10
414.758212085
20
3402.2850953
0
LWPOLYLINE
5
219
100
AcDbEntity
8
0
6
ByLayer
62
256
370
-1
100
AcDbPolyline
90
4
70
1
43
0
10
433.820720456
20
3405.55988785
10
422.708420187
20
3405.55988785
10
422.708420187
20
3412.26248696
10
433.820720456
20
3412.26248696
0
LINE
5
21A
100
AcDbEntity
8
0
6
ByLayer
62
256
370
-1
100
AcDbLine
10
449.893085941
20
3432.6583387
11
445.651596158
21
3432.6583387
0
LINE
5
21B
100
AcDbEntity
8
0
6
ByLayer
62
256
370
-1
100
AcDbLine
10
445.651596158
20
3432.6583387
11
445.091404429
21
3430.02086895
0
LINE
5
21C
100
AcDbEntity
8
0
6
ByLayer
62
256
370
-1
100
AcDbLine
10
445.091404429
20
3430.02086895
11
444.5312127
21
3434.57649624
0
LINE
5
21D
100
AcDbEntity
8
0
6
ByLayer
62
256
370
-1
100
AcDbLine
10
444.5312127
20
3434.57649624
11
443.971020971
21
3432.25872081
0
LINE
5
21E
100
AcDbEntity
8
0
6
ByLayer
62
256
370
-1
100
AcDbLine
10
443.971020971
20
3432.25872081
11
440.576401423
21
3432.25872081
0
LINE
5
21F
100
AcDbEntity
8
0
6
ByLayer
62
256
370
-1
100
AcDbLine
10
446.676476624
20
3432.6583387
11
446.676476624
21
3446.54848135
0
LINE
5
220
100
AcDbEntity
8
0
6
ByLayer
62
256
370
-1
100
AcDbLine
10
442.676476624
20
3432.25872081
11
442.676476624
21
3446.54848135
0
LINE
5
221
100
AcDbEntity
8
0
6
ByLayer
62
256
370
-1
100
AcDbLine
10
459.249888995
20
3446.54848135
11
446.676476624
21
3446.54848135
0
LINE
5
222
100
AcDbEntity
8
0
6
ByLayer
62
256
370
-1
100
AcDbLine
10
459.249888995
20
3451.54848135
11
426.292757704
21
3451.54848135
0
LINE
5
223
100
AcDbEntity
8
0
6
ByLayer
62
256
370
-1
100
AcDbLine
10
442.676476624
20
3446.54848135
11
426.786544808
21
3446.54848135
0
LINE
5
224
100
AcDbEntity
8
0
6
ByLayer
62
256
370
-1
100
AcDbLine
10
459.249888995
20
3446.54848135
11
459.249888995
21
3448.56858411
0
LINE
5
225
100
AcDbEntity
8
0
6
ByLayer
62
256
370
-1
100
AcDbLine
10
459.249888995
20
3448.56858411
11
457.003228836
21
3449.31617402
0
LINE
5
226
100
AcDbEntity
8
0
6
ByLayer
62
256
370
-1
100
AcDbLine
10
457.003228836
20
3449.31617402
11
461.822478886
21
3449.48213504
0
LINE
5
227
100
AcDbEntity
8
0
6
ByLayer
62
256
370
-1
100
AcDbLine
10
461.822478886
20
3449.48213504
11
458.914307685
21
3450.33961569
0
LINE
5
228
100
AcDbEntity
8
0
6
ByLayer
62
256
370
-1
100
AcDbLine
10
458.914307685
20
3450.33961569
11
458.914307685
21
3453.32694765
0
LINE
5
229
100
AcDbEntity
8
0
6
ByLayer
62
256
370
-1
100
AcDbLine
10
426.786544808
20
3445.43875969
11
426.786544808
21
3447.96154629
0
LINE
5
22A
100
AcDbEntity
8
0
6
ByLayer
62
256
370
-1
100
AcDbLine
10
426.786544808
20
3447.96154629
11
424.4027611
21
3448.98856763
0
LINE
5
22B
100
AcDbEntity
8
0
6
ByLayer
62
256
370
-1
100
AcDbLine
10
424.4027611
20
3448.98856763
11
429.155517571
21
3449.48819873
0
LINE
5
22C
100
AcDbEntity
8
0
6
ByLayer
62
256
370
-1
100
AcDbLine
10
429.155517571
20
3449.48819873
11
426.292757704
21
3450.29316366
0
LINE
5
22D
100
AcDbEntity
8
0
6
ByLayer
62
256
370
-1
100
AcDbLine
10
426.292757704
20
3450.29316366
11
426.292757704
21
3454.32319054
0
LWPOLYLINE
5
22E
100
AcDbEntity
8
0
6
ByLayer
62
256
370
-1
100
AcDbPolyline
90
4
70
1
43
0
10
474.807362893
20
3333.7713612
10
309.490869737
20
3333.7713612
10
309.490869737
20
3471.8981396
10
474.807362893
20
3471.8981396
0
MTEXT
5
22F
100
AcDbEntity
8
0
6
ByLayer
62
256
370
-1
100
AcDbMText
10
438.808478012
20
3450.13133693
30
0
40
1
41
11.0555555556
71
1
72
5
1
GOLF LINK ROAD
7
standard
210
0
220
0
230
1
50
0
73
1
44
1
0
MTEXT
5
230
100
AcDbEntity
8
0
6
ByLayer
62
256
370
-1
100
AcDbMText
10
427.058561478
20
3415.75339471
30
0
40
1
41
7.75
71
1
72
5
1
ROAD 400W
7
standard
210
0
220
0
230
1
50
0
73
1
44
1
0
MTEXT
5
231
100
AcDbEntity
8
0
6
ByLayer
62
256
370
-1
100
AcDbMText
10
450.767103012
20
3386.03253774
30
0
40
1
41
3.33333333333
71
1
72
5
1
ROAD 
7
standard
210
0
220
0
230
1
50
0
73
1
44
1
0
MTEXT
5
232
100
AcDbEntity
8
0
6
ByLayer
62
256
370
-1
100
AcDbMText
10
415.195658641
20
3374.55986433
30
0
40
0.5
41
1
71
1
72
5
1
835
7
standard
210
0
220
0
230
1
50
180
73
1
44
1
0
MTEXT
5
233
100
AcDbEntity
8
0
6
ByLayer
62
256
370
-1
100
AcDbMText
10
411.189138979
20
3387.1826943
30
0
40
0.5
41
1
71
1
72
5
1
670
7
standard
210
0
220
0
230
1
50
-174.47958164
73
1
44
1
0
MTEXT
5
234
100
AcDbEntity
8
0
6
ByLayer
62
256
370
-1
100
AcDbMText
10
407.800528541
20
3380.91597013
30
0
40
0.5
41
1.05555555556
71
1
72
5
1
1131
7
standard
210
0
220
0
230
1
50
-82.4949180636
73
1
44
1
0
MTEXT
5
235
100
AcDbEntity
8
0
6
ByLayer
62
256
370
-1
100
AcDbMText
10
419.437954827
20
3380.85356866
30
0
40
0.5
41
1.22222222222
71
1
72
5
1
1148
7
standard
210
0
220
0
230
1
50
-99.7397157563
73
1
44
1
0
LINE
5
236
100
AcDbEntity
8
0
6
ByLayer
62
256
370
-1
100
AcDbLine
10
402.760024833
20
3336.00026766
11
402.760024833
21
3339.94329519
0
LINE
5
237
100
AcDbEntity
8
0
6
ByLayer
62
256
370
-1
100
AcDbLine
10
402.760024833
20
3339.94329519
11
404.146184056
21
3340.63520589
0
LINE
5
238
100
AcDbEntity
8
0
6
ByLayer
62
256
370
-1
100
AcDbLine
10
404.146184056
20
3340.63520589
11
401.423504163
21
3341.39375648
0
LINE
5
239
100
AcDbEntity
8
0
6
ByLayer
62
256
370
-1
100
AcDbLine
10
401.423504163
20
3341.39375648
11
402.895855042
21
3341.90723677
0
LINE
5
23A
100
AcDbEntity
8
0
6
ByLayer
62
256
370
-1
100
AcDbLine
10
402.895855042
20
3341.90723677
11
402.895855042
21
3344.63425077
0
MTEXT
5
23B
100
AcDbEntity
8
0
6
ByLayer
62
256
370
-1
100
AcDbMText
10
415.42734477
20
3359.732732
30
0
40
1
41
3.999999788
71
1
72
5
1
HOUSE
7
standard
210
0
220
0
230
1
50
0
73
1
44
1
0
MTEXT
5
23C
100
AcDbEntity
8
0
6
ByLayer
62
256
370
-1
100
AcDbMText
10
400.593421203
20
3359.38690596
30
0
40
1
41
3.999999788
71
1
72
5
1
HOUSE
7
standard
210
0
220
0
230
1
50
0
73
1
44
1
0
MTEXT
5
23D
100
AcDbEntity
8
0
6
ByLayer
62
256
370
-1
100
AcDbMText
10
375.141181266
20
3361.64632251
30
0
40
1
41
5.11111111111
71
1
72
5
1
HOUSE\P33/6378
7
standard
210
0
220
0
230
1
50
0
73
1
44
1
0
MTEXT
5
23E
100
AcDbEntity
8
0
6
ByLayer
62
256
370
-1
100
AcDbMText
10
379.380702071
20
3379.8401255
30
0
40
1
41
6.77777756578
71
1
72
5
1
BASEMENT
7
standard
210
0
220
0
230
1
50
0
73
1
44
1
0
MTEXT
5
23F
100
AcDbEntity
8
0
6
ByLayer
62
256
370
-1
100
AcDbMText
10
351.5111001
20
3375.40612545
30
0
40
1
41
5.11111111111
71
1
72
5
1
HOUSE\P33/6375
7
standard
210
0
220
0
230
1
50
0
73
1
44
1
0
MTEXT
5
240
100
AcDbEntity
8
0
6
ByLayer
62
256
370
-1
100
AcDbMText
10
409.847343628
20
3398.56968958
30
0
40
1
41
3.999999788
71
1
72
5
1
HOUSE
7
standard
210
0
220
0
230
1
50
0
73
1
44
1
0
MTEXT
5
241
100
AcDbEntity
8
0
6
ByLayer
62
256
370
-1
100
AcDbMText
10
424.091769394
20
3410.84030161
30
0
40
1
41
12.0833329093
71
1
72
5
1
HOUSE SUKRTHAM
7
standard
210
0
220
0
230
1
50
0
73
1
44
1
0
LWPOLYLINE
5
242
100
AcDbEntity
8
0
6
ByLayer
62
256
370
-1
100
AcDbPolyline
90
4
70
1
43
0
10
431.12837809
20
3379.54762214
10
422.21251897
20
3379.54762214
10
422.21251897
20
3383.86876468
10
431.12837809
20
3383.86876468
0
LINE
5
243
100
AcDbEntity
8
Ground floor
6
DASHED
62
256
370
-1
100
AcDbLine
10
381.481647637
20
3508.96818523
11
381.481647637
21
3503.96818523
0
LINE
5
244
100
AcDbEntity
8
Ground floor
6
DASHED
62
256
370
-1
100
AcDbLine
10
381.281647637
20
3503.96818523
11
381.281647637
21
3501.36818523
0
LINE
5
245
100
AcDbEntity
8
Ground floor
6
ByLayer
62
256
370
-1
100
AcDbLine
10
381.281647637
20
3503.96818523
11
381.481647637
21
3503.96818523
0
LINE
5
246
100
AcDbEntity
8
Ground floor
6
DASHED
62
256
370
-1
100
AcDbLine
10
381.081647637
20
3499.96818523
11
372.081647637
21
3499.96818523
0
LINE
5
247
100
AcDbEntity
8
Ground floor
6
DASHED
62
256
370
-1
100
AcDbLine
10
372.081647637
20
3499.96818523
11
372.081647637
21
3501.36818523
0
LINE
5
248
100
AcDbEntity
8
Ground floor
6
DASHED
62
256
370
-1
100
AcDbLine
10
371.881647637
20
3501.36818523
11
372.081647637
21
3501.36818523
0
LINE
5
249
100
AcDbEntity
8
Ground floor
6
DASHED
62
256
370
-1
100
AcDbLine
10
371.881647637
20
3508.56818523
11
371.881647637
21
3501.36818523
0
LINE
5
24A
100
AcDbEntity
8
Ground floor
6
DASHED
62
256
370
-1
100
AcDbLine
10
371.881647637
20
3508.56818523
11
375.281647637
21
3508.56818523
0
LINE
5
24B
100
AcDbEntity
8
Ground floor
6
DASHED
62
256
370
-1
100
AcDbLine
10
375.281647637
20
3508.96818523
11
381.481647637
21
3508.96818523
0
LINE
5
24C
100
AcDbEntity
8
Ground floor
6
DASHED
62
256
370
-1
100
AcDbLine
10
375.281647637
20
3508.96818523
11
375.281647637
21
3508.56818523
0
LINE
5
24D
100
AcDbEntity
8
Ground floor
6
ByLayer
62
256
370
-1
100
AcDbLine
10
381.281647637
20
3501.36818523
11
381.081647637
21
3501.36818523
0
LINE
5
24E
100
AcDbEntity
8
Ground floor
6
DASHED
62
256
370
-1
100
AcDbLine
10
381.081647637
20
3501.36818523
11
381.081647637
21
3499.96818523
0
MTEXT
5
24F
100
AcDbEntity
8
0
6
ByLayer
62
256
370
-1
100
AcDbMText
10
434.485661417
20
3376.55326668
30
0
40
1
41
7.75
71
1
72
5
1
ROAD 400W
7
standard
210
0
220
0
230
1
50
0
73
1
44
1
0
LINE
5
250
100
AcDbEntity
8
0
6
ByLayer
62
256
370
-1
100
AcDbLine
10
431.58889348
20
3375.13086166
11
437.011502768
21
3393.46562718
0
MTEXT
5
251
100
AcDbEntity
8
0
6
ByLayer
62
256
370
-1
100
AcDbMText
10
420.086411974
20
3374.47954551
30
0
40
1
41
9.19444402044
71
1
72
5
1
ACCESS 240W
7
standard
210
0
220
0
230
1
50
0
73
1
44
1
0
MTEXT
5
252
100
AcDbEntity
8
0
6
ByLayer
62
256
370
-1
100
AcDbMText
10
396.982671299
20
3371.62411328
30
0
40
1
41
6.52777777778
71
1
72
5
1
DEAD END
7
standard
210
0
220
0
230
1
50
0
73
1
44
1
0
MTEXT
5
253
100
AcDbEntity
8
0
6
ByLayer
62
256
370
-1
100
AcDbMText
10
409.682936291
20
3383.40622784
30
0
40
1
41
6.66666645466
71
1
72
5
1
PROPOSED \PHOUSE
7
standard
210
0
220
0
230
1
50
0
73
1
44
1
0
MTEXT
5
254
100
AcDbEntity
8
0
6
ByLayer
62
256
370
-1
100
AcDbMText
10
424.548031119
20
3381.93822174
30
0
40
1
41
3.999999788
71
1
72
5
1
HOUSE
7
standard
210
0
220
0
230
1
50
0
73
1
44
1
0
MTEXT
5
255
100
AcDbEntity
8
0
6
ByLayer
62
256
370
-1
100
AcDbMText
10
406.298955248
20
3336.58778903
30
0
40
1
41
12.5277777778
71
1
72
5
1
TO KARUNABAVAN
7
standard
210
0
220
0
230
1
50
0
73
1
44
1
0
LINE
5
256
100
AcDbEntity
8
0
6
ByLayer
62
256
370
-1
100
AcDbLine
10
409.258250727
20
3341.41471633
11
404.595523715
21
3341.41471633
0
LINE
5
257
100
AcDbEntity
8
0
6
ByLayer
62
256
370
-1
100
AcDbLine
10
404.595523715
20
3341.41471633
11
405.773306244
21
3340.57684789
0
LINE
5
258
100
AcDbEntity
8
0
6
ByLayer
62
256
370
-1
100
AcDbLine
10
405.773306244
20
3340.57684789
11
405.773306244
21
3342.17202047
0
MTEXT
5
259
100
AcDbEntity
8
0
6
ByLayer
62
256
370
-1
100
AcDbMText
10
405.432761835
20
3340.43772674
30
0
40
1
41
11.5
71
1
72
5
1
E.P NO: CM/23/19
7
standard
210
0
220
0
230
1
50
0
73
1
44
1
0
LINE
5
25A
100
AcDbEntity
8
0
6
ByLayer
62
256
370
-1
100
AcDbLine
10
439.525925366
20
3387.8635243
11
440.604379913
21
3391.5099628
0
MTEXT
5
25B
100
AcDbEntity
8
0
6
ByLayer
62
256
370
-1
100
AcDbMText
10
434.629313157
20
3385.11053383
30
0
40
0.5
41
5.75
71
1
72
5
1
E.P NO: CM/23/17
7
standard
210
0
220
0
230
1
50
180
73
1
44
1
0
SPLINE
5
25C
100
AcDbEntity
8
0
6
ByLayer
62
256
370
-1
100
AcDbSpline
210
0
220
0
230
1
70
8
71
3
72
8
73
4
74
0
42
1e-07
43
1e-07
40
0
40
0
40
0
40
0
40
1
40
1
40
1
40
1
10
434.300198124
20
3384.29824442
30
0
10
434.163883759
20
3384.57305608
30
0
10
434.027569393
20
3384.84786774
30
0
10
433.891255027
20
3385.12267941
30
0
0
MTEXT
5
25D
100
AcDbEntity
8
0
6
ByLayer
62
256
370
-1
100
AcDbMText
10
453.093104126
20
3416.62526583
30
0
40
1
41
7.75
71
1
72
5
1
ROAD 400W
7
standard
210
0
220
0
230
1
50
0
73
1
44
1
0
MTEXT
5
25E
100
AcDbEntity
8
0
6
ByLayer
62
256
370
-1
100
AcDbMText
10
439.622280828
20
3409.78884124
30
0
40
1.5
41
11.625
71
1
72
5
1
ROAD 400W
7
standard
210
0
220
0
230
1
50
-90
73
1
44
1
0
MTEXT
5
25F
100
AcDbEntity
8
0
6
ByLayer
62
256
370
-1
100
AcDbMText
10
445.899421327
20
3445.7315214
30
0
40
1.5
41
11.625
71
1
72
5
1
ROAD 400W
7
standard
210
0
220
0
230
1
50
-90
73
1
44
1
0
LWPOLYLINE
5
260
100
AcDbEntity
8
Ground floor
6
ByLayer
62
256
370
-1
100
AcDbPolyline
90
4
70
1
43
0
10
377.281647637
20
3504.76818523
10
377.481647637
20
3504.76818523
10
377.481647637
20
3505.66818523
10
377.281647637
20
3505.66818523
0
LWPOLYLINE
5
261
100
AcDbEntity
8
Ground floor
6
ByLayer
62
256
370
-1
100
AcDbPolyline
90
4
70
1
43
0
10
377.281647637
20
3508.16818523
10
377.481647637
20
3508.16818523
10
377.481647637
20
3507.36818523
10
377.281647637
20
3507.36818523
0
LWPOLYLINE
5
262
100
AcDbEntity
8
Ground floor
6
ByLayer
62
256
370
-1
100
AcDbPolyline
90
4
70
1
43
0
10
375.881647637
20
3506.16818523
10
375.981647637
20
3506.16818523
10
375.981647637
20
3505.26818523
10
375.881647637
20
3505.26818523
0
LWPOLYLINE
5
263
100
AcDbEntity
8
Ground floor
6
ByLayer
62
256
370
-1
100
AcDbPolyline
90
4
70
1
43
0
10
377.281647637
20
3504.56818523
10
377.481647637
20
3504.56818523
10
377.481647637
20
3503.66818523
10
377.281647637
20
3503.66818523
0
LWPOLYLINE
5
264
100
AcDbEntity
8
Ground floor
6
ByLayer
62
256
370
-1
100
AcDbPolyline
90
4
70
1
43
0
10
377.481647637
20
3501.96818523
10
378.481647637
20
3501.96818523
10
378.481647637
20
3502.16818523
10
377.481647637
20
3502.16818523
0
LWPOLYLINE
5
265
100
AcDbEntity
8
Ground floor
6
ByLayer
62
256
370
-1
100
AcDbPolyline
90
13
70
0
43
0
10
380.481647637
20
3500.56818523
10
372.681647637
20
3500.56818523
10
372.681647637
20
3501.96818523
10
372.481647637
20
3501.96818523
10
372.481647637
20
3507.96818523
10
375.881647637
20
3507.96818523
10
375.881647637
20
3508.36818523
10
380.881647637
20
3508.36818523
10
380.881647637
20
3504.56818523
10
380.681647637
20
3504.56818523
10
380.681647637
20
3501.96818523
10
380.481647637
20
3501.96818523
10
380.481647637
20
3500.56818523
0
LWPOLYLINE
5
266
100
AcDbEntity
8
Ground floor
6
ByLayer
62
256
370
-1
100
AcDbPolyline
90
6
70
1
43
0
10
380.681647637
20
3508.16818523
10
377.481647637
20
3508.16818523
10
377.481647637
20
3507.36818523
10
377.481647637
20
3505.66818523
10
377.481647637
20
3504.76818523
10
380.681647637
20
3504.76818523
0
LWPOLYLINE
5
267
100
AcDbEntity
8
Ground floor
6
ByLayer
62
256
370
-1
100
AcDbPolyline
90
4
70
1
43
0
10
377.281647637
20
3508.16818523
10
375.981647637
20
3508.16818523
10
375.981647637
20
3506.26818523
10
377.281647637
20
3506.26818523
0
LWPOLYLINE
5
268
100
AcDbEntity
8
Ground floor
6
ByLayer
62
256
370
-1
100
AcDbPolyline
90
15
70
1
43
0
10
377.281647637
20
3503.66818523
10
377.281647637
20
3504.56818523
10
377.281647637
20
3504.76818523
10
377.281647637
20
3505.66818523
10
377.281647637
20
3506.16818523
10
375.981647637
20
3506.16818523
10
375.981647637
20
3505.26818523
10
375.981647637
20
3505.16818523
10
375.831647637
20
3505.16818523
10
375.831647637
20
3504.26818523
10
373.581647637
20
3504.26818523
10
373.581647637
20
3503.01818523
10
373.831647637
20
3503.01818523
10
373.831647637
20
3502.16818523
10
377.281647637
20
3502.16818523
0
LWPOLYLINE
5
269
100
AcDbEntity
8
Ground floor
6
ByLayer
62
256
370
-1
100
AcDbPolyline
90
6
70
1
43
0
10
380.481647637
20
3504.56818523
10
377.481647637
20
3504.56818523
10
377.481647637
20
3503.66818523
10
377.481647637
20
3502.16818523
10
378.481647637
20
3502.16818523
10
380.481647637
20
3502.16818523
0
LWPOLYLINE
5
26A
100
AcDbEntity
8
Ground floor
6
ByLayer
62
256
370
-1
100
AcDbPolyline
90
10
70
1
43
0
10
380.431647637
20
3501.96818523
10
378.481647637
20
3501.96818523
10
377.481647637
20
3501.96818523
10
376.931647637
20
3501.96818523
10
376.931647637
20
3500.76818523
10
377.081647637
20
3500.76818523
10
377.081647637
20
3500.56818523
10
380.281647637
20
3500.56818523
10
380.281647637
20
3500.76818523
10
380.431647637
20
3500.76818523
0
LWPOLYLINE
5
26B
100
AcDbEntity
8
Ground floor
6
ByLayer
62
256
370
-1
100
AcDbPolyline
90
7
70
1
43
0
10
376.881647637
20
3501.96818523
10
372.681647637
20
3501.96818523
10
372.681647637
20
3500.76818523
10
372.881647637
20
3500.76818523
10
372.881647637
20
3500.56818523
10
376.881647637
20
3500.56818523
10
376.881647637
20
3500.76818523
0
LWPOLYLINE
5
26C
100
AcDbEntity
8
Ground floor
6
ByLayer
62
256
370
-1
100
AcDbPolyline
90
4
70
1
43
0
10
372.481647637
20
3505.26818523
10
372.681647637
20
3505.26818523
10
372.681647637
20
3506.16818523
10
372.481647637
20
3506.16818523
0
LWPOLYLINE
5
26D
100
AcDbEntity
8
Ground floor
6
ByLayer
62
256
370
-1
100
AcDbPolyline
90
6
70
1
43
0
10
375.881647637
20
3507.76818523
10
372.681647637
20
3507.76818523
10
372.681647637
20
3506.16818523
10
372.681647637
20
3505.26818523
10
375.881647637
20
3505.26818523
10
375.881647637
20
3506.16818523
0
LWPOLYLINE
5
26E
100
AcDbEntity
8
Ground floor
6
ByLayer
62
256
370
-1
100
AcDbPolyline
90
9
70
0
43
0
10
375.831647637
20
3504.26818523
10
375.831647637
20
3505.16818523
10
372.681647637
20
3505.16818523
10
372.681647637
20
3502.16818523
10
373.831647637
20
3502.16818523
10
373.831647637
20
3503.01818523
10
373.581647637
20
3503.01818523
10
373.581647637
20
3504.26818523
10
375.831647637
20
3504.26818523
0
LWPOLYLINE
5
26F
100
AcDbEntity
8
Ground floor
6
ByLayer
62
256
370
-1
100
AcDbPolyline
90
4
70
1
43
0
10
373.981647637
20
3502.16818523
10
375.981647637
20
3502.16818523
10
375.981647637
20
3501.96818523
10
373.981647637
20
3501.96818523
0
LWPOLYLINE
5
270
100
AcDbEntity
8
Ground floor
6
ByLayer
62
256
370
-1
100
AcDbPolyline
90
4
70
1
43
0
10
378.981647637
20
3502.16818523
10
379.981647637
20
3502.16818523
10
379.981647637
20
3501.96818523
10
378.981647637
20
3501.96818523
0
LWPOLYLINE
5
271
100
AcDbEntity
8
Ground floor
6
ByLayer
62
256
370
-1
100
AcDbPolyline
90
4
70
1
43
0
10
380.481647637
20
3504.11818523
10
380.681647637
20
3504.11818523
10
380.681647637
20
3502.61818523
10
380.481647637
20
3502.61818523
0
LWPOLYLINE
5
272
100
AcDbEntity
8
Ground floor
6
ByLayer
62
256
370
-1
100
AcDbPolyline
90
4
70
1
43
0
10
380.681647637
20
3507.21818523
10
380.881647637
20
3507.21818523
10
380.881647637
20
3505.71818523
10
380.681647637
20
3505.71818523
0
LWPOLYLINE
5
273
100
AcDbEntity
8
Ground floor
6
ByLayer
62
256
370
-1
100
AcDbPolyline
90
4
70
1
43
0
10
378.331647637
20
3508.36818523
10
379.831647637
20
3508.36818523
10
379.831647637
20
3508.16818523
10
378.331647637
20
3508.16818523
0
LWPOLYLINE
5
274
100
AcDbEntity
8
Ground floor
6
ByLayer
62
256
370
-1
100
AcDbPolyline
90
4
70
1
43
0
10
376.331647637
20
3508.36818523
10
376.931647637
20
3508.36818523
10
376.931647637
20
3508.16818523
10
376.331647637
20
3508.16818523
0
LWPOLYLINE
5
275
100
AcDbEntity
8
Ground floor
6
ByLayer
62
256
370
-1
100
AcDbPolyline
90
4
70
1
43
0
10
373.531647637
20
3507.96818523
10
375.031647637
20
3507.96818523
10
375.031647637
20
3507.76818523
10
373.531647637
20
3507.76818523
0
LWPOLYLINE
5
276
100
AcDbEntity
8
Ground floor
6
ByLayer
62
256
370
-1
100
AcDbPolyline
90
4
70
1
43
0
10
372.481647637
20
3504.41818523
10
372.681647637
20
3504.41818523
10
372.681647637
20
3502.91818523
10
372.481647637
20
3502.91818523
0
LWPOLYLINE
5
277
100
AcDbEntity
8
First Floor
6
ByLayer
62
256
370
-1
100
AcDbPolyline
90
4
70
1
43
0
10
391.093126419
20
3505.26818523
10
390.193126419
20
3505.26818523
10
390.193126419
20
3505.16818523
10
391.093126419
20
3505.16818523
0
LWPOLYLINE
5
278
100
AcDbEntity
8
First Floor
6
ByLayer
62
256
370
-1
100
AcDbPolyline
90
4
70
1
43
0
10
392.593126419
20
3506.56818523
10
392.393126419
20
3506.56818523
10
392.393126419
20
3507.36818523
10
392.593126419
20
3507.36818523
0
LWPOLYLINE
5
279
100
AcDbEntity
8
First Floor
6
ByLayer
62
256
370
-1
100
AcDbPolyline
90
4
70
1
43
0
10
394.693126419
20
3504.76818523
10
393.893126419
20
3504.76818523
10
393.893126419
20
3504.56818523
10
394.693126419
20
3504.56818523
0
LWPOLYLINE
5
27A
100
AcDbEntity
8
First Floor
6
ByLayer
62
256
370
-1
100
AcDbPolyline
90
4
70
1
43
0
10
391.093126419
20
3504.56818523
10
391.293126419
20
3504.56818523
10
391.293126419
20
3503.66818523
10
391.093126419
20
3503.66818523
0
LWPOLYLINE
5
27B
100
AcDbEntity
8
First Floor
6
ByLayer
62
256
370
-1
100
AcDbPolyline
90
4
70
1
43
0
10
388.743126419
20
3502.16818523
10
389.643126419
20
3502.16818523
10
389.643126419
20
3501.96818523
10
388.743126419
20
3501.96818523
0
LWPOLYLINE
5
27C
100
AcDbEntity
8
First Floor
6
ByLayer
62
256
370
-1
100
AcDbPolyline
90
4
70
1
43
0
10
390.993126419
20
3508.36818523
10
391.993126419
20
3508.36818523
10
391.993126419
20
3508.16818523
10
390.993126419
20
3508.16818523
0
LWPOLYLINE
5
27D
100
AcDbEntity
8
First Floor
6
ByLayer
62
256
370
-1
100
AcDbPolyline
90
4
70
1
43
0
10
387.743126419
20
3507.96818523
10
389.243126419
20
3507.96818523
10
389.243126419
20
3507.76818523
10
387.743126419
20
3507.76818523
0
LWPOLYLINE
5
27E
100
AcDbEntity
8
First Floor
6
ByLayer
62
256
370
-1
100
AcDbPolyline
90
4
70
1
43
0
10
393.443126419
20
3508.36818523
10
394.043126419
20
3508.36818523
10
394.043126419
20
3508.16818523
10
393.443126419
20
3508.16818523
0
LWPOLYLINE
5
27F
100
AcDbEntity
8
First Floor
6
ByLayer
62
256
370
-1
100
AcDbPolyline
90
4
70
1
43
0
10
394.893126419
20
3505.86818523
10
395.093126419
20
3505.86818523
10
395.093126419
20
3505.26818523
10
394.893126419
20
3505.26818523
0
LWPOLYLINE
5
280
100
AcDbEntity
8
First Floor
6
ByLayer
62
256
370
-1
100
AcDbPolyline
90
4
70
1
43
0
10
394.693126419
20
3504.11818523
10
394.893126419
20
3504.11818523
10
394.893126419
20
3502.61818523
10
394.693126419
20
3502.61818523
0
LWPOLYLINE
5
281
100
AcDbEntity
8
First Floor
6
ByLayer
62
256
370
-1
100
AcDbPolyline
90
4
70
1
43
0
10
392.228529819
20
3500.76818523
10
393.728529819
20
3500.76818523
10
393.728529819
20
3500.56818523
10
392.228529819
20
3500.56818523
0
LWPOLYLINE
5
282
100
AcDbEntity
8
First Floor
6
ByLayer
62
256
370
-1
100
AcDbPolyline
90
4
70
1
43
0
10
386.943126419
20
3502.16818523
10
387.943126419
20
3502.16818523
10
387.943126419
20
3501.96818523
10
386.943126419
20
3501.96818523
0
LWPOLYLINE
5
283
100
AcDbEntity
8
First Floor
6
ByLayer
62
256
370
-1
100
AcDbPolyline
90
4
70
1
43
0
10
386.693126419
20
3504.41818523
10
386.893126419
20
3504.41818523
10
386.893126419
20
3502.91818523
10
386.693126419
20
3502.91818523
0
LWPOLYLINE
5
284
100
AcDbEntity
8
First Floor
6
ByLayer
62
256
370
-1
100
AcDbPolyline
90
13
70
0
43
0
10
386.693126419
20
3507.96818523
10
390.093126419
20
3507.96818523
10
390.093126419
20
3508.36818523
10
395.093126419
20
3508.36818523
10
395.093126419
20
3504.56818523
10
394.893126419
20
3504.56818523
10
394.893126419
20
3501.96818523
10
394.693126419
20
3501.96818523
10
394.693126419
20
3500.56818523
10
386.893126419
20
3500.56818523
10
386.893126419
20
3501.96818523
10
386.693126419
20
3501.96818523
10
386.693126419
20
3507.96818523
0
LWPOLYLINE
5
285
100
AcDbEntity
8
First Floor
6
ByLayer
62
256
370
-1
100
AcDbPolyline
90
17
70
1
43
0
10
392.393126419
20
3507.36818523
10
392.393126419
20
3508.16818523
10
391.693126419
20
3508.16818523
10
390.993126419
20
3508.16818523
10
390.193126419
20
3508.16818523
10
390.193126419
20
3507.76818523
10
390.093126419
20
3507.76818523
10
386.893126419
20
3507.76818523
10
386.893126419
20
3505.26818523
10
390.093126419
20
3505.26818523
10
390.193126419
20
3505.26818523
10
391.093126419
20
3505.26818523
10
391.293126419
20
3505.26818523
10
391.293126419
20
3504.76818523
10
391.693126419
20
3504.76818523
10
392.393126419
20
3504.76818523
10
392.393126419
20
3506.56818523
0
LWPOLYLINE
5
286
100
AcDbEntity
8
First Floor
6
ByLayer
62
256
370
-1
100
AcDbPolyline
90
4
70
1
43
0
10
394.893126419
20
3508.16818523
10
392.593126419
20
3508.16818523
10
392.593126419
20
3506.56818523
10
394.893126419
20
3506.56818523
0
LWPOLYLINE
5
287
100
AcDbEntity
8
First Floor
6
ByLayer
62
256
370
-1
100
AcDbPolyline
90
4
70
1
43
0
10
394.893126419
20
3506.36818523
10
392.593126419
20
3506.36818523
10
392.593126419
20
3504.76818523
10
394.893126419
20
3504.76818523
0
LWPOLYLINE
5
288
100
AcDbEntity
8
First Floor
6
ByLayer
62
256
370
-1
100
AcDbPolyline
90
10
70
1
43
0
10
394.693126419
20
3504.56818523
10
393.893126419
20
3504.56818523
10
391.693126419
20
3504.56818523
10
391.293126419
20
3504.56818523
10
391.293126419
20
3503.66818523
10
391.293126419
20
3501.96818523
10
391.293126419
20
3500.76818523
10
394.493126419
20
3500.76818523
10
394.493126419
20
3502.16818523
10
394.693126419
20
3502.16818523
0
LWPOLYLINE
5
289
100
AcDbEntity
8
First Floor
6
ByLayer
62
256
370
-1
100
AcDbPolyline
90
13
70
1
43
0
10
391.093126419
20
3503.66818523
10
391.093126419
20
3504.56818523
10
391.093126419
20
3505.16818523
10
390.193126419
20
3505.16818523
10
390.043126419
20
3505.16818523
10
390.043126419
20
3504.26818523
10
387.793126419
20
3504.26818523
10
387.793126419
20
3503.01818523
10
388.043126419
20
3503.01818523
10
388.043126419
20
3502.16818523
10
388.743126419
20
3502.16818523
10
389.643126419
20
3502.16818523
10
391.093126419
20
3502.16818523
0
LWPOLYLINE
5
28A
100
AcDbEntity
8
First Floor
6
ByLayer
62
256
370
-1
100
AcDbPolyline
90
9
70
1
43
0
10
391.093126419
20
3501.96818523
10
389.643126419
20
3501.96818523
10
388.743126419
20
3501.96818523
10
386.943126419
20
3501.96818523
10
386.943126419
20
3500.76818523
10
387.093126419
20
3500.76818523
10
387.093126419
20
3500.61818523
10
391.093126419
20
3500.61818523
10
391.093126419
20
3500.76818523
0
LWPOLYLINE
5
28B
100
AcDbEntity
8
First Floor
6
ByLayer
62
256
370
-1
100
AcDbPolyline
90
9
70
0
43
0
10
390.043126419
20
3504.26818523
10
390.043126419
20
3505.16818523
10
386.893126419
20
3505.16818523
10
386.893126419
20
3502.16818523
10
388.043126419
20
3502.16818523
10
388.043126419
20
3503.01818523
10
387.793126419
20
3503.01818523
10
387.793126419
20
3504.26818523
10
390.043126419
20
3504.26818523
0
LWPOLYLINE
5
28C
100
AcDbEntity
8
Second Floor
6
ByLayer
62
256
370
-1
100
AcDbPolyline
90
4
70
1
43
0
10
405.970661205
20
3504.03432321
10
406.170661205
20
3504.03432321
10
406.170661205
20
3503.13432321
10
405.970661205
20
3503.13432321
0
LINE
5
28D
100
AcDbEntity
8
0
6
ByLayer
62
103
370
-1
100
AcDbLine
10
408.032735317
20
3381.89170204
11
408.032735317
21
3381.89170204
0
LWPOLYLINE
5
28E
100
AcDbEntity
8
Plot boundary
6
ByLayer
62
256
370
-1
100
AcDbPolyline
90
7
70
0
43
0
10
418.012537196
20
3375.13086166
10
419.013213785
20
3386.56716553
10
414.289126791
20
3387.43334806
10
407.691076947
20
3386.26898632
10
408.571174928
20
3374.99328113
10
409.652524469
20
3375.13086166
10
418.012537196
20
3375.13086166
0
LWPOLYLINE
5
28F
100
AcDbEntity
8
Building foot print
6
ByLayer
62
256
370
-1
100
AcDbPolyline
90
13
70
0
43
0
10
417.175037196
20
3378.13086166
10
409.375037196
20
3378.13086166
10
409.375037196
20
3379.53086166
10
409.175037196
20
3379.53086166
10
409.175037196
20
3385.53086166
10
412.575037196
20
3385.53086166
10
412.575037196
20
3385.93086166
10
417.575037196
20
3385.93086166
10
417.575037196
20
3382.13086166
10
417.375037196
20
3382.13086166
10
417.375037196
20
3379.53086166
10
417.175037196
20
3379.53086166
10
417.175037196
20
3378.13086166
0
LINE
5
290
100
AcDbEntity
8
First Floor
6
ByLayer
62
256
370
-1
100
AcDbLine
10
389.793126419
20
3505.16818523
11
389.793126419
21
3504.26818523
0
LWPOLYLINE
5
291
100
AcDbEntity
8
Second Floor
6
ByLayer
62
256
370
-1
100
AcDbPolyline
90
9
70
0
43
0
10
404.920661205
20
3504.26818523
10
404.920661205
20
3505.16818523
10
401.770661205
20
3505.16818523
10
401.770661205
20
3502.16818523
10
402.920661205
20
3502.16818523
10
402.920661205
20
3503.01818523
10
402.670661205
20
3503.01818523
10
402.670661205
20
3504.26818523
10
404.920661205
20
3504.26818523
0
LWPOLYLINE
5
292
100
AcDbEntity
8
Second Floor
6
ByLayer
62
256
370
-1
100
AcDbPolyline
90
5
70
0
43
0
10
401.570661205
20
3505.26818523
10
406.170661205
20
3505.26818523
10
406.170661205
20
3501.96818523
10
401.570661205
20
3501.96818523
10
401.570661205
20
3505.26818523
0
LWPOLYLINE
5
293
100
AcDbEntity
8
Second Floor
6
ByLayer
62
256
370
-1
100
AcDbPolyline
90
12
70
1
43
0
10
405.970661205
20
3503.66818523
10
405.970661205
20
3504.03432321
10
405.970661205
20
3504.56818523
10
405.970661205
20
3505.16818523
10
404.920661205
20
3505.16818523
10
404.920661205
20
3504.26818523
10
402.670661205
20
3504.26818523
10
402.670661205
20
3503.01818523
10
402.920661205
20
3503.01818523
10
402.920661205
20
3502.16818523
10
404.520661205
20
3502.16818523
10
405.970661205
20
3502.16818523
0
LWPOLYLINE
5
294
100
AcDbEntity
8
Second Floor
6
ByLayer
62
256
370
-1
100
AcDbPolyline
90
4
70
1
43
0
10
401.570661205
20
3504.41818523
10
401.770661205
20
3504.41818523
10
401.770661205
20
3502.91818523
10
401.570661205
20
3502.91818523
0
LWPOLYLINE
5
295
100
AcDbEntity
8
Waste disposal
6
ByLayer
62
256
370
-1
100
AcDbPolyline
90
4
70
1
43
0
10
416.387561475
20
3376.56648107
10
415.731007796
20
3376.56648107
10
415.731007796
20
3377.86547545
10
416.387561475
20
3377.86547545
0
LWPOLYLINE
5
296
100
AcDbEntity
8
0
6
ByLayer
62
7
370
-1
100
AcDbPolyline
90
4
70
1
43
0
10
358.997312557
20
3536.31307152
10
421.649082723
20
3536.31307152
10
421.649082723
20
3489.59708137
10
358.997312557
20
3489.59708137
0
LINE
5
297
100
AcDbEntity
8
0
6
ByLayer
62
256
370
-1
100
AcDbLine
10
373.081578859
20
3519.41316231
11
373.081578859
21
3522.31196231
0
LINE
5
298
100
AcDbEntity
8
0
6
ByLayer
62
256
370
-1
100
AcDbLine
10
373.081578859
20
3522.41196231
11
373.081578859
21
3525.30956231
0
LINE
5
299
100
AcDbEntity
8
0
6
ByLayer
62
256
370
-1
100
AcDbLine
10
376.481578859
20
3519.41316231
11
376.481578859
21
3522.31196231
0
LINE
5
29A
100
AcDbEntity
8
0
6
ByLayer
62
256
370
-1
100
AcDbLine
10
381.081578859
20
3519.41316231
11
381.081578859
21
3522.31196231
0
LINE
5
29B
100
AcDbEntity
8
0
6
ByLayer
62
256
370
-1
100
AcDbLine
10
381.081578859
20
3522.41196231
11
381.081578859
21
3527.90956231
0
LINE
5
29C
100
AcDbEntity
8
0
6
ByLayer
62
256
370
-1
100
AcDbLine
10
381.281578859
20
3519.41316231
11
381.281578859
21
3522.31196231
0
LINE
5
29D
100
AcDbEntity
8
0
6
ByLayer
62
256
370
-1
100
AcDbLine
10
381.281578859
20
3522.41196231
11
381.281578859
21
3525.30956231
0
LINE
5
29E
100
AcDbEntity
8
0
6
ByLayer
62
256
370
-1
100
AcDbLine
10
381.281578859
20
3525.40956231
11
381.281578859
21
3527.90956231
0
LINE
5
29F
100
AcDbEntity
8
0
6
ByLayer
62
256
370
-1
100
AcDbLine
10
370.343628667
20
3518.96316231
11
383.800792444
21
3518.96316231
0
LINE
5
2A0
100
AcDbEntity
8
0
6
ByLayer
62
256
370
-1
100
AcDbLine
10
372.756578859
20
3519.41316231
11
378.111906369
21
3519.41316231
0
LINE
5
2A1
100
AcDbEntity
8
0
6
ByLayer
62
256
370
-1
100
AcDbLine
10
378.111906369
20
3519.41316231
11
381.406578859
21
3519.41316231
0
LINE
5
2A2
100
AcDbEntity
8
0
6
ByLayer
62
256
370
-1
100
AcDbLine
10
377.931578859
20
3522.41196231
11
377.931578859
21
3522.57856231
0
LINE
5
2A3
100
AcDbEntity
8
0
6
ByLayer
62
256
370
-1
100
AcDbLine
10
378.181578859
20
3519.57976231
11
378.181578859
21
3519.74636231
0
LINE
5
2A4
100
AcDbEntity
8
0
6
ByLayer
62
256
370
-1
100
AcDbLine
10
378.181578859
20
3522.57856231
11
378.181578859
21
3522.74516231
0
LINE
5
2A5
100
AcDbEntity
8
0
6
ByLayer
62
256
370
-1
100
AcDbLine
10
378.431578859
20
3519.74636231
11
378.431578859
21
3519.91296231
0
LINE
5
2A6
100
AcDbEntity
8
0
6
ByLayer
62
256
370
-1
100
AcDbLine
10
378.431578859
20
3522.74516231
11
378.431578859
21
3522.91176231
0
LINE
5
2A7
100
AcDbEntity
8
0
6
ByLayer
62
256
370
-1
100
AcDbLine
10
378.681578859
20
3519.91296231
11
378.681578859
21
3520.07956231
0
LINE
5
2A8
100
AcDbEntity
8
0
6
ByLayer
62
256
370
-1
100
AcDbLine
10
378.681578859
20
3522.91176231
11
378.681578859
21
3523.07836231
0
LINE
5
2A9
100
AcDbEntity
8
0
6
ByLayer
62
256
370
-1
100
AcDbLine
10
378.931578859
20
3520.07956231
11
378.931578859
21
3520.24616231
0
LINE
5
2AA
100
AcDbEntity
8
0
6
ByLayer
62
256
370
-1
100
AcDbLine
10
378.931578859
20
3523.07836231
11
378.931578859
21
3523.24496231
0
LINE
5
2AB
100
AcDbEntity
8
0
6
ByLayer
62
256
370
-1
100
AcDbLine
10
379.181578859
20
3520.24616231
11
379.181578859
21
3520.41276231
0
LINE
5
2AC
100
AcDbEntity
8
0
6
ByLayer
62
256
370
-1
100
AcDbLine
10
379.181578859
20
3523.24496231
11
379.181578859
21
3523.41156231
0
LINE
5
2AD
100
AcDbEntity
8
0
6
ByLayer
62
256
370
-1
100
AcDbLine
10
379.431578859
20
3520.41276231
11
379.431578859
21
3520.57936231
0
LINE
5
2AE
100
AcDbEntity
8
0
6
ByLayer
62
256
370
-1
100
AcDbLine
10
379.431578859
20
3523.41156231
11
379.431578859
21
3523.57816231
0
LINE
5
2AF
100
AcDbEntity
8
0
6
ByLayer
62
256
370
-1
100
AcDbLine
10
379.681578859
20
3520.57936231
11
379.681578859
21
3520.74596231
0
LINE
5
2B0
100
AcDbEntity
8
0
6
ByLayer
62
256
370
-1
100
AcDbLine
10
379.681578859
20
3525.40956231
11
379.681578859
21
3528.30716231
0
LINE
5
2B1
100
AcDbEntity
8
0
6
ByLayer
62
256
370
-1
100
AcDbLine
10
379.931578859
20
3520.74596231
11
379.931578859
21
3520.91256231
0
LINE
5
2B2
100
AcDbEntity
8
0
6
ByLayer
62
256
370
-1
100
AcDbLine
10
379.931578859
20
3522.24536231
11
379.931578859
21
3522.41196231
0
LINE
5
2B3
100
AcDbEntity
8
0
6
ByLayer
62
192
370
-1
100
AcDbLine
10
380.181578859
20
3520.91256231
11
380.181578859
21
3521.91252231
0
LINE
5
2B4
100
AcDbEntity
8
0
6
ByLayer
62
192
370
-1
100
AcDbLine
10
380.181578859
20
3521.94584231
11
380.181578859
21
3522.24536231
0
LINE
5
2B5
100
AcDbEntity
8
0
6
ByLayer
62
192
370
-1
100
AcDbLine
10
380.181578859
20
3523.91136231
11
380.181578859
21
3525.24356231
0
LINE
5
2B6
100
AcDbEntity
8
0
6
ByLayer
62
192
370
-1
100
AcDbLine
10
377.931578859
20
3519.41316231
11
377.931578859
21
3519.57976231
0
LINE
5
2B7
100
AcDbEntity
8
0
6
ByLayer
62
190
370
-1
100
AcDbLine
10
377.931578859
20
3519.57976231
11
378.181578859
21
3519.57976231
0
LINE
5
2B8
100
AcDbEntity
8
0
6
ByLayer
62
192
370
-1
100
AcDbLine
10
378.181578859
20
3519.57976231
11
378.181578859
21
3519.74636231
0
LINE
5
2B9
100
AcDbEntity
8
0
6
ByLayer
62
190
370
-1
100
AcDbLine
10
378.181578859
20
3519.74636231
11
378.431578859
21
3519.74636231
0
LINE
5
2BA
100
AcDbEntity
8
0
6
ByLayer
62
192
370
-1
100
AcDbLine
10
378.431578859
20
3519.74636231
11
378.431578859
21
3519.91296231
0
LINE
5
2BB
100
AcDbEntity
8
0
6
ByLayer
62
190
370
-1
100
AcDbLine
10
378.431578859
20
3519.91296231
11
378.681578859
21
3519.91296231
0
LINE
5
2BC
100
AcDbEntity
8
0
6
ByLayer
62
192
370
-1
100
AcDbLine
10
378.681578859
20
3519.91296231
11
378.681578859
21
3520.07956231
0
LINE
5
2BD
100
AcDbEntity
8
0
6
ByLayer
62
190
370
-1
100
AcDbLine
10
378.681578859
20
3520.07956231
11
378.931578859
21
3520.07956231
0
LINE
5
2BE
100
AcDbEntity
8
0
6
ByLayer
62
192
370
-1
100
AcDbLine
10
378.931578859
20
3520.07956231
11
378.931578859
21
3520.24616231
0
LINE
5
2BF
100
AcDbEntity
8
0
6
ByLayer
62
190
370
-1
100
AcDbLine
10
378.931578859
20
3520.24616231
11
379.181578859
21
3520.24616231
0
LINE
5
2C0
100
AcDbEntity
8
0
6
ByLayer
62
192
370
-1
100
AcDbLine
10
379.181578859
20
3520.24616231
11
379.181578859
21
3520.41276231
0
LINE
5
2C1
100
AcDbEntity
8
0
6
ByLayer
62
190
370
-1
100
AcDbLine
10
379.181578859
20
3520.41276231
11
379.431578859
21
3520.41276231
0
LINE
5
2C2
100
AcDbEntity
8
0
6
ByLayer
62
192
370
-1
100
AcDbLine
10
379.431578859
20
3520.41276231
11
379.431578859
21
3520.57936231
0
LINE
5
2C3
100
AcDbEntity
8
0
6
ByLayer
62
190
370
-1
100
AcDbLine
10
379.431578859
20
3520.57936231
11
379.681578859
21
3520.57936231
0
LINE
5
2C4
100
AcDbEntity
8
0
6
ByLayer
62
192
370
-1
100
AcDbLine
10
379.681578859
20
3520.57936231
11
379.681578859
21
3520.74596231
0
LINE
5
2C5
100
AcDbEntity
8
0
6
ByLayer
62
190
370
-1
100
AcDbLine
10
379.681578859
20
3520.74596231
11
379.931578859
21
3520.74596231
0
LINE
5
2C6
100
AcDbEntity
8
0
6
ByLayer
62
192
370
-1
100
AcDbLine
10
379.931578859
20
3520.74596231
11
379.931578859
21
3520.91256231
0
LINE
5
2C7
100
AcDbEntity
8
0
6
ByLayer
62
190
370
-1
100
AcDbLine
10
379.931578859
20
3520.91256231
11
380.181578859
21
3520.91256231
0
LINE
5
2C8
100
AcDbEntity
8
0
6
ByLayer
62
192
370
-1
100
AcDbLine
10
380.181578859
20
3520.91256231
11
380.181578859
21
3521.07916231
0
LINE
5
2C9
100
AcDbEntity
8
0
6
ByLayer
62
190
370
-1
100
AcDbLine
10
380.181578859
20
3521.07916231
11
380.431578859
21
3521.07916231
0
LINE
5
2CA
100
AcDbEntity
8
0
6
ByLayer
62
190
370
-1
100
AcDbLine
10
380.181578859
20
3521.24576231
11
380.231578859
21
3521.24576231
0
LINE
5
2CB
100
AcDbEntity
8
0
6
ByLayer
62
190
370
-1
100
AcDbLine
10
380.281578859
20
3521.24576231
11
380.431578859
21
3521.24576231
0
LINE
5
2CC
100
AcDbEntity
8
0
6
ByLayer
62
190
370
-1
100
AcDbLine
10
380.181578859
20
3521.41236231
11
380.231578859
21
3521.41236231
0
LINE
5
2CD
100
AcDbEntity
8
0
6
ByLayer
62
190
370
-1
100
AcDbLine
10
380.281578859
20
3521.41236231
11
380.431578859
21
3521.41236231
0
LINE
5
2CE
100
AcDbEntity
8
0
6
ByLayer
62
190
370
-1
100
AcDbLine
10
380.181578859
20
3521.57896231
11
380.231578859
21
3521.57896231
0
LINE
5
2CF
100
AcDbEntity
8
0
6
ByLayer
62
190
370
-1
100
AcDbLine
10
380.281578859
20
3521.57896231
11
380.431578859
21
3521.57896231
0
LINE
5
2D0
100
AcDbEntity
8
0
6
ByLayer
62
190
370
-1
100
AcDbLine
10
380.181578859
20
3521.74556231
11
380.231578859
21
3521.74556231
0
LINE
5
2D1
100
AcDbEntity
8
0
6
ByLayer
62
190
370
-1
100
AcDbLine
10
380.281578859
20
3521.74556231
11
380.431578859
21
3521.74556231
0
LINE
5
2D2
100
AcDbEntity
8
0
6
ByLayer
62
190
370
-1
100
AcDbLine
10
380.431578859
20
3521.07916231
11
381.081578859
21
3521.07916231
0
LINE
5
2D3
100
AcDbEntity
8
0
6
ByLayer
62
256
370
-1
100
AcDbLine
10
380.461846345
20
3520.97916231
11
381.081578859
21
3520.97916231
0
LINE
5
2D4
100
AcDbEntity
8
0
6
ByLayer
62
190
370
-1
100
AcDbLine
10
380.431578859
20
3521.24576231
11
381.081578859
21
3521.24576231
0
LINE
5
2D5
100
AcDbEntity
8
0
6
ByLayer
62
190
370
-1
100
AcDbLine
10
380.431578859
20
3521.41236231
11
381.081578859
21
3521.41236231
0
LINE
5
2D6
100
AcDbEntity
8
0
6
ByLayer
62
190
370
-1
100
AcDbLine
10
380.431578859
20
3521.57896231
11
381.081578859
21
3521.57896231
0
LINE
5
2D7
100
AcDbEntity
8
0
6
ByLayer
62
190
370
-1
100
AcDbLine
10
380.431578859
20
3521.74556231
11
381.081578859
21
3521.74556231
0
LINE
5
2D8
100
AcDbEntity
8
0
6
ByLayer
62
190
370
-1
100
AcDbLine
10
380.181578859
20
3521.91216231
11
380.231578859
21
3521.91216231
0
LINE
5
2D9
100
AcDbEntity
8
0
6
ByLayer
62
190
370
-1
100
AcDbLine
10
380.281578859
20
3521.91216231
11
381.081578859
21
3521.91216231
0
LINE
5
2DA
100
AcDbEntity
8
0
6
ByLayer
62
190
370
-1
100
AcDbLine
10
380.181578859
20
3522.07876231
11
380.231578859
21
3522.07876231
0
LINE
5
2DB
100
AcDbEntity
8
0
6
ByLayer
62
190
370
-1
100
AcDbLine
10
380.281578859
20
3522.07876231
11
381.081578859
21
3522.07876231
0
LINE
5
2DC
100
AcDbEntity
8
0
6
ByLayer
62
192
370
-1
100
AcDbLine
10
380.181578859
20
3522.07876231
11
380.181578859
21
3522.24536231
0
LINE
5
2DD
100
AcDbEntity
8
0
6
ByLayer
62
190
370
-1
100
AcDbLine
10
380.181578859
20
3522.24536231
11
379.931578859
21
3522.24536231
0
LINE
5
2DE
100
AcDbEntity
8
0
6
ByLayer
62
192
370
-1
100
AcDbLine
10
379.931578859
20
3522.24536231
11
379.931578859
21
3522.41196231
0
LINE
5
2DF
100
AcDbEntity
8
0
6
ByLayer
62
256
370
-1
100
AcDbLine
10
381.281578859
20
3522.41196231
11
381.081578859
21
3522.41196231
0
LINE
5
2E0
100
AcDbEntity
8
0
6
ByLayer
62
256
370
-1
100
AcDbLine
10
379.931578859
20
3522.41196231
11
373.081578859
21
3522.41196231
0
LINE
5
2E1
100
AcDbEntity
8
0
6
ByLayer
62
256
370
-1
100
AcDbLine
10
381.281578859
20
3524.51196231
11
381.081578859
21
3524.51196231
0
LINE
5
2E2
100
AcDbEntity
8
0
6
ByLayer
62
256
370
-1
100
AcDbLine
10
379.231578859
20
3524.51196231
11
378.331578859
21
3524.51196231
0
LINE
5
2E3
100
AcDbEntity
8
0
6
ByLayer
62
256
370
-1
100
AcDbLine
10
376.881578859
20
3524.51196231
11
376.681578859
21
3524.51196231
0
LINE
5
2E4
100
AcDbEntity
8
0
6
ByLayer
62
256
370
-1
100
AcDbLine
10
375.581578859
20
3524.51196231
11
375.381578859
21
3524.51196231
0
LINE
5
2E5
100
AcDbEntity
8
0
6
ByLayer
62
256
370
-1
100
AcDbLine
10
381.281578859
20
3522.31196231
11
381.081578859
21
3522.31196231
0
LINE
5
2E6
100
AcDbEntity
8
0
6
ByLayer
62
256
370
-1
100
AcDbLine
10
379.931578859
20
3522.31196231
11
373.081578859
21
3522.31196231
0
LINE
5
2E7
100
AcDbEntity
8
0
6
ByLayer
62
192
370
-1
100
AcDbLine
10
377.931578859
20
3522.41196231
11
377.931578859
21
3522.57856231
0
LINE
5
2E8
100
AcDbEntity
8
0
6
ByLayer
62
190
370
-1
100
AcDbLine
10
377.931578859
20
3522.57856231
11
378.181578859
21
3522.57856231
0
LINE
5
2E9
100
AcDbEntity
8
0
6
ByLayer
62
192
370
-1
100
AcDbLine
10
378.181578859
20
3522.57856231
11
378.181578859
21
3522.74516231
0
LINE
5
2EA
100
AcDbEntity
8
0
6
ByLayer
62
190
370
-1
100
AcDbLine
10
378.181578859
20
3522.74516231
11
378.431578859
21
3522.74516231
0
LINE
5
2EB
100
AcDbEntity
8
0
6
ByLayer
62
192
370
-1
100
AcDbLine
10
378.431578859
20
3522.74516231
11
378.431578859
21
3522.91176231
0
LINE
5
2EC
100
AcDbEntity
8
0
6
ByLayer
62
190
370
-1
100
AcDbLine
10
378.431578859
20
3522.91176231
11
378.681578859
21
3522.91176231
0
LINE
5
2ED
100
AcDbEntity
8
0
6
ByLayer
62
192
370
-1
100
AcDbLine
10
378.681578859
20
3522.91176231
11
378.681578859
21
3523.07836231
0
LINE
5
2EE
100
AcDbEntity
8
0
6
ByLayer
62
190
370
-1
100
AcDbLine
10
378.681578859
20
3523.07836231
11
378.931578859
21
3523.07836231
0
LINE
5
2EF
100
AcDbEntity
8
0
6
ByLayer
62
192
370
-1
100
AcDbLine
10
378.931578859
20
3523.07836231
11
378.931578859
21
3523.24496231
0
LINE
5
2F0
100
AcDbEntity
8
0
6
ByLayer
62
190
370
-1
100
AcDbLine
10
378.931578859
20
3523.24496231
11
379.181578859
21
3523.24496231
0
LINE
5
2F1
100
AcDbEntity
8
0
6
ByLayer
62
192
370
-1
100
AcDbLine
10
379.181578859
20
3523.24496231
11
379.181578859
21
3523.41156231
0
LINE
5
2F2
100
AcDbEntity
8
0
6
ByLayer
62
190
370
-1
100
AcDbLine
10
379.181578859
20
3523.41156231
11
379.431578859
21
3523.41156231
0
LINE
5
2F3
100
AcDbEntity
8
0
6
ByLayer
62
192
370
-1
100
AcDbLine
10
379.431578859
20
3523.41156231
11
379.431578859
21
3523.57816231
0
LINE
5
2F4
100
AcDbEntity
8
0
6
ByLayer
62
190
370
-1
100
AcDbLine
10
379.431578859
20
3523.57816231
11
379.681578859
21
3523.57816231
0
LINE
5
2F5
100
AcDbEntity
8
0
6
ByLayer
62
192
370
-1
100
AcDbLine
10
379.681578859
20
3523.57816231
11
379.681578859
21
3523.74476231
0
LINE
5
2F6
100
AcDbEntity
8
0
6
ByLayer
62
190
370
-1
100
AcDbLine
10
379.681578859
20
3523.74476231
11
379.931578859
21
3523.74476231
0
LINE
5
2F7
100
AcDbEntity
8
0
6
ByLayer
62
192
370
-1
100
AcDbLine
10
379.931578859
20
3523.74476231
11
379.931578859
21
3523.91136231
0
LINE
5
2F8
100
AcDbEntity
8
0
6
ByLayer
62
190
370
-1
100
AcDbLine
10
379.931578859
20
3523.91136231
11
380.181578859
21
3523.91136231
0
LINE
5
2F9
100
AcDbEntity
8
0
6
ByLayer
62
192
370
-1
100
AcDbLine
10
380.181578859
20
3523.91136231
11
380.181578859
21
3524.07796231
0
LINE
5
2FA
100
AcDbEntity
8
0
6
ByLayer
62
190
370
-1
100
AcDbLine
10
380.031578859
20
3524.07796231
11
381.081578859
21
3524.07796231
0
LINE
5
2FB
100
AcDbEntity
8
0
6
ByLayer
62
190
370
-1
100
AcDbLine
10
380.181578859
20
3524.24456231
11
380.231578859
21
3524.24456231
0
LINE
5
2FC
100
AcDbEntity
8
0
6
ByLayer
62
190
370
-1
100
AcDbLine
10
380.281578859
20
3524.24456231
11
381.081578859
21
3524.24456231
0
LINE
5
2FD
100
AcDbEntity
8
0
6
ByLayer
62
190
370
-1
100
AcDbLine
10
380.181578859
20
3524.41116231
11
380.231578859
21
3524.41116231
0
LINE
5
2FE
100
AcDbEntity
8
0
6
ByLayer
62
190
370
-1
100
AcDbLine
10
380.281578859
20
3524.41116231
11
381.081578859
21
3524.41116231
0
LINE
5
2FF
100
AcDbEntity
8
0
6
ByLayer
62
190
370
-1
100
AcDbLine
10
380.181578859
20
3524.57776231
11
380.231578859
21
3524.57776231
0
LINE
5
300
100
AcDbEntity
8
0
6
ByLayer
62
190
370
-1
100
AcDbLine
10
380.281578859
20
3524.57776231
11
381.081578859
21
3524.57776231
0
LINE
5
301
100
AcDbEntity
8
0
6
ByLayer
62
190
370
-1
100
AcDbLine
10
380.181578859
20
3524.74436231
11
380.231578859
21
3524.74436231
0
LINE
5
302
100
AcDbEntity
8
0
6
ByLayer
62
190
370
-1
100
AcDbLine
10
380.281578859
20
3524.74436231
11
381.081578859
21
3524.74436231
0
LINE
5
303
100
AcDbEntity
8
0
6
ByLayer
62
190
370
-1
100
AcDbLine
10
380.181578859
20
3524.91096231
11
380.231578859
21
3524.91096231
0
LINE
5
304
100
AcDbEntity
8
0
6
ByLayer
62
190
370
-1
100
AcDbLine
10
380.281578859
20
3524.91096231
11
381.081578859
21
3524.91096231
0
LINE
5
305
100
AcDbEntity
8
0
6
ByLayer
62
190
370
-1
100
AcDbLine
10
380.181578859
20
3525.07756231
11
380.231578859
21
3525.07756231
0
LINE
5
306
100
AcDbEntity
8
0
6
ByLayer
62
190
370
-1
100
AcDbLine
10
380.281578859
20
3525.07756231
11
381.081578859
21
3525.07756231
0
LINE
5
307
100
AcDbEntity
8
0
6
ByLayer
62
192
370
-1
100
AcDbLine
10
380.181578859
20
3525.07756231
11
380.181578859
21
3525.24356231
0
LINE
5
308
100
AcDbEntity
8
0
6
ByLayer
62
190
370
-1
100
AcDbLine
10
380.181578859
20
3525.24356231
11
379.931578859
21
3525.24356231
0
LINE
5
309
100
AcDbEntity
8
0
6
ByLayer
62
192
370
-1
100
AcDbLine
10
379.931578859
20
3525.24356231
11
379.931578859
21
3525.40956231
0
LINE
5
30A
100
AcDbEntity
8
0
6
ByLayer
62
256
370
-1
100
AcDbLine
10
381.281578859
20
3525.40956231
11
381.081578859
21
3525.40956231
0
LINE
5
30B
100
AcDbEntity
8
0
6
ByLayer
62
256
370
-1
100
AcDbLine
10
379.931578859
20
3525.40956231
11
373.081578859
21
3525.40956231
0
LINE
5
30C
100
AcDbEntity
8
0
6
ByLayer
62
256
370
-1
100
AcDbLine
10
381.281578859
20
3530.90716231
11
376.681578859
21
3530.90716231
0
LINE
5
30D
100
AcDbEntity
8
0
6
ByLayer
62
256
370
-1
100
AcDbLine
10
381.281578859
20
3531.00716231
11
376.681578859
21
3531.00716231
0
LINE
5
30E
100
AcDbEntity
8
0
6
ByLayer
62
256
370
-1
100
AcDbLine
10
381.281578859
20
3525.30956231
11
381.081578859
21
3525.30956231
0
LINE
5
30F
100
AcDbEntity
8
0
6
ByLayer
62
256
370
-1
100
AcDbLine
10
379.931578859
20
3525.30956231
11
373.081578859
21
3525.30956231
0
LINE
5
310
100
AcDbEntity
8
0
6
ByLayer
62
193
370
-1
100
AcDbLine
10
377.981578859
20
3519.57976231
11
377.981578859
21
3520.47976231
0
LINE
5
311
100
AcDbEntity
8
0
6
ByLayer
62
193
370
-1
100
AcDbLine
10
377.981578859
20
3520.47976231
11
378.031578859
21
3520.47976231
0
LINE
5
312
100
AcDbEntity
8
0
6
ByLayer
62
193
370
-1
100
AcDbLine
10
378.031578859
20
3520.47976231
11
378.031578859
21
3519.57976231
0
LINE
5
313
100
AcDbEntity
8
0
6
ByLayer
62
193
370
-1
100
AcDbLine
10
378.231578859
20
3519.74636231
11
378.231578859
21
3520.61304231
0
LINE
5
314
100
AcDbEntity
8
0
6
ByLayer
62
193
370
-1
100
AcDbLine
10
378.281578859
20
3520.64636231
11
378.281578859
21
3519.74636231
0
LINE
5
315
100
AcDbEntity
8
0
6
ByLayer
62
193
370
-1
100
AcDbLine
10
378.481578859
20
3519.91296231
11
378.481578859
21
3520.77964231
0
LINE
5
316
100
AcDbEntity
8
0
6
ByLayer
62
193
370
-1
100
AcDbLine
10
378.531578859
20
3520.81296231
11
378.531578859
21
3519.91296231
0
LINE
5
317
100
AcDbEntity
8
0
6
ByLayer
62
193
370
-1
100
AcDbLine
10
378.731578859
20
3520.07956231
11
378.731578859
21
3520.94624231
0
LINE
5
318
100
AcDbEntity
8
0
6
ByLayer
62
193
370
-1
100
AcDbLine
10
378.781578859
20
3520.97956231
11
378.781578859
21
3520.07956231
0
LINE
5
319
100
AcDbEntity
8
0
6
ByLayer
62
193
370
-1
100
AcDbLine
10
378.981578859
20
3520.24616231
11
378.981578859
21
3521.11284231
0
LINE
5
31A
100
AcDbEntity
8
0
6
ByLayer
62
193
370
-1
100
AcDbLine
10
379.031578859
20
3521.14616231
11
379.031578859
21
3520.24616231
0
LINE
5
31B
100
AcDbEntity
8
0
6
ByLayer
62
193
370
-1
100
AcDbLine
10
379.231578859
20
3520.41276231
11
379.231578859
21
3521.27944231
0
LINE
5
31C
100
AcDbEntity
8
0
6
ByLayer
62
193
370
-1
100
AcDbLine
10
379.281578859
20
3521.31276231
11
379.281578859
21
3520.41276231
0
LINE
5
31D
100
AcDbEntity
8
0
6
ByLayer
62
193
370
-1
100
AcDbLine
10
379.481578859
20
3520.57936231
11
379.481578859
21
3521.44604231
0
LINE
5
31E
100
AcDbEntity
8
0
6
ByLayer
62
193
370
-1
100
AcDbLine
10
379.531578859
20
3521.47936231
11
379.531578859
21
3520.57936231
0
LINE
5
31F
100
AcDbEntity
8
0
6
ByLayer
62
193
370
-1
100
AcDbLine
10
379.731578859
20
3520.74596231
11
379.731578859
21
3521.61264231
0
LINE
5
320
100
AcDbEntity
8
0
6
ByLayer
62
193
370
-1
100
AcDbLine
10
379.781578859
20
3521.64596231
11
379.781578859
21
3520.74596231
0
LINE
5
321
100
AcDbEntity
8
0
6
ByLayer
62
193
370
-1
100
AcDbLine
10
379.981578859
20
3520.91256231
11
379.981578859
21
3521.77924231
0
LINE
5
322
100
AcDbEntity
8
0
6
ByLayer
62
193
370
-1
100
AcDbLine
10
380.031578859
20
3521.81256231
11
380.031578859
21
3520.91256231
0
LINE
5
323
100
AcDbEntity
8
0
6
ByLayer
62
193
370
-1
100
AcDbLine
10
380.231578859
20
3521.07916231
11
380.231578859
21
3521.94584231
0
LINE
5
324
100
AcDbEntity
8
0
6
ByLayer
62
193
370
-1
100
AcDbLine
10
380.231578859
20
3521.97916231
11
380.281578859
21
3521.97916231
0
LINE
5
325
100
AcDbEntity
8
0
6
ByLayer
62
193
370
-1
100
AcDbLine
10
380.281578859
20
3521.97916231
11
380.281578859
21
3521.07916231
0
LINE
5
326
100
AcDbEntity
8
0
6
ByLayer
62
193
370
-1
100
AcDbLine
10
380.231578859
20
3521.24576231
11
380.231578859
21
3521.94584231
0
LINE
5
327
100
AcDbEntity
8
0
6
ByLayer
62
256
370
-1
100
AcDbLine
10
380.231578859
20
3521.97916231
11
380.231578859
21
3522.14576231
0
LINE
5
328
100
AcDbEntity
8
0
6
ByLayer
62
256
370
-1
100
AcDbLine
10
380.231578859
20
3522.14576231
11
380.281578859
21
3522.14576231
0
LINE
5
329
100
AcDbEntity
8
0
6
ByLayer
62
193
370
-1
100
AcDbLine
10
380.281578859
20
3522.14576231
11
380.281578859
21
3521.24576231
0
LINE
5
32A
100
AcDbEntity
8
0
6
ByLayer
62
193
370
-1
100
AcDbLine
10
380.231578859
20
3521.57896231
11
380.231578859
21
3521.94584231
0
LINE
5
32B
100
AcDbEntity
8
0
6
ByLayer
62
256
370
-1
100
AcDbLine
10
380.231578859
20
3521.97916231
11
380.231578859
21
3522.31236231
0
LINE
5
32C
100
AcDbEntity
8
0
6
ByLayer
62
256
370
-1
100
AcDbLine
10
380.231578859
20
3522.31236231
11
380.281578859
21
3522.31236231
0
LINE
5
32D
100
AcDbEntity
8
0
6
ByLayer
62
193
370
-1
100
AcDbLine
10
380.281578859
20
3522.31236231
11
380.281578859
21
3521.57896231
0
LINE
5
32E
100
AcDbEntity
8
0
6
ByLayer
62
193
370
-1
100
AcDbLine
10
380.231578859
20
3521.57896231
11
380.231578859
21
3521.94584231
0
LINE
5
32F
100
AcDbEntity
8
0
6
ByLayer
62
256
370
-1
100
AcDbLine
10
380.231578859
20
3521.97916231
11
380.231578859
21
3522.47896231
0
LINE
5
330
100
AcDbEntity
8
0
6
ByLayer
62
256
370
-1
100
AcDbLine
10
380.231578859
20
3522.47896231
11
380.281578859
21
3522.47896231
0
LINE
5
331
100
AcDbEntity
8
0
6
ByLayer
62
193
370
-1
100
AcDbLine
10
380.281578859
20
3522.47896231
11
380.281578859
21
3521.57896231
0
LINE
5
332
100
AcDbEntity
8
0
6
ByLayer
62
193
370
-1
100
AcDbLine
10
380.231578859
20
3521.74556231
11
380.231578859
21
3521.94584231
0
LINE
5
333
100
AcDbEntity
8
0
6
ByLayer
62
256
370
-1
100
AcDbLine
10
380.231578859
20
3521.97916231
11
380.231578859
21
3522.64556231
0
LINE
5
334
100
AcDbEntity
8
0
6
ByLayer
62
256
370
-1
100
AcDbLine
10
380.231578859
20
3522.64556231
11
380.281578859
21
3522.64556231
0
LINE
5
335
100
AcDbEntity
8
0
6
ByLayer
62
193
370
-1
100
AcDbLine
10
380.281578859
20
3522.64556231
11
380.281578859
21
3521.74556231
0
LINE
5
336
100
AcDbEntity
8
0
6
ByLayer
62
193
370
-1
100
AcDbLine
10
380.231578859
20
3521.91216231
11
380.231578859
21
3521.94584231
0
LINE
5
337
100
AcDbEntity
8
0
6
ByLayer
62
193
370
-1
100
AcDbLine
10
380.231578859
20
3521.97916231
11
380.231578859
21
3522.81216231
0
LINE
5
338
100
AcDbEntity
8
0
6
ByLayer
62
256
370
-1
100
AcDbLine
10
380.231578859
20
3522.81216231
11
380.281578859
21
3522.81216231
0
LINE
5
339
100
AcDbEntity
8
0
6
ByLayer
62
193
370
-1
100
AcDbLine
10
380.281578859
20
3522.81216231
11
380.281578859
21
3521.91216231
0
LINE
5
33A
100
AcDbEntity
8
0
6
ByLayer
62
193
370
-1
100
AcDbLine
10
380.231578859
20
3522.07876231
11
380.231578859
21
3522.97876231
0
LINE
5
33B
100
AcDbEntity
8
0
6
ByLayer
62
256
370
-1
100
AcDbLine
10
380.231578859
20
3522.97876231
11
380.281578859
21
3522.97876231
0
LINE
5
33C
100
AcDbEntity
8
0
6
ByLayer
62
193
370
-1
100
AcDbLine
10
380.281578859
20
3522.97876231
11
380.281578859
21
3522.07876231
0
LINE
5
33D
100
AcDbEntity
8
0
6
ByLayer
62
193
370
-1
100
AcDbLine
10
377.981578859
20
3522.57856231
11
377.981578859
21
3523.47856231
0
LINE
5
33E
100
AcDbEntity
8
0
6
ByLayer
62
193
370
-1
100
AcDbLine
10
377.981578859
20
3523.47856231
11
378.031578859
21
3523.47856231
0
LINE
5
33F
100
AcDbEntity
8
0
6
ByLayer
62
193
370
-1
100
AcDbLine
10
378.031578859
20
3523.47856231
11
378.031578859
21
3522.57856231
0
LINE
5
340
100
AcDbEntity
8
0
6
ByLayer
62
193
370
-1
100
AcDbLine
10
378.231578859
20
3522.74516231
11
378.231578859
21
3523.61184231
0
LINE
5
341
100
AcDbEntity
8
0
6
ByLayer
62
193
370
-1
100
AcDbLine
10
378.281578859
20
3523.64516231
11
378.281578859
21
3522.74516231
0
LINE
5
342
100
AcDbEntity
8
0
6
ByLayer
62
193
370
-1
100
AcDbLine
10
378.481578859
20
3522.91176231
11
378.481578859
21
3523.77844231
0
LINE
5
343
100
AcDbEntity
8
0
6
ByLayer
62
193
370
-1
100
AcDbLine
10
378.531578859
20
3523.81176231
11
378.531578859
21
3522.91176231
0
LINE
5
344
100
AcDbEntity
8
0
6
ByLayer
62
193
370
-1
100
AcDbLine
10
378.731578859
20
3523.07836231
11
378.731578859
21
3523.94504231
0
LINE
5
345
100
AcDbEntity
8
0
6
ByLayer
62
193
370
-1
100
AcDbLine
10
378.781578859
20
3523.97836231
11
378.781578859
21
3523.07836231
0
LINE
5
346
100
AcDbEntity
8
0
6
ByLayer
62
193
370
-1
100
AcDbLine
10
378.981578859
20
3523.24496231
11
378.981578859
21
3524.11164231
0
LINE
5
347
100
AcDbEntity
8
0
6
ByLayer
62
193
370
-1
100
AcDbLine
10
379.031578859
20
3524.14496231
11
379.031578859
21
3523.24496231
0
LINE
5
348
100
AcDbEntity
8
0
6
ByLayer
62
193
370
-1
100
AcDbLine
10
379.231578859
20
3523.41156231
11
379.231578859
21
3524.27824231
0
LINE
5
349
100
AcDbEntity
8
0
6
ByLayer
62
193
370
-1
100
AcDbLine
10
379.281578859
20
3524.31156231
11
379.281578859
21
3523.41156231
0
LINE
5
34A
100
AcDbEntity
8
0
6
ByLayer
62
193
370
-1
100
AcDbLine
10
379.481578859
20
3523.57816231
11
379.481578859
21
3524.44484231
0
LINE
5
34B
100
AcDbEntity
8
0
6
ByLayer
62
193
370
-1
100
AcDbLine
10
379.531578859
20
3524.47816231
11
379.531578859
21
3523.57816231
0
LINE
5
34C
100
AcDbEntity
8
0
6
ByLayer
62
193
370
-1
100
AcDbLine
10
379.731578859
20
3523.74476231
11
379.731578859
21
3524.61144231
0
LINE
5
34D
100
AcDbEntity
8
0
6
ByLayer
62
193
370
-1
100
AcDbLine
10
379.781578859
20
3524.64476231
11
379.781578859
21
3523.74476231
0
LINE
5
34E
100
AcDbEntity
8
0
6
ByLayer
62
193
370
-1
100
AcDbLine
10
379.981578859
20
3523.91136231
11
379.981578859
21
3524.77804231
0
LINE
5
34F
100
AcDbEntity
8
0
6
ByLayer
62
193
370
-1
100
AcDbLine
10
380.031578859
20
3524.81136231
11
380.031578859
21
3523.91136231
0
LINE
5
350
100
AcDbEntity
8
0
6
ByLayer
62
193
370
-1
100
AcDbLine
10
380.231578859
20
3524.07796231
11
380.231578859
21
3524.97796231
0
LINE
5
351
100
AcDbEntity
8
0
6
ByLayer
62
256
370
-1
100
AcDbLine
10
380.231578859
20
3524.97796231
11
380.281578859
21
3524.97796231
0
LINE
5
352
100
AcDbEntity
8
0
6
ByLayer
62
193
370
-1
100
AcDbLine
10
380.281578859
20
3524.97796231
11
380.281578859
21
3524.07796231
0
LINE
5
353
100
AcDbEntity
8
0
6
ByLayer
62
193
370
-1
100
AcDbLine
10
380.231578859
20
3524.24456231
11
380.231578859
21
3525.14456231
0
LINE
5
354
100
AcDbEntity
8
0
6
ByLayer
62
256
370
-1
100
AcDbLine
10
380.231578859
20
3525.14456231
11
380.281578859
21
3525.14456231
0
LINE
5
355
100
AcDbEntity
8
0
6
ByLayer
62
193
370
-1
100
AcDbLine
10
380.281578859
20
3525.14456231
11
380.281578859
21
3524.24456231
0
LINE
5
356
100
AcDbEntity
8
0
6
ByLayer
62
193
370
-1
100
AcDbLine
10
380.231578859
20
3524.41116231
11
380.231578859
21
3525.31116231
0
LINE
5
357
100
AcDbEntity
8
0
6
ByLayer
62
256
370
-1
100
AcDbLine
10
380.231578859
20
3525.31116231
11
380.281578859
21
3525.31116231
0
LINE
5
358
100
AcDbEntity
8
0
6
ByLayer
62
193
370
-1
100
AcDbLine
10
380.281578859
20
3525.31116231
11
380.281578859
21
3524.41116231
0
LINE
5
359
100
AcDbEntity
8
0
6
ByLayer
62
193
370
-1
100
AcDbLine
10
380.231578859
20
3524.57776231
11
380.231578859
21
3525.47776231
0
LINE
5
35A
100
AcDbEntity
8
0
6
ByLayer
62
256
370
-1
100
AcDbLine
10
380.231578859
20
3525.47776231
11
380.281578859
21
3525.47776231
0
LINE
5
35B
100
AcDbEntity
8
0
6
ByLayer
62
193
370
-1
100
AcDbLine
10
380.281578859
20
3525.47776231
11
380.281578859
21
3524.57776231
0
LINE
5
35C
100
AcDbEntity
8
0
6
ByLayer
62
193
370
-1
100
AcDbLine
10
380.231578859
20
3524.74436231
11
380.231578859
21
3525.64436231
0
LINE
5
35D
100
AcDbEntity
8
0
6
ByLayer
62
256
370
-1
100
AcDbLine
10
380.231578859
20
3525.64436231
11
380.281578859
21
3525.64436231
0
LINE
5
35E
100
AcDbEntity
8
0
6
ByLayer
62
193
370
-1
100
AcDbLine
10
380.281578859
20
3525.64436231
11
380.281578859
21
3524.74436231
0
LINE
5
35F
100
AcDbEntity
8
0
6
ByLayer
62
256
370
-1
100
AcDbLine
10
380.231578859
20
3524.91096231
11
380.231578859
21
3525.81096231
0
LINE
5
360
100
AcDbEntity
8
0
6
ByLayer
62
256
370
-1
100
AcDbLine
10
380.231578859
20
3525.81096231
11
380.281578859
21
3525.81096231
0
LINE
5
361
100
AcDbEntity
8
0
6
ByLayer
62
256
370
-1
100
AcDbLine
10
380.281578859
20
3525.81096231
11
380.281578859
21
3524.91096231
0
LINE
5
362
100
AcDbEntity
8
0
6
ByLayer
62
193
370
-1
100
AcDbLine
10
380.231578859
20
3524.91096231
11
380.231578859
21
3525.81096231
0
LINE
5
363
100
AcDbEntity
8
0
6
ByLayer
62
256
370
-1
100
AcDbLine
10
380.231578859
20
3525.81096231
11
380.281578859
21
3525.81096231
0
LINE
5
364
100
AcDbEntity
8
0
6
ByLayer
62
193
370
-1
100
AcDbLine
10
380.281578859
20
3525.81096231
11
380.281578859
21
3524.91096231
0
LINE
5
365
100
AcDbEntity
8
0
6
ByLayer
62
193
370
-1
100
AcDbLine
10
380.231578859
20
3525.07756231
11
380.231578859
21
3525.97756231
0
LINE
5
366
100
AcDbEntity
8
0
6
ByLayer
62
256
370
-1
100
AcDbLine
10
380.231578859
20
3525.97756231
11
380.281578859
21
3525.97756231
0
LINE
5
367
100
AcDbEntity
8
0
6
ByLayer
62
193
370
-1
100
AcDbLine
10
380.281578859
20
3525.97756231
11
380.281578859
21
3525.07756231
0
LINE
5
368
100
AcDbEntity
8
0
6
ByLayer
62
193
370
-1
100
AcDbLine
10
380.131578859
20
3525.24356231
11
380.131578859
21
3526.08822898
0
LINE
5
369
100
AcDbEntity
8
0
6
ByLayer
62
193
370
-1
100
AcDbLine
10
380.081578859
20
3526.14356231
11
380.081578859
21
3525.24356231
0
LINE
5
36A
100
AcDbEntity
8
0
6
ByLayer
62
193
370
-1
100
AcDbLine
10
379.881578859
20
3525.40956231
11
379.881578859
21
3526.27636231
0
LINE
5
36B
100
AcDbEntity
8
0
6
ByLayer
62
193
370
-1
100
AcDbLine
10
379.831578859
20
3526.30956231
11
379.831578859
21
3525.40956231
0
LINE
5
36C
100
AcDbEntity
8
0
6
ByLayer
62
193
370
-1
100
AcDbLine
10
379.881578859
20
3526.30956231
11
379.831578859
21
3526.30956231
0
LINE
5
36D
100
AcDbEntity
8
0
6
ByLayer
62
193
370
-1
100
AcDbLine
10
380.131578859
20
3522.24536231
11
380.131578859
21
3523.08982898
0
LINE
5
36E
100
AcDbEntity
8
0
6
ByLayer
62
193
370
-1
100
AcDbLine
10
380.081578859
20
3523.14536231
11
380.081578859
21
3522.24536231
0
LINE
5
36F
100
AcDbEntity
8
0
6
ByLayer
62
256
370
-1
100
AcDbLine
10
379.931578859
20
3522.41196231
11
379.881578859
21
3522.41196231
0
LINE
5
370
100
AcDbEntity
8
0
6
ByLayer
62
193
370
-1
100
AcDbLine
10
379.881578859
20
3522.41196231
11
379.881578859
21
3523.27864231
0
LINE
5
371
100
AcDbEntity
8
0
6
ByLayer
62
193
370
-1
100
AcDbLine
10
379.881578859
20
3523.31196231
11
379.831578859
21
3523.31196231
0
LINE
5
372
100
AcDbEntity
8
0
6
ByLayer
62
193
370
-1
100
AcDbLine
10
379.831578859
20
3523.31196231
11
379.831578859
21
3522.41196231
0
LINE
5
373
100
AcDbEntity
8
0
6
ByLayer
62
193
370
-1
100
AcDbLine
10
378.031578859
20
3520.47976231
11
380.031578859
21
3521.81256231
0
LWPOLYLINE
5
374
100
AcDbEntity
8
0
6
ByLayer
62
193
370
-1
100
AcDbPolyline
90
2
70
0
43
0
10
377.981578859
20
3520.47976231
10
380.231578859
20
3521.97916231
0
LWPOLYLINE
5
375
100
AcDbEntity
8
0
6
ByLayer
62
193
370
-1
100
AcDbPolyline
90
2
70
0
43
0
10
380.031578859
20
3521.81256231
10
380.281578859
20
3521.97916231
0
LINE
5
376
100
AcDbEntity
8
0
6
ByLayer
62
193
370
-1
100
AcDbLine
10
379.831578859
20
3523.31196231
11
380.081578859
21
3523.14536231
0
LINE
5
377
100
AcDbEntity
8
0
6
ByLayer
62
193
370
-1
100
AcDbLine
10
380.081578859
20
3523.14536231
11
380.231578859
21
3522.97876231
0
LINE
5
378
100
AcDbEntity
8
0
6
ByLayer
62
193
370
-1
100
AcDbLine
10
380.281578859
20
3522.97876231
11
380.131578859
21
3523.14536231
0
LINE
5
379
100
AcDbEntity
8
0
6
ByLayer
62
193
370
-1
100
AcDbLine
10
380.131578859
20
3523.14536231
11
379.881578859
21
3523.31196231
0
LWPOLYLINE
5
37A
100
AcDbEntity
8
0
6
ByLayer
62
193
370
-1
100
AcDbPolyline
90
3
70
0
43
0
10
378.031578859
20
3523.47856231
10
380.031578859
20
3524.81136231
10
380.281578859
20
3524.97796231
0
LWPOLYLINE
5
37B
100
AcDbEntity
8
0
6
ByLayer
62
193
370
-1
100
AcDbPolyline
90
2
70
0
43
0
10
380.231578859
20
3524.97796231
10
377.981578859
20
3523.47856231
0
LWPOLYLINE
5
37C
100
AcDbEntity
8
0
6
ByLayer
62
193
370
-1
100
AcDbPolyline
90
3
70
0
43
0
10
379.831578859
20
3526.30956231
10
380.081578859
20
3526.14356231
10
380.231578859
20
3525.97756231
0
LWPOLYLINE
5
37D
100
AcDbEntity
8
0
6
ByLayer
62
193
370
-1
100
AcDbPolyline
90
3
70
0
43
0
10
380.281578859
20
3525.97756231
10
380.131578859
20
3526.14356231
10
379.881578859
20
3526.30956231
0
LINE
5
37E
100
AcDbEntity
8
0
6
ByLayer
62
256
370
-1
100
AcDbLine
10
373.081578859
20
3519.41316231
11
373.081578859
21
3519.62316231
0
LINE
5
37F
100
AcDbEntity
8
0
6
ByLayer
62
256
370
-1
100
AcDbLine
10
373.081578859
20
3519.41316231
11
373.081578859
21
3521.51316231
0
LINE
5
380
100
AcDbEntity
8
0
6
ByLayer
62
256
370
-1
100
AcDbLine
10
379.781578859
20
3521.51316231
11
379.582299147
21
3521.51316231
0
LINE
5
381
100
AcDbEntity
8
0
6
ByLayer
62
256
370
-1
100
AcDbLine
10
379.532299147
20
3521.51316231
11
377.781578859
21
3521.51316231
0
LINE
5
382
100
AcDbEntity
8
0
6
ByLayer
62
256
370
-1
100
AcDbLine
10
373.081578859
20
3524.51196231
11
373.081578859
21
3524.66196231
0
LINE
5
383
100
AcDbEntity
8
0
6
ByLayer
62
256
370
-1
100
AcDbLine
10
373.081578859
20
3521.51316231
11
373.081578859
21
3521.66316231
0
LINE
5
384
100
AcDbEntity
8
0
6
ByLayer
62
256
370
-1
100
AcDbLine
10
381.281578859
20
3521.51316231
11
381.281578859
21
3521.66316231
0
LINE
5
385
100
AcDbEntity
8
0
6
ByLayer
62
256
370
-1
100
AcDbLine
10
381.281578859
20
3521.66316231
11
381.081578859
21
3521.66316231
0
LINE
5
386
100
AcDbEntity
8
0
6
ByLayer
62
190
370
-1
100
AcDbLine
10
380.181578859
20
3521.07916231
11
380.431578859
21
3521.07916231
0
LINE
5
387
100
AcDbEntity
8
0
6
ByLayer
62
256
370
-1
100
AcDbLine
10
380.461846345
20
3520.97916231
11
378.111906369
21
3519.41316231
0
LINE
5
388
100
AcDbEntity
8
0
6
ByLayer
62
256
370
-1
100
AcDbLine
10
373.081578859
20
3528.30716231
11
372.881578859
21
3528.30716231
0
LINE
5
389
100
AcDbEntity
8
0
6
ByLayer
62
256
370
-1
100
AcDbLine
10
372.881578859
20
3528.40716231
11
373.081578859
21
3528.40716231
0
LINE
5
38A
100
AcDbEntity
8
0
6
ByLayer
62
256
370
-1
100
AcDbLine
10
381.281578859
20
3525.30956231
11
381.481578859
21
3525.30956231
0
LINE
5
38B
100
AcDbEntity
8
0
6
ByLayer
62
256
370
-1
100
AcDbLine
10
381.481578859
20
3525.30956231
11
381.481578859
21
3525.40956231
0
LINE
5
38C
100
AcDbEntity
8
0
6
ByLayer
62
256
370
-1
100
AcDbLine
10
381.481578859
20
3525.40956231
11
381.281578859
21
3525.40956231
0
LINE
5
38D
100
AcDbEntity
8
0
6
ByLayer
62
256
370
-1
100
AcDbLine
10
373.081578859
20
3521.51316231
11
372.481578859
21
3521.51316231
0
LINE
5
38E
100
AcDbEntity
8
0
6
ByLayer
62
256
370
-1
100
AcDbLine
10
381.081578859
20
3521.51316231
11
381.881578859
21
3521.51316231
0
LINE
5
38F
100
AcDbEntity
8
0
6
ByLayer
62
256
370
-1
100
AcDbLine
10
381.881578859
20
3521.51316231
11
381.881578859
21
3521.71316231
0
LINE
5
390
100
AcDbEntity
8
0
6
ByLayer
62
256
370
-1
100
AcDbLine
10
381.881578859
20
3521.71316231
11
381.281578859
21
3521.71316231
0
LINE
5
391
100
AcDbEntity
8
0
6
ByLayer
62
256
370
-1
100
AcDbLine
10
381.281578859
20
3524.51196231
11
381.881578859
21
3524.51196231
0
LINE
5
392
100
AcDbEntity
8
0
6
ByLayer
62
256
370
-1
100
AcDbLine
10
381.881578859
20
3524.51196231
11
381.881578859
21
3524.71196231
0
LINE
5
393
100
AcDbEntity
8
0
6
ByLayer
62
256
370
-1
100
AcDbLine
10
381.881578859
20
3524.71196231
11
381.281578859
21
3524.71196231
0
LINE
5
394
100
AcDbEntity
8
0
6
ByLayer
62
256
370
-1
100
AcDbLine
10
377.781578859
20
3520.01316231
11
377.781578859
21
3521.51316231
0
LINE
5
395
100
AcDbEntity
8
0
6
ByLayer
62
193
370
-1
100
AcDbLine
10
378.281578859
20
3519.74636231
11
378.281578859
21
3520.64636231
0
LINE
5
396
100
AcDbEntity
8
0
6
ByLayer
62
256
370
-1
100
AcDbLine
10
378.281578859
20
3520.67968231
11
378.281578859
21
3521.51316231
0
LINE
5
397
100
AcDbEntity
8
0
6
ByLayer
62
193
370
-1
100
AcDbLine
10
378.781578859
20
3520.07956231
11
378.781578859
21
3520.97956231
0
LINE
5
398
100
AcDbEntity
8
0
6
ByLayer
62
256
370
-1
100
AcDbLine
10
378.781578859
20
3521.01288231
11
378.781578859
21
3521.51316231
0
LINE
5
399
100
AcDbEntity
8
0
6
ByLayer
62
256
370
-1
100
AcDbLine
10
379.281578859
20
3520.01316231
11
379.281578859
21
3520.19263206
0
LINE
5
39A
100
AcDbEntity
8
0
6
ByLayer
62
193
370
-1
100
AcDbLine
10
379.281578859
20
3520.41276231
11
379.281578859
21
3521.31276231
0
LINE
5
39B
100
AcDbEntity
8
0
6
ByLayer
62
256
370
-1
100
AcDbLine
10
379.281578859
20
3521.34608231
11
379.281578859
21
3521.51316231
0
LINE
5
39C
100
AcDbEntity
8
0
6
ByLayer
62
193
370
-1
100
AcDbLine
10
379.781578859
20
3520.01316231
11
379.781578859
21
3521.64596231
0
LINE
5
39D
100
AcDbEntity
8
0
6
ByLayer
62
256
370
-1
100
AcDbLine
10
377.781578859
20
3521.51316231
11
377.781578859
21
3520.01316231
0
LINE
5
39E
100
AcDbEntity
8
0
6
ByLayer
62
256
370
-1
100
AcDbLine
10
377.781578859
20
3520.01316231
11
377.981578859
21
3520.01316231
0
LINE
5
39F
100
AcDbEntity
8
0
6
ByLayer
62
256
370
-1
100
AcDbLine
10
378.031578859
20
3520.01316231
11
378.231578859
21
3520.01316231
0
LINE
5
3A0
100
AcDbEntity
8
0
6
ByLayer
62
256
370
-1
100
AcDbLine
10
378.281578859
20
3520.01316231
11
378.481578859
21
3520.01316231
0
LINE
5
3A1
100
AcDbEntity
8
0
6
ByLayer
62
256
370
-1
100
AcDbLine
10
378.531578859
20
3520.01316231
11
378.681578859
21
3520.01316231
0
LINE
5
3A2
100
AcDbEntity
8
0
6
ByLayer
62
256
370
-1
100
AcDbLine
10
379.012266513
20
3520.01316231
11
379.781578859
21
3520.01316231
0
LINE
5
3A3
100
AcDbEntity
8
0
6
ByLayer
62
256
370
-1
100
AcDbLine
10
379.231578859
20
3524.51196231
11
379.231578859
21
3524.31156231
0
LINE
5
3A4
100
AcDbEntity
8
0
6
ByLayer
62
193
370
-1
100
AcDbLine
10
379.231578859
20
3524.27824231
11
379.231578859
21
3523.01196231
0
LINE
5
3A5
100
AcDbEntity
8
0
6
ByLayer
62
256
370
-1
100
AcDbLine
10
379.231578859
20
3523.01196231
11
379.231578859
21
3522.41196231
0
LINE
5
3A6
100
AcDbEntity
8
0
6
ByLayer
62
256
370
-1
100
AcDbLine
10
379.231578859
20
3524.51196231
11
378.331578859
21
3524.51196231
0
LINE
5
3A7
100
AcDbEntity
8
0
6
ByLayer
62
256
370
-1
100
AcDbLine
10
378.331578859
20
3524.51196231
11
378.331578859
21
3523.71180231
0
LINE
5
3A8
100
AcDbEntity
8
0
6
ByLayer
62
256
370
-1
100
AcDbLine
10
378.331578859
20
3523.67848231
11
378.331578859
21
3522.41196231
0
LINE
5
3A9
100
AcDbEntity
8
0
6
ByLayer
62
256
370
-1
100
AcDbLine
10
381.031578859
20
3524.07796231
11
381.031578859
21
3523.01196231
0
LINE
5
3AA
100
AcDbEntity
8
0
6
ByLayer
62
256
370
-1
100
AcDbLine
10
380.531578859
20
3524.07796231
11
380.531578859
21
3523.01196231
0
LINE
5
3AB
100
AcDbEntity
8
0
6
ByLayer
62
256
370
-1
100
AcDbLine
10
381.031578859
20
3523.01196231
11
380.251686902
21
3523.01196231
0
LINE
5
3AC
100
AcDbEntity
8
0
6
ByLayer
62
256
370
-1
100
AcDbLine
10
380.201686902
20
3523.01196231
11
380.131578859
21
3523.01196231
0
LINE
5
3AD
100
AcDbEntity
8
0
6
ByLayer
62
256
370
-1
100
AcDbLine
10
380.081578859
20
3523.01196231
11
380.031578859
21
3523.01196231
0
LINE
5
3AE
100
AcDbEntity
8
0
6
ByLayer
62
256
370
-1
100
AcDbLine
10
380.031578859
20
3523.01196231
11
380.031578859
21
3523.17868231
0
LINE
5
3AF
100
AcDbEntity
8
0
6
ByLayer
62
193
370
-1
100
AcDbLine
10
380.031578859
20
3523.21200231
11
380.031578859
21
3524.51196231
0
LINE
5
3B0
100
AcDbEntity
8
0
6
ByLayer
62
256
370
-1
100
AcDbLine
10
377.931578859
20
3522.41196231
11
376.881578859
21
3522.41196231
0
LINE
5
3B1
100
AcDbEntity
8
0
6
ByLayer
62
256
370
-1
100
AcDbLine
10
376.881578859
20
3522.41196231
11
376.881578859
21
3525.30956231
0
LINE
5
3B2
100
AcDbEntity
8
0
6
ByLayer
62
256
370
-1
100
AcDbLine
10
376.881578859
20
3528.40716231
11
376.881578859
21
3530.90716231
0
LINE
5
3B3
100
AcDbEntity
8
0
6
ByLayer
62
256
370
-1
100
AcDbLine
10
376.681578859
20
3522.41196231
11
376.681578859
21
3525.30956231
0
LINE
5
3B4
100
AcDbEntity
8
0
6
ByLayer
62
256
370
-1
100
AcDbLine
10
376.681578859
20
3528.40716231
11
376.681578859
21
3530.90716231
0
LINE
5
3B5
100
AcDbEntity
8
0
6
ByLayer
62
256
370
-1
100
AcDbLine
10
375.581578859
20
3522.41196231
11
375.581578859
21
3525.30956231
0
LINE
5
3B6
100
AcDbEntity
8
0
6
ByLayer
62
256
370
-1
100
AcDbLine
10
375.381578859
20
3522.41196231
11
375.381578859
21
3525.30956231
0
LINE
5
3B7
100
AcDbEntity
8
0
6
ByLayer
62
256
370
-1
100
AcDbLine
10
372.881578859
20
3519.41316231
11
372.881578859
21
3522.31196231
0
LINE
5
3B8
100
AcDbEntity
8
0
6
ByLayer
62
256
370
-1
100
AcDbLine
10
372.881578859
20
3522.41196231
11
372.881578859
21
3525.30956231
0
LINE
5
3B9
100
AcDbEntity
8
0
6
ByLayer
62
256
370
-1
100
AcDbLine
10
372.881578859
20
3521.51316231
11
372.281578859
21
3521.51316231
0
LINE
5
3BA
100
AcDbEntity
8
0
6
ByLayer
62
256
370
-1
100
AcDbLine
10
372.281578859
20
3521.51316231
11
372.281578859
21
3521.71316231
0
LINE
5
3BB
100
AcDbEntity
8
0
6
ByLayer
62
256
370
-1
100
AcDbLine
10
372.281578859
20
3521.71316231
11
372.881578859
21
3521.71316231
0
LINE
5
3BC
100
AcDbEntity
8
0
6
ByLayer
62
256
370
-1
100
AcDbLine
10
373.081578859
20
3524.51196231
11
372.881578859
21
3524.51196231
0
LINE
5
3BD
100
AcDbEntity
8
0
6
ByLayer
62
256
370
-1
100
AcDbLine
10
372.881578859
20
3524.51196231
11
372.281578859
21
3524.51196231
0
LINE
5
3BE
100
AcDbEntity
8
0
6
ByLayer
62
256
370
-1
100
AcDbLine
10
372.281578859
20
3524.51196231
11
372.281578859
21
3524.71196231
0
LINE
5
3BF
100
AcDbEntity
8
0
6
ByLayer
62
256
370
-1
100
AcDbLine
10
372.281578859
20
3524.71196231
11
372.881578859
21
3524.71196231
0
LINE
5
3C0
100
AcDbEntity
8
0
6
ByLayer
62
256
370
-1
100
AcDbLine
10
373.081578859
20
3524.51196231
11
373.081578859
21
3524.66196231
0
LINE
5
3C1
100
AcDbEntity
8
0
6
ByLayer
62
256
370
-1
100
AcDbLine
10
373.081578859
20
3524.66196231
11
372.881578859
21
3524.66196231
0
LINE
5
3C2
100
AcDbEntity
8
0
6
ByLayer
62
256
370
-1
100
AcDbLine
10
375.581578859
20
3524.51196231
11
375.581578859
21
3524.66196231
0
LINE
5
3C3
100
AcDbEntity
8
0
6
ByLayer
62
256
370
-1
100
AcDbLine
10
375.581578859
20
3524.66196231
11
375.381578859
21
3524.66196231
0
LINE
5
3C4
100
AcDbEntity
8
0
6
ByLayer
62
256
370
-1
100
AcDbLine
10
376.881578859
20
3524.51196231
11
376.881578859
21
3524.66196231
0
LINE
5
3C5
100
AcDbEntity
8
0
6
ByLayer
62
256
370
-1
100
AcDbLine
10
376.881578859
20
3524.66196231
11
376.681578859
21
3524.66196231
0
LINE
5
3C6
100
AcDbEntity
8
0
6
ByLayer
62
256
370
-1
100
AcDbLine
10
372.881578859
20
3528.30716231
11
372.681578859
21
3528.30716231
0
LINE
5
3C7
100
AcDbEntity
8
0
6
ByLayer
62
256
370
-1
100
AcDbLine
10
372.681578859
20
3528.30716231
11
372.681578859
21
3528.40716231
0
LINE
5
3C8
100
AcDbEntity
8
0
6
ByLayer
62
256
370
-1
100
AcDbLine
10
372.681578859
20
3528.40716231
11
372.881578859
21
3528.40716231
0
LINE
5
3C9
100
AcDbEntity
8
0
6
ByLayer
62
256
370
-1
100
AcDbLine
10
373.081578859
20
3522.31196231
11
372.881578859
21
3522.31196231
0
LINE
5
3CA
100
AcDbEntity
8
0
6
ByLayer
62
256
370
-1
100
AcDbLine
10
372.881578859
20
3522.31196231
11
372.681578859
21
3522.31196231
0
LINE
5
3CB
100
AcDbEntity
8
0
6
ByLayer
62
256
370
-1
100
AcDbLine
10
372.681578859
20
3522.31196231
11
372.681578859
21
3522.41196231
0
LINE
5
3CC
100
AcDbEntity
8
0
6
ByLayer
62
256
370
-1
100
AcDbLine
10
372.681578859
20
3522.41196231
11
373.081578859
21
3522.41196231
0
LINE
5
3CD
100
AcDbEntity
8
0
6
ByLayer
62
256
370
-1
100
AcDbLine
10
381.281578859
20
3522.31196231
11
381.481578859
21
3522.31196231
0
LINE
5
3CE
100
AcDbEntity
8
0
6
ByLayer
62
256
370
-1
100
AcDbLine
10
381.481578859
20
3522.31196231
11
381.481578859
21
3522.41196231
0
LINE
5
3CF
100
AcDbEntity
8
0
6
ByLayer
62
256
370
-1
100
AcDbLine
10
381.481578859
20
3522.41196231
11
381.281578859
21
3522.41196231
0
LINE
5
3D0
100
AcDbEntity
8
0
6
ByLayer
62
256
370
-1
100
AcDbLine
10
381.081578859
20
3522.31196231
11
381.081578859
21
3522.41196231
0
LINE
5
3D1
100
AcDbEntity
8
0
6
ByLayer
62
256
370
-1
100
AcDbLine
10
381.281578859
20
3530.90716231
11
381.481578859
21
3530.90716231
0
LINE
5
3D2
100
AcDbEntity
8
0
6
ByLayer
62
256
370
-1
100
AcDbLine
10
381.481578859
20
3530.90716231
11
381.481578859
21
3531.00716231
0
LINE
5
3D3
100
AcDbEntity
8
0
6
ByLayer
62
256
370
-1
100
AcDbLine
10
381.481578859
20
3531.00716231
11
381.281578859
21
3531.00716231
0
LINE
5
3D4
100
AcDbEntity
8
0
6
ByLayer
62
256
370
-1
100
AcDbLine
10
376.681578859
20
3530.90716231
11
376.481578859
21
3530.90716231
0
LINE
5
3D5
100
AcDbEntity
8
0
6
ByLayer
62
256
370
-1
100
AcDbLine
10
376.481578859
20
3530.90716231
11
376.481578859
21
3531.00716231
0
LINE
5
3D6
100
AcDbEntity
8
0
6
ByLayer
62
256
370
-1
100
AcDbLine
10
376.481578859
20
3531.00716231
11
376.681578859
21
3531.00716231
0
LINE
5
3D7
100
AcDbEntity
8
0
6
ByLayer
62
256
370
-1
100
AcDbLine
10
372.681578859
20
3528.40716231
11
372.681578859
21
3529.15716231
0
LINE
5
3D8
100
AcDbEntity
8
0
6
ByLayer
62
256
370
-1
100
AcDbLine
10
372.681578859
20
3529.15716231
11
376.681578859
21
3529.15716231
0
LINE
5
3D9
100
AcDbEntity
8
0
6
ByLayer
62
256
370
-1
100
AcDbLine
10
375.381578859
20
3522.41196231
11
374.081578859
21
3522.41196231
0
LINE
5
3DA
100
AcDbEntity
8
0
6
ByLayer
62
256
370
-1
100
AcDbLine
10
374.081578859
20
3522.41196231
11
374.081578859
21
3524.51196231
0
LINE
5
3DB
100
AcDbEntity
8
0
6
ByLayer
62
256
370
-1
100
AcDbLine
10
374.011578859
20
3522.41196231
11
374.011578859
21
3524.44196231
0
LINE
5
3DC
100
AcDbEntity
8
0
6
ByLayer
62
256
370
-1
100
AcDbLine
10
374.081578859
20
3524.51196231
11
373.281578859
21
3524.51196231
0
LINE
5
3DD
100
AcDbEntity
8
0
6
ByLayer
62
256
370
-1
100
AcDbLine
10
374.011578859
20
3524.44196231
11
373.351578859
21
3524.44196231
0
LINE
5
3DE
100
AcDbEntity
8
0
6
ByLayer
62
256
370
-1
100
AcDbLine
10
373.281578859
20
3524.51196231
11
373.281578859
21
3522.41196231
0
LINE
5
3DF
100
AcDbEntity
8
0
6
ByLayer
62
256
370
-1
100
AcDbLine
10
373.351578859
20
3524.44196231
11
373.351578859
21
3522.41196231
0
LINE
5
3E0
100
AcDbEntity
8
0
6
ByLayer
62
256
370
-1
100
AcDbLine
10
376.481578859
20
3531.00716231
11
376.481578859
21
3531.50716231
0
LINE
5
3E1
100
AcDbEntity
8
0
6
ByLayer
62
256
370
-1
100
AcDbLine
10
376.581578859
20
3531.00716231
11
376.581578859
21
3531.50716231
0
LINE
5
3E2
100
AcDbEntity
8
0
6
ByLayer
62
256
370
-1
100
AcDbLine
10
381.481578859
20
3531.00716231
11
381.481578859
21
3531.50716231
0
LINE
5
3E3
100
AcDbEntity
8
0
6
ByLayer
62
256
370
-1
100
AcDbLine
10
381.381578859
20
3531.00716231
11
381.381578859
21
3531.50716231
0
LINE
5
3E4
100
AcDbEntity
8
0
6
ByLayer
62
256
370
-1
100
AcDbLine
10
381.481578859
20
3531.50716231
11
376.481578859
21
3531.50716231
0
LINE
5
3E5
100
AcDbEntity
8
0
6
ByLayer
62
256
370
-1
100
AcDbLine
10
381.281578859
20
3519.41316231
11
381.406578859
21
3519.41316231
0
LINE
5
3E6
100
AcDbEntity
8
0
6
ByLayer
62
256
370
-1
100
AcDbLine
10
381.406578859
20
3519.41316231
11
381.406578859
21
3518.96316231
0
LINE
5
3E7
100
AcDbEntity
8
0
6
ByLayer
62
256
370
-1
100
AcDbLine
10
381.081578859
20
3519.41316231
11
380.956578859
21
3519.41316231
0
LINE
5
3E8
100
AcDbEntity
8
0
6
ByLayer
62
256
370
-1
100
AcDbLine
10
380.956578859
20
3519.41316231
11
380.956578859
21
3518.96316231
0
LINE
5
3E9
100
AcDbEntity
8
0
6
ByLayer
62
256
370
-1
100
AcDbLine
10
381.406578859
20
3518.96316231
11
381.556578859
21
3518.96316231
0
LINE
5
3EA
100
AcDbEntity
8
0
6
ByLayer
62
256
370
-1
100
AcDbLine
10
381.481578859
20
3518.36316231
11
380.956578859
21
3518.36316231
0
LINE
5
3EB
100
AcDbEntity
8
0
6
ByLayer
62
256
370
-1
100
AcDbLine
10
381.406578859
20
3518.96316231
11
382.156578859
21
3518.96316231
0
LINE
5
3EC
100
AcDbEntity
8
0
6
ByLayer
62
256
370
-1
100
AcDbLine
10
381.406578859
20
3518.96316231
11
382.156578859
21
3518.96316231
0
LINE
5
3ED
100
AcDbEntity
8
0
6
ByLayer
62
256
370
-1
100
AcDbLine
10
381.406578859
20
3518.96316231
11
381.481578859
21
3518.96316231
0
LINE
5
3EE
100
AcDbEntity
8
0
6
ByLayer
62
256
370
-1
100
AcDbLine
10
381.481578859
20
3518.96316231
11
381.481578859
21
3518.36316231
0
LINE
5
3EF
100
AcDbEntity
8
0
6
ByLayer
62
256
370
-1
100
AcDbLine
10
381.481578859
20
3518.36316231
11
380.881578859
21
3518.36316231
0
LINE
5
3F0
100
AcDbEntity
8
0
6
ByLayer
62
256
370
-1
100
AcDbLine
10
380.881578859
20
3518.36316231
11
380.881578859
21
3518.96316231
0
LINE
5
3F1
100
AcDbEntity
8
0
6
ByLayer
62
256
370
-1
100
AcDbLine
10
373.206578859
20
3519.41316231
11
373.206578859
21
3518.96316231
0
LINE
5
3F2
100
AcDbEntity
8
0
6
ByLayer
62
256
370
-1
100
AcDbLine
10
372.756578859
20
3519.41316231
11
372.756578859
21
3518.96316231
0
LINE
5
3F3
100
AcDbEntity
8
0
6
ByLayer
62
256
370
-1
100
AcDbLine
10
373.281578859
20
3518.36316231
11
372.756578859
21
3518.36316231
0
LINE
5
3F4
100
AcDbEntity
8
0
6
ByLayer
62
256
370
-1
100
AcDbLine
10
373.281578859
20
3518.96316231
11
373.281578859
21
3518.36316231
0
LINE
5
3F5
100
AcDbEntity
8
0
6
ByLayer
62
256
370
-1
100
AcDbLine
10
373.281578859
20
3518.36316231
11
372.681578859
21
3518.36316231
0
LINE
5
3F6
100
AcDbEntity
8
0
6
ByLayer
62
256
370
-1
100
AcDbLine
10
372.681578859
20
3518.36316231
11
372.681578859
21
3518.96316231
0
LINE
5
3F7
100
AcDbEntity
8
0
6
ByLayer
62
6
370
-1
100
AcDbLine
10
374.731578859
20
3522.41196231
11
374.731578859
21
3519.41316231
0
LINE
5
3F8
100
AcDbEntity
8
0
6
ByLayer
62
22
370
-1
100
AcDbLine
10
373.351578859
20
3523.42696231
11
374.011578859
21
3523.42696231
0
LINE
5
3F9
100
AcDbEntity
8
0
6
ByLayer
62
22
370
-1
100
AcDbLine
10
378.331578859
20
3522.74516231
11
379.231578859
21
3522.74516231
0
MTEXT
5
3FA
100
AcDbEntity
8
0
6
ByLayer
62
7
370
-1
100
AcDbMText
10
375.37793687
20
3517.58119643
30
0
40
0.35
41
2.75138881469
71
1
72
5
1
SECTION AA
7
standard
210
0
220
0
230
1
50
0
73
1
44
1
0
LINE
5
3FB
100
AcDbEntity
8
0
6
ByLayer
62
256
370
-1
100
AcDbLine
10
373.081578859
20
3525.40956231
11
373.081578859
21
3528.30716231
0
LINE
5
3FC
100
AcDbEntity
8
0
6
ByLayer
62
256
370
-1
100
AcDbLine
10
381.081578859
20
3525.40956231
11
381.081578859
21
3530.90716231
0
LINE
5
3FD
100
AcDbEntity
8
0
6
ByLayer
62
256
370
-1
100
AcDbLine
10
381.281578859
20
3525.40956231
11
381.281578859
21
3528.30716231
0
LINE
5
3FE
100
AcDbEntity
8
0
6
ByLayer
62
256
370
-1
100
AcDbLine
10
381.281578859
20
3528.40716231
11
381.281578859
21
3530.90716231
0
LINE
5
3FF
100
AcDbEntity
8
0
6
ByLayer
62
256
370
-1
100
AcDbLine
10
377.931578859
20
3525.40956231
11
377.931578859
21
3525.57616231
0
LINE
5
400
100
AcDbEntity
8
0
6
ByLayer
62
256
370
-1
100
AcDbLine
10
378.181578859
20
3525.57616231
11
378.181578859
21
3525.74276231
0
LINE
5
401
100
AcDbEntity
8
0
6
ByLayer
62
256
370
-1
100
AcDbLine
10
378.431578859
20
3525.74276231
11
378.431578859
21
3525.90936231
0
LINE
5
402
100
AcDbEntity
8
0
6
ByLayer
62
256
370
-1
100
AcDbLine
10
378.681578859
20
3525.90936231
11
378.681578859
21
3526.07596231
0
LINE
5
403
100
AcDbEntity
8
0
6
ByLayer
62
256
370
-1
100
AcDbLine
10
379.681578859
20
3528.40716231
11
379.681578859
21
3530.90716231
0
LINE
5
404
100
AcDbEntity
8
0
6
ByLayer
62
192
370
-1
100
AcDbLine
10
380.181578859
20
3526.90896231
11
380.181578859
21
3528.24116231
0
LINE
5
405
100
AcDbEntity
8
0
6
ByLayer
62
256
370
-1
100
AcDbLine
10
381.281578859
20
3527.50956231
11
381.081578859
21
3527.50956231
0
LINE
5
406
100
AcDbEntity
8
0
6
ByLayer
62
256
370
-1
100
AcDbLine
10
379.231578859
20
3527.50956231
11
378.331578859
21
3527.50956231
0
LINE
5
407
100
AcDbEntity
8
0
6
ByLayer
62
256
370
-1
100
AcDbLine
10
376.881578859
20
3527.50956231
11
376.681578859
21
3527.50956231
0
LINE
5
408
100
AcDbEntity
8
0
6
ByLayer
62
256
370
-1
100
AcDbLine
10
375.581578859
20
3527.50956231
11
375.381578859
21
3527.50956231
0
LINE
5
409
100
AcDbEntity
8
0
6
ByLayer
62
192
370
-1
100
AcDbLine
10
377.931578859
20
3525.40956231
11
377.931578859
21
3525.57616231
0
LINE
5
40A
100
AcDbEntity
8
0
6
ByLayer
62
190
370
-1
100
AcDbLine
10
377.931578859
20
3525.57616231
11
378.181578859
21
3525.57616231
0
LINE
5
40B
100
AcDbEntity
8
0
6
ByLayer
62
192
370
-1
100
AcDbLine
10
378.181578859
20
3525.57616231
11
378.181578859
21
3525.74276231
0
LINE
5
40C
100
AcDbEntity
8
0
6
ByLayer
62
190
370
-1
100
AcDbLine
10
378.181578859
20
3525.74276231
11
378.431578859
21
3525.74276231
0
LINE
5
40D
100
AcDbEntity
8
0
6
ByLayer
62
192
370
-1
100
AcDbLine
10
378.431578859
20
3525.74276231
11
378.431578859
21
3525.90936231
0
LINE
5
40E
100
AcDbEntity
8
0
6
ByLayer
62
190
370
-1
100
AcDbLine
10
378.431578859
20
3525.90936231
11
378.681578859
21
3525.90936231
0
LINE
5
40F
100
AcDbEntity
8
0
6
ByLayer
62
192
370
-1
100
AcDbLine
10
378.681578859
20
3525.90936231
11
378.681578859
21
3526.07596231
0
LINE
5
410
100
AcDbEntity
8
0
6
ByLayer
62
190
370
-1
100
AcDbLine
10
378.681578859
20
3526.07596231
11
378.931578859
21
3526.07596231
0
LINE
5
411
100
AcDbEntity
8
0
6
ByLayer
62
192
370
-1
100
AcDbLine
10
380.181578859
20
3526.90896231
11
380.181578859
21
3527.07556231
0
LINE
5
412
100
AcDbEntity
8
0
6
ByLayer
62
190
370
-1
100
AcDbLine
10
380.031578859
20
3527.07556231
11
381.081578859
21
3527.07556231
0
LINE
5
413
100
AcDbEntity
8
0
6
ByLayer
62
190
370
-1
100
AcDbLine
10
380.181578859
20
3527.24216231
11
380.231578859
21
3527.24216231
0
LINE
5
414
100
AcDbEntity
8
0
6
ByLayer
62
190
370
-1
100
AcDbLine
10
380.281578859
20
3527.24216231
11
381.081578859
21
3527.24216231
0
LINE
5
415
100
AcDbEntity
8
0
6
ByLayer
62
190
370
-1
100
AcDbLine
10
380.181578859
20
3527.40876231
11
380.231578859
21
3527.40876231
0
LINE
5
416
100
AcDbEntity
8
0
6
ByLayer
62
190
370
-1
100
AcDbLine
10
380.281578859
20
3527.40876231
11
381.081578859
21
3527.40876231
0
LINE
5
417
100
AcDbEntity
8
0
6
ByLayer
62
190
370
-1
100
AcDbLine
10
380.181578859
20
3527.57536231
11
380.231578859
21
3527.57536231
0
LINE
5
418
100
AcDbEntity
8
0
6
ByLayer
62
190
370
-1
100
AcDbLine
10
380.281578859
20
3527.57536231
11
381.081578859
21
3527.57536231
0
LINE
5
419
100
AcDbEntity
8
0
6
ByLayer
62
190
370
-1
100
AcDbLine
10
380.181578859
20
3527.74196231
11
380.231578859
21
3527.74196231
0
LINE
5
41A
100
AcDbEntity
8
0
6
ByLayer
62
190
370
-1
100
AcDbLine
10
380.281578859
20
3527.74196231
11
381.081578859
21
3527.74196231
0
LINE
5
41B
100
AcDbEntity
8
0
6
ByLayer
62
190
370
-1
100
AcDbLine
10
380.181578859
20
3527.90856231
11
380.231578859
21
3527.90856231
0
LINE
5
41C
100
AcDbEntity
8
0
6
ByLayer
62
190
370
-1
100
AcDbLine
10
380.281578859
20
3527.90856231
11
381.081578859
21
3527.90856231
0
LINE
5
41D
100
AcDbEntity
8
0
6
ByLayer
62
190
370
-1
100
AcDbLine
10
380.181578859
20
3528.07516231
11
380.231578859
21
3528.07516231
0
LINE
5
41E
100
AcDbEntity
8
0
6
ByLayer
62
190
370
-1
100
AcDbLine
10
380.281578859
20
3528.07516231
11
381.081578859
21
3528.07516231
0
LINE
5
41F
100
AcDbEntity
8
0
6
ByLayer
62
192
370
-1
100
AcDbLine
10
380.181578859
20
3528.07516231
11
380.181578859
21
3528.24116231
0
LINE
5
420
100
AcDbEntity
8
0
6
ByLayer
62
190
370
-1
100
AcDbLine
10
380.181578859
20
3528.24116231
11
379.931578859
21
3528.24116231
0
LINE
5
421
100
AcDbEntity
8
0
6
ByLayer
62
192
370
-1
100
AcDbLine
10
379.931578859
20
3528.24116231
11
379.931578859
21
3528.40716231
0
LINE
5
422
100
AcDbEntity
8
0
6
ByLayer
62
256
370
-1
100
AcDbLine
10
381.281578859
20
3528.40716231
11
381.081578859
21
3528.40716231
0
LINE
5
423
100
AcDbEntity
8
0
6
ByLayer
62
256
370
-1
100
AcDbLine
10
379.931578859
20
3528.40716231
11
373.081578859
21
3528.40716231
0
LINE
5
424
100
AcDbEntity
8
0
6
ByLayer
62
256
370
-1
100
AcDbLine
10
381.281578859
20
3528.30716231
11
381.081578859
21
3528.30716231
0
LINE
5
425
100
AcDbEntity
8
0
6
ByLayer
62
256
370
-1
100
AcDbLine
10
379.931578859
20
3528.30716231
11
373.081578859
21
3528.30716231
0
LINE
5
426
100
AcDbEntity
8
0
6
ByLayer
62
193
370
-1
100
AcDbLine
10
377.981578859
20
3525.57616231
11
377.981578859
21
3526.47616231
0
LINE
5
427
100
AcDbEntity
8
0
6
ByLayer
62
193
370
-1
100
AcDbLine
10
377.981578859
20
3526.47616231
11
378.031578859
21
3526.47616231
0
LINE
5
428
100
AcDbEntity
8
0
6
ByLayer
62
193
370
-1
100
AcDbLine
10
378.031578859
20
3526.47616231
11
378.031578859
21
3525.57616231
0
LINE
5
429
100
AcDbEntity
8
0
6
ByLayer
62
193
370
-1
100
AcDbLine
10
378.231578859
20
3525.74276231
11
378.231578859
21
3526.60944231
0
LINE
5
42A
100
AcDbEntity
8
0
6
ByLayer
62
193
370
-1
100
AcDbLine
10
378.281578859
20
3526.64276231
11
378.281578859
21
3525.74276231
0
LINE
5
42B
100
AcDbEntity
8
0
6
ByLayer
62
193
370
-1
100
AcDbLine
10
378.481578859
20
3525.90936231
11
378.481578859
21
3526.77604231
0
LINE
5
42C
100
AcDbEntity
8
0
6
ByLayer
62
193
370
-1
100
AcDbLine
10
378.531578859
20
3526.80936231
11
378.531578859
21
3525.90936231
0
LINE
5
42D
100
AcDbEntity
8
0
6
ByLayer
62
193
370
-1
100
AcDbLine
10
378.731578859
20
3526.07596231
11
378.731578859
21
3526.94264231
0
LINE
5
42E
100
AcDbEntity
8
0
6
ByLayer
62
193
370
-1
100
AcDbLine
10
378.781578859
20
3526.97596231
11
378.781578859
21
3526.07596231
0
LINE
5
42F
100
AcDbEntity
8
0
6
ByLayer
62
193
370
-1
100
AcDbLine
10
378.981578859
20
3526.24256231
11
378.981578859
21
3527.10924231
0
LINE
5
430
100
AcDbEntity
8
0
6
ByLayer
62
193
370
-1
100
AcDbLine
10
379.031578859
20
3527.14256231
11
379.031578859
21
3526.24256231
0
LINE
5
431
100
AcDbEntity
8
0
6
ByLayer
62
193
370
-1
100
AcDbLine
10
379.231578859
20
3526.40916231
11
379.231578859
21
3527.27584231
0
LINE
5
432
100
AcDbEntity
8
0
6
ByLayer
62
193
370
-1
100
AcDbLine
10
379.281578859
20
3527.30916231
11
379.281578859
21
3526.40916231
0
LINE
5
433
100
AcDbEntity
8
0
6
ByLayer
62
193
370
-1
100
AcDbLine
10
379.481578859
20
3526.57576231
11
379.481578859
21
3527.44244231
0
LINE
5
434
100
AcDbEntity
8
0
6
ByLayer
62
193
370
-1
100
AcDbLine
10
379.531578859
20
3527.47576231
11
379.531578859
21
3526.57576231
0
LINE
5
435
100
AcDbEntity
8
0
6
ByLayer
62
193
370
-1
100
AcDbLine
10
379.731578859
20
3526.74236231
11
379.731578859
21
3527.60904231
0
LINE
5
436
100
AcDbEntity
8
0
6
ByLayer
62
193
370
-1
100
AcDbLine
10
379.781578859
20
3527.64236231
11
379.781578859
21
3526.74236231
0
LINE
5
437
100
AcDbEntity
8
0
6
ByLayer
62
193
370
-1
100
AcDbLine
10
379.981578859
20
3526.90896231
11
379.981578859
21
3527.77564231
0
LINE
5
438
100
AcDbEntity
8
0
6
ByLayer
62
193
370
-1
100
AcDbLine
10
380.031578859
20
3527.80896231
11
380.031578859
21
3526.90896231
0
LINE
5
439
100
AcDbEntity
8
0
6
ByLayer
62
193
370
-1
100
AcDbLine
10
380.231578859
20
3527.07556231
11
380.231578859
21
3527.97556231
0
LINE
5
43A
100
AcDbEntity
8
0
6
ByLayer
62
256
370
-1
100
AcDbLine
10
380.231578859
20
3527.97556231
11
380.281578859
21
3527.97556231
0
LINE
5
43B
100
AcDbEntity
8
0
6
ByLayer
62
193
370
-1
100
AcDbLine
10
380.281578859
20
3527.97556231
11
380.281578859
21
3527.07556231
0
LINE
5
43C
100
AcDbEntity
8
0
6
ByLayer
62
193
370
-1
100
AcDbLine
10
380.231578859
20
3527.24216231
11
380.231578859
21
3528.14216231
0
LINE
5
43D
100
AcDbEntity
8
0
6
ByLayer
62
256
370
-1
100
AcDbLine
10
380.231578859
20
3528.14216231
11
380.281578859
21
3528.14216231
0
LINE
5
43E
100
AcDbEntity
8
0
6
ByLayer
62
193
370
-1
100
AcDbLine
10
380.281578859
20
3528.14216231
11
380.281578859
21
3527.24216231
0
LINE
5
43F
100
AcDbEntity
8
0
6
ByLayer
62
193
370
-1
100
AcDbLine
10
380.231578859
20
3527.40876231
11
380.231578859
21
3528.30876231
0
LINE
5
440
100
AcDbEntity
8
0
6
ByLayer
62
256
370
-1
100
AcDbLine
10
380.231578859
20
3528.30876231
11
380.281578859
21
3528.30876231
0
LINE
5
441
100
AcDbEntity
8
0
6
ByLayer
62
193
370
-1
100
AcDbLine
10
380.281578859
20
3528.30876231
11
380.281578859
21
3527.40876231
0
LINE
5
442
100
AcDbEntity
8
0
6
ByLayer
62
193
370
-1
100
AcDbLine
10
380.231578859
20
3527.57536231
11
380.231578859
21
3528.47536231
0
LINE
5
443
100
AcDbEntity
8
0
6
ByLayer
62
256
370
-1
100
AcDbLine
10
380.231578859
20
3528.47536231
11
380.281578859
21
3528.47536231
0
LINE
5
444
100
AcDbEntity
8
0
6
ByLayer
62
193
370
-1
100
AcDbLine
10
380.281578859
20
3528.47536231
11
380.281578859
21
3527.57536231
0
LINE
5
445
100
AcDbEntity
8
0
6
ByLayer
62
193
370
-1
100
AcDbLine
10
380.231578859
20
3527.74196231
11
380.231578859
21
3528.64196231
0
LINE
5
446
100
AcDbEntity
8
0
6
ByLayer
62
256
370
-1
100
AcDbLine
10
380.231578859
20
3528.64196231
11
380.281578859
21
3528.64196231
0
LINE
5
447
100
AcDbEntity
8
0
6
ByLayer
62
193
370
-1
100
AcDbLine
10
380.281578859
20
3528.64196231
11
380.281578859
21
3527.74196231
0
LINE
5
448
100
AcDbEntity
8
0
6
ByLayer
62
256
370
-1
100
AcDbLine
10
380.231578859
20
3527.90856231
11
380.231578859
21
3528.80856231
0
LINE
5
449
100
AcDbEntity
8
0
6
ByLayer
62
256
370
-1
100
AcDbLine
10
380.231578859
20
3528.80856231
11
380.281578859
21
3528.80856231
0
LINE
5
44A
100
AcDbEntity
8
0
6
ByLayer
62
256
370
-1
100
AcDbLine
10
380.281578859
20
3528.80856231
11
380.281578859
21
3527.90856231
0
LINE
5
44B
100
AcDbEntity
8
0
6
ByLayer
62
193
370
-1
100
AcDbLine
10
380.231578859
20
3527.90856231
11
380.231578859
21
3528.80856231
0
LINE
5
44C
100
AcDbEntity
8
0
6
ByLayer
62
256
370
-1
100
AcDbLine
10
380.231578859
20
3528.80856231
11
380.281578859
21
3528.80856231
0
LINE
5
44D
100
AcDbEntity
8
0
6
ByLayer
62
193
370
-1
100
AcDbLine
10
380.281578859
20
3528.80856231
11
380.281578859
21
3527.90856231
0
LINE
5
44E
100
AcDbEntity
8
0
6
ByLayer
62
193
370
-1
100
AcDbLine
10
380.231578859
20
3528.07516231
11
380.231578859
21
3528.97516231
0
LINE
5
44F
100
AcDbEntity
8
0
6
ByLayer
62
256
370
-1
100
AcDbLine
10
380.231578859
20
3528.97516231
11
380.281578859
21
3528.97516231
0
LINE
5
450
100
AcDbEntity
8
0
6
ByLayer
62
193
370
-1
100
AcDbLine
10
380.281578859
20
3528.97516231
11
380.281578859
21
3528.07516231
0
LINE
5
451
100
AcDbEntity
8
0
6
ByLayer
62
193
370
-1
100
AcDbLine
10
380.131578859
20
3528.24116231
11
380.131578859
21
3529.08582898
0
LINE
5
452
100
AcDbEntity
8
0
6
ByLayer
62
193
370
-1
100
AcDbLine
10
380.081578859
20
3529.14116231
11
380.081578859
21
3528.24116231
0
LINE
5
453
100
AcDbEntity
8
0
6
ByLayer
62
193
370
-1
100
AcDbLine
10
379.881578859
20
3528.40716231
11
379.881578859
21
3529.27396231
0
LINE
5
454
100
AcDbEntity
8
0
6
ByLayer
62
193
370
-1
100
AcDbLine
10
379.831578859
20
3529.30716231
11
379.831578859
21
3528.40716231
0
LINE
5
455
100
AcDbEntity
8
0
6
ByLayer
62
193
370
-1
100
AcDbLine
10
379.881578859
20
3529.30716231
11
379.831578859
21
3529.30716231
0
LWPOLYLINE
5
456
100
AcDbEntity
8
0
6
ByLayer
62
193
370
-1
100
AcDbPolyline
90
3
70
0
43
0
10
378.031578859
20
3526.47616231
10
380.031578859
20
3527.80896231
10
380.281578859
20
3527.97556231
0
LWPOLYLINE
5
457
100
AcDbEntity
8
0
6
ByLayer
62
193
370
-1
100
AcDbPolyline
90
2
70
0
43
0
10
380.231578859
20
3527.97556231
10
377.981578859
20
3526.47616231
0
LWPOLYLINE
5
458
100
AcDbEntity
8
0
6
ByLayer
62
193
370
-1
100
AcDbPolyline
90
3
70
0
43
0
10
379.831578859
20
3529.30716231
10
380.081578859
20
3529.14116231
10
380.231578859
20
3528.97516231
0
LWPOLYLINE
5
459
100
AcDbEntity
8
0
6
ByLayer
62
193
370
-1
100
AcDbPolyline
90
3
70
0
43
0
10
380.281578859
20
3528.97516231
10
380.131578859
20
3529.14116231
10
379.881578859
20
3529.30716231
0
LINE
5
45A
100
AcDbEntity
8
0
6
ByLayer
62
256
370
-1
100
AcDbLine
10
373.081578859
20
3527.50956231
11
373.081578859
21
3527.65956231
0
LINE
5
45B
100
AcDbEntity
8
0
6
ByLayer
62
256
370
-1
100
AcDbLine
10
381.281578859
20
3528.30716231
11
381.481578859
21
3528.30716231
0
LINE
5
45C
100
AcDbEntity
8
0
6
ByLayer
62
256
370
-1
100
AcDbLine
10
381.481578859
20
3528.30716231
11
381.481578859
21
3528.40716231
0
LINE
5
45D
100
AcDbEntity
8
0
6
ByLayer
62
256
370
-1
100
AcDbLine
10
381.481578859
20
3528.40716231
11
381.281578859
21
3528.40716231
0
LINE
5
45E
100
AcDbEntity
8
0
6
ByLayer
62
256
370
-1
100
AcDbLine
10
381.281578859
20
3527.50956231
11
381.881578859
21
3527.50956231
0
LINE
5
45F
100
AcDbEntity
8
0
6
ByLayer
62
256
370
-1
100
AcDbLine
10
381.881578859
20
3527.50956231
11
381.881578859
21
3527.70956231
0
LINE
5
460
100
AcDbEntity
8
0
6
ByLayer
62
256
370
-1
100
AcDbLine
10
381.881578859
20
3527.70956231
11
381.281578859
21
3527.70956231
0
LINE
5
461
100
AcDbEntity
8
0
6
ByLayer
62
256
370
-1
100
AcDbLine
10
379.231578859
20
3527.50956231
11
379.231578859
21
3527.30916231
0
LINE
5
462
100
AcDbEntity
8
0
6
ByLayer
62
193
370
-1
100
AcDbLine
10
379.231578859
20
3527.27584231
11
379.231578859
21
3526.00956231
0
LINE
5
463
100
AcDbEntity
8
0
6
ByLayer
62
256
370
-1
100
AcDbLine
10
379.231578859
20
3526.00956231
11
379.231578859
21
3525.40956231
0
LINE
5
464
100
AcDbEntity
8
0
6
ByLayer
62
256
370
-1
100
AcDbLine
10
379.231578859
20
3527.50956231
11
378.331578859
21
3527.50956231
0
LINE
5
465
100
AcDbEntity
8
0
6
ByLayer
62
256
370
-1
100
AcDbLine
10
378.331578859
20
3527.50956231
11
378.331578859
21
3526.70940231
0
LINE
5
466
100
AcDbEntity
8
0
6
ByLayer
62
256
370
-1
100
AcDbLine
10
378.331578859
20
3526.67608231
11
378.331578859
21
3525.40956231
0
LINE
5
467
100
AcDbEntity
8
0
6
ByLayer
62
256
370
-1
100
AcDbLine
10
381.031578859
20
3527.07556231
11
381.031578859
21
3526.00956231
0
LINE
5
468
100
AcDbEntity
8
0
6
ByLayer
62
256
370
-1
100
AcDbLine
10
380.531578859
20
3527.07556231
11
380.531578859
21
3526.00956231
0
LINE
5
469
100
AcDbEntity
8
0
6
ByLayer
62
256
370
-1
100
AcDbLine
10
381.031578859
20
3526.00956231
11
380.251686902
21
3526.00956231
0
LINE
5
46A
100
AcDbEntity
8
0
6
ByLayer
62
256
370
-1
100
AcDbLine
10
380.201686902
20
3526.00956231
11
380.131578859
21
3526.00956231
0
LINE
5
46B
100
AcDbEntity
8
0
6
ByLayer
62
256
370
-1
100
AcDbLine
10
380.081578859
20
3526.00956231
11
380.031578859
21
3526.00956231
0
LINE
5
46C
100
AcDbEntity
8
0
6
ByLayer
62
256
370
-1
100
AcDbLine
10
380.031578859
20
3526.00956231
11
380.031578859
21
3526.17628231
0
LINE
5
46D
100
AcDbEntity
8
0
6
ByLayer
62
193
370
-1
100
AcDbLine
10
380.031578859
20
3526.20960231
11
380.031578859
21
3527.50956231
0
LINE
5
46E
100
AcDbEntity
8
0
6
ByLayer
62
256
370
-1
100
AcDbLine
10
376.881578859
20
3525.40956231
11
376.881578859
21
3528.30716231
0
LINE
5
46F
100
AcDbEntity
8
0
6
ByLayer
62
256
370
-1
100
AcDbLine
10
376.681578859
20
3525.40956231
11
376.681578859
21
3528.30716231
0
LINE
5
470
100
AcDbEntity
8
0
6
ByLayer
62
256
370
-1
100
AcDbLine
10
375.581578859
20
3525.40956231
11
375.581578859
21
3528.30716231
0
LINE
5
471
100
AcDbEntity
8
0
6
ByLayer
62
256
370
-1
100
AcDbLine
10
375.381578859
20
3525.40956231
11
375.381578859
21
3528.30716231
0
LINE
5
472
100
AcDbEntity
8
0
6
ByLayer
62
256
370
-1
100
AcDbLine
10
372.881578859
20
3525.40956231
11
372.881578859
21
3528.30716231
0
LINE
5
473
100
AcDbEntity
8
0
6
ByLayer
62
256
370
-1
100
AcDbLine
10
373.081578859
20
3527.50956231
11
372.881578859
21
3527.50956231
0
LINE
5
474
100
AcDbEntity
8
0
6
ByLayer
62
256
370
-1
100
AcDbLine
10
372.881578859
20
3527.50956231
11
372.281578859
21
3527.50956231
0
LINE
5
475
100
AcDbEntity
8
0
6
ByLayer
62
256
370
-1
100
AcDbLine
10
372.281578859
20
3527.50956231
11
372.281578859
21
3527.70956231
0
LINE
5
476
100
AcDbEntity
8
0
6
ByLayer
62
256
370
-1
100
AcDbLine
10
372.281578859
20
3527.70956231
11
372.881578859
21
3527.70956231
0
LINE
5
477
100
AcDbEntity
8
0
6
ByLayer
62
256
370
-1
100
AcDbLine
10
373.081578859
20
3527.50956231
11
373.081578859
21
3527.65956231
0
LINE
5
478
100
AcDbEntity
8
0
6
ByLayer
62
256
370
-1
100
AcDbLine
10
373.081578859
20
3527.65956231
11
372.881578859
21
3527.65956231
0
LINE
5
479
100
AcDbEntity
8
0
6
ByLayer
62
256
370
-1
100
AcDbLine
10
375.581578859
20
3527.50956231
11
375.581578859
21
3527.65956231
0
LINE
5
47A
100
AcDbEntity
8
0
6
ByLayer
62
256
370
-1
100
AcDbLine
10
375.581578859
20
3527.65956231
11
375.381578859
21
3527.65956231
0
LINE
5
47B
100
AcDbEntity
8
0
6
ByLayer
62
256
370
-1
100
AcDbLine
10
376.881578859
20
3527.50956231
11
376.881578859
21
3527.65956231
0
LINE
5
47C
100
AcDbEntity
8
0
6
ByLayer
62
256
370
-1
100
AcDbLine
10
376.881578859
20
3527.65956231
11
376.681578859
21
3527.65956231
0
LINE
5
47D
100
AcDbEntity
8
0
6
ByLayer
62
256
370
-1
100
AcDbLine
10
374.081578859
20
3525.40956231
11
374.081578859
21
3527.50956231
0
LINE
5
47E
100
AcDbEntity
8
0
6
ByLayer
62
256
370
-1
100
AcDbLine
10
374.011578859
20
3525.40956231
11
374.011578859
21
3527.43956231
0
LINE
5
47F
100
AcDbEntity
8
0
6
ByLayer
62
256
370
-1
100
AcDbLine
10
374.081578859
20
3527.50956231
11
373.281578859
21
3527.50956231
0
LINE
5
480
100
AcDbEntity
8
0
6
ByLayer
62
256
370
-1
100
AcDbLine
10
374.011578859
20
3527.43956231
11
373.351578859
21
3527.43956231
0
LINE
5
481
100
AcDbEntity
8
0
6
ByLayer
62
256
370
-1
100
AcDbLine
10
373.281578859
20
3527.50956231
11
373.281578859
21
3525.40956231
0
LINE
5
482
100
AcDbEntity
8
0
6
ByLayer
62
256
370
-1
100
AcDbLine
10
373.351578859
20
3527.43956231
11
373.351578859
21
3525.40956231
0
LINE
5
483
100
AcDbEntity
8
0
6
ByLayer
62
22
370
-1
100
AcDbLine
10
373.351578859
20
3526.42456231
11
374.011578859
21
3526.42456231
0
LINE
5
484
100
AcDbEntity
8
0
6
ByLayer
62
22
370
-1
100
AcDbLine
10
378.331578859
20
3525.74276231
11
379.231578859
21
3525.74276231
0
LINE
5
485
100
AcDbEntity
8
0
6
ByLayer
62
256
370
-1
100
AcDbLine
10
378.931578859
20
3526.07596231
11
378.931578859
21
3526.24256231
0
LINE
5
486
100
AcDbEntity
8
0
6
ByLayer
62
256
370
-1
100
AcDbLine
10
379.181578859
20
3526.24256231
11
379.181578859
21
3526.40916231
0
LINE
5
487
100
AcDbEntity
8
0
6
ByLayer
62
256
370
-1
100
AcDbLine
10
379.431578859
20
3526.40916231
11
379.431578859
21
3526.57576231
0
LINE
5
488
100
AcDbEntity
8
0
6
ByLayer
62
192
370
-1
100
AcDbLine
10
378.931578859
20
3526.07596231
11
378.931578859
21
3526.24256231
0
LINE
5
489
100
AcDbEntity
8
0
6
ByLayer
62
190
370
-1
100
AcDbLine
10
378.931578859
20
3526.24256231
11
379.181578859
21
3526.24256231
0
LINE
5
48A
100
AcDbEntity
8
0
6
ByLayer
62
192
370
-1
100
AcDbLine
10
379.181578859
20
3526.24256231
11
379.181578859
21
3526.40916231
0
LINE
5
48B
100
AcDbEntity
8
0
6
ByLayer
62
190
370
-1
100
AcDbLine
10
379.181578859
20
3526.40916231
11
379.431578859
21
3526.40916231
0
LINE
5
48C
100
AcDbEntity
8
0
6
ByLayer
62
192
370
-1
100
AcDbLine
10
379.431578859
20
3526.40916231
11
379.431578859
21
3526.57576231
0
LINE
5
48D
100
AcDbEntity
8
0
6
ByLayer
62
190
370
-1
100
AcDbLine
10
379.431578859
20
3526.57576231
11
379.681578859
21
3526.57576231
0
LINE
5
48E
100
AcDbEntity
8
0
6
ByLayer
62
192
370
-1
100
AcDbLine
10
379.681578859
20
3526.57576231
11
379.681578859
21
3526.74236231
0
LINE
5
48F
100
AcDbEntity
8
0
6
ByLayer
62
190
370
-1
100
AcDbLine
10
379.681578859
20
3526.74236231
11
379.931578859
21
3526.74236231
0
LINE
5
490
100
AcDbEntity
8
0
6
ByLayer
62
192
370
-1
100
AcDbLine
10
379.931578859
20
3526.74236231
11
379.931578859
21
3526.90896231
0
LINE
5
491
100
AcDbEntity
8
0
6
ByLayer
62
190
370
-1
100
AcDbLine
10
379.931578859
20
3526.90896231
11
380.181578859
21
3526.90896231
0
LINE
5
492
100
AcDbEntity
8
0
6
ByLayer
62
192
370
-1
100
AcDbLine
10
380.181578859
20
3526.90896231
11
380.181578859
21
3527.07556231
0
LWPOLYLINE
5
493
100
AcDbEntity
8
Non notified road
6
ByLayer
62
256
370
-1
100
AcDbPolyline
90
8
70
0
43
0
10
418.012537196
20
3372.73086166
10
418.012537196
20
3375.13086166
10
418.012537196
20
3375.13086166
10
409.652524469
20
3375.13086166
10
408.573732882
20
3374.99360658
10
408.673769985
20
3372.58698723
10
409.339337024
20
3372.67166759
10
418.012537196
20
3372.73086166
0
LINE
5
494
100
AcDbEntity
8
Shortest Distance to road
6
ByLayer
62
256
370
-1
100
AcDbLine
10
417.175037196
20
3378.13086166
11
417.175037196
21
3375.13086166
0
LWPOLYLINE
5
495
100
AcDbEntity
8
Front yard
6
ByLayer
62
256
370
-1
100
AcDbPolyline
90
6
70
0
43
0
10
417.175037196
20
3375.13086166
10
417.175037196
20
3378.13086166
10
409.375037196
20
3378.13086166
10
409.375037196
20
3375.09596544
10
409.652524469
20
3375.13086166
10
417.175037196
20
3375.13086166
0
LWPOLYLINE
5
496
100
AcDbEntity
8
Side yard 1
6
ByLayer
62
256
370
-1
100
AcDbPolyline
90
7
70
0
43
0
10
409.375037196
20
3378.13086166
10
409.375037196
20
3379.53086166
10
409.175037196
20
3379.53086166
10
409.175037196
20
3385.53086166
10
407.746819033
20
3385.55482569
10
408.326278645
20
3378.13086166
10
409.375037196
20
3378.13086166
0
LWPOLYLINE
5
497
100
AcDbEntity
8
Side yard 2
6
ByLayer
62
256
370
-1
100
AcDbPolyline
90
9
70
0
43
0
10
417.175037196
20
3378.13086166
10
418.274959102
20
3378.12996915
10
418.957537196
20
3385.93086166
10
417.575037196
20
3385.93086166
10
417.575037196
20
3382.13086166
10
417.375037196
20
3382.13086166
10
417.375037196
20
3379.53086166
10
417.175037196
20
3379.53086166
10
417.175037196
20
3378.13086166
0
LWPOLYLINE
5
498
100
AcDbEntity
8
Rear yard
6
ByLayer
62
256
370
-1
100
AcDbPolyline
90
8
70
0
43
0
10
417.575037196
20
3385.93086166
10
417.575037196
20
3386.83086166
10
414.289126791
20
3387.43334806
10
409.175037196
20
3386.53086166
10
409.175037196
20
3385.53086166
10
412.575037196
20
3385.53086166
10
412.575037196
20
3385.93086166
10
417.575037196
20
3385.93086166
0
LWPOLYLINE
5
499
100
AcDbEntity
8
OHEL
6
ByLayer
62
256
370
-1
100
AcDbPolyline
90
5
70
0
43
0
10
397.618015792
20
3373.90034833
10
421.282558712
20
3378.59666004
10
432.0787103
20
3378.56686599
10
436.520524347
20
3393.94125132
10
436.432340359
20
3421.84960632
0
MTEXT
5
49A
100
AcDbEntity
8
Voltage
6
ByLayer
62
256
370
-1
100
AcDbMText
10
397.93769798
20
3375.89665631
30
0
40
0.75
41
6.22916650767
71
1
72
5
1
11000 VOLTS
7
standard
210
0
220
0
230
1
50
0
73
1
44
1
0
LINE
5
49B
100
AcDbEntity
8
OHEL
6
ByLayer
62
256
370
-1
100
AcDbLine
10
372.048618479
20
3533.88408892
11
394.028300196
21
3533.765819
0
LINE
5
49C
100
AcDbEntity
8
Vert_clear_OHE
6
ByLayer
62
256
370
-1
100
AcDbLine
10
380.942660838
20
3531.50716231
11
380.955192903
21
3533.83616376
0
LINE
5
49D
100
AcDbEntity
8
Horiz_clear_OHE
6
ByLayer
62
256
370
-1
100
AcDbLine
10
417.175037196
20
3378.13086166
11
417.24174063
21
3377.79474549
0
MTEXT
5
49E
100
AcDbEntity
8
Plan info
6
ByLayer
62
256
370
-1
100
AcDbMText
10
350.345511096
20
3427.14403171
30
0
40
2.5
41
14.6527777778
71
1
72
5
1
Plan info
7
standard
210
0
220
0
230
1
50
0
73
1
44
1
0
MTEXT
5
49F
100
AcDbEntity
8
Plan info
6
ByLayer
62
256
370
-1
100
AcDbMText
10
349.131701187
20
3420.98519074
30
0
40
2.5
41
30.8333333333
71
1
72
5
1
PLOT_AREA=123.2\PCRZ_ZONE=YES
7
standard
210
0
220
0
230
1
50
0
73
1
44
1
0
LWPOLYLINE
5
4A0
100
AcDbEntity
8
Building foot print
6
ByLayer
62
256
370
-1
100
AcDbPolyline
90
9
70
0
43
0
10
395.241372197
20
3385.21605136
10
395.241372197
20
3385.21605136
10
402.788760556
20
3385.37941474
10
402.658069848
20
3379.85773235
10
395.143354166
20
3379.75971432
10
397.626477609
20
3382.07947438
10
395.20869952
20
3385.21605136
10
395.241372197
20
3385.21605136
10
395.241372197
20
3385.21605136
0
ENDSEC
0
SECTION
2
OBJECTS
0
DICTIONARY
5
C
330
0
100
AcDbDictionary
281
1
3
ACAD_GROUP
350
D
0
DICTIONARY
5
D
330
C
100
AcDbDictionary
281
1
0
ENDSEC
0
EOF
